SplineFontDB: 2.0
FontName: Verachart
FullName: Verachart
FamilyName: Verachart
Weight: Book
Copyright: Copyright (c) NECTEC, 2003. All rights reserved.\nModified under GNU General Public License by TLWG.
Version: 0.9.7: 2007-04-13
ItalicAngle: 0
UnderlinePosition: -170
UnderlineWidth: 20
Ascent: 1638
Descent: 410
Order2: 1
NeedsXUIDChange: 1
FSType: 0
OS2Version: 0
OS2_WeightWidthSlopeOnly: 0
OS2_UseTypoMetrics: 0
CreationTime: 1153662374
ModificationTime: 1184251702
PfmFamily: 33
TTFWeight: 400
TTFWidth: 5
LineGap: 0
VLineGap: 0
Panose: 2 11 5 4 2 2 2 2 2 4
OS2TypoAscent: 0
OS2TypoAOffset: 1
OS2TypoDescent: 0
OS2TypoDOffset: 1
OS2TypoLinegap: 0
OS2WinAscent: 0
OS2WinAOffset: 1
OS2WinDescent: 0
OS2WinDOffset: 1
HheadAscent: 0
HheadAOffset: 1
HheadDescent: 0
HheadDOffset: 1
OS2SubXSize: -12660
OS2SubYSize: -12824
OS2SubXOff: 24034
OS2SubYOff: -18656
OS2SupXSize: -12836
OS2SupYSize: -12856
OS2SupXOff: -28420
OS2SupYOff: -18656
OS2StrikeYSize: -12928
OS2StrikeYPos: -12660
OS2Vendor: 'PfEd'
Lookup: 6 0 0 "'ccmp' Glyph Composition/Decomposition in Thai lookup 0"  {"'ccmp' Glyph Composition/Decomposition in Thai lookup 0"  } ['ccmp' ('thai' <'KUY ' 'PAL ' 'THA ' 'dflt' > ) ]
Lookup: 6 0 0 "'ccmp' Glyph Composition/Decomposition in Thai lookup 1"  {"'ccmp' Glyph Composition/Decomposition in Thai lookup 1"  } ['ccmp' ('thai' <'KUY ' 'PAL ' 'THA ' 'dflt' > ) ]
Lookup: 5 0 0 "Required Feature in Thai lookup 2"  {"Required Feature in Thai lookup 2"  } [' RQD' ('thai' <'PAL ' > ) ]
Lookup: 1 0 0 "Single Substitution lookup 3"  {"Single Substitution lookup 3"  } []
Lookup: 2 0 0 "Multiple Substitution lookup 4"  {"Multiple Substitution lookup 4"  } []
Lookup: 1 0 0 "Single Substitution lookup 5"  {"Single Substitution lookup 5"  } []
Lookup: 2 0 0 "Multiple Substitution lookup 6"  {"Multiple Substitution lookup 6"  } []
Lookup: 1 0 0 "Single Substitution lookup 7"  {"Single Substitution lookup 7"  } []

StartChar: .notdef
Encoding: 65536 -1 0
Width: 1229
Flags: W
Fore
102 -362 m 1,0,-1
 102 1444 l 1,1,-1
 1126 1444 l 1,2,-1
 1126 -362 l 1,3,-1
 102 -362 l 1,0,-1
217 -248 m 1,4,-1
 1012 -248 l 1,5,-1
 1012 1329 l 1,6,-1
 217 1329 l 1,7,-1
 217 -248 l 1,4,-1
EndSplineSet
EndChar
StartChar: uni0E4D.high
Encoding: 63262 63262 2
Width: 0
VWidth: 2561
Flags: W
TeX: 0 0 0 0
HStem: 1881 102<-412.583 -332.678> 2139 103<-417.844 -328.753>
VStem: -551.5 100<2020.16 2102.44> -291.5 100<2020.77 2104.07>
AnchorPoint: "AboveMark" -364 1848 mark 0
Fore
-370.5 2242 m 24,0,1
 -296.114 2242 -296.114 2242 -243.807 2188.48 c 128,-1,2
 -191.5 2134.96 -191.5 2134.96 -191.5 2060 c 0,3,4
 -191.5 1985.95 -191.5 1985.95 -243.977 1933.48 c 128,-1,5
 -296.454 1881 -296.454 1881 -370.5 1881 c 0,6,7
 -445.151 1881 -445.151 1881 -498.326 1933.36 c 128,-1,8
 -551.5 1985.73 -551.5 1985.73 -551.5 2060 c 0,9,10
 -551.5 2135.18 -551.5 2135.18 -498.492 2188.59 c 128,-1,11
 -445.485 2242 -445.485 2242 -370.5 2242 c 24,0,1
-371.5 1983 m 0,12,13
 -341.637 1983 -341.637 1983 -316.569 2006.41 c 128,-1,14
 -291.5 2029.82 -291.5 2029.82 -291.5 2060 c 0,15,16
 -291.5 2093.9 -291.5 2093.9 -315.059 2116.45 c 128,-1,17
 -338.618 2139 -338.618 2139 -371.5 2139 c 0,18,19
 -407.149 2139 -407.149 2139 -429.324 2115.83 c 128,-1,20
 -451.5 2092.65 -451.5 2092.65 -451.5 2060 c 0,21,22
 -451.5 2029.35 -451.5 2029.35 -427.301 2006.17 c 128,-1,23
 -403.102 1983 -403.102 1983 -371.5 1983 c 0,12,13
EndSplineSet
EndChar
StartChar: exclam
Encoding: 33 33 5
Width: 821
Flags: W
Fore
309 254 m 1,0,-1
 512 254 l 1,1,-1
 512 0 l 1,2,-1
 309 0 l 1,3,-1
 309 254 l 1,0,-1
309 1493 m 1,4,-1
 512 1493 l 1,5,-1
 512 838 l 1,6,-1
 492 481 l 1,7,-1
 330 481 l 1,8,-1
 309 838 l 1,9,-1
 309 1493 l 1,4,-1
EndSplineSet
EndChar
StartChar: quotedbl
Encoding: 34 34 6
Width: 942
Flags: W
Fore
367 1493 m 1,0,-1
 367 938 l 1,1,-1
 197 938 l 1,2,-1
 197 1493 l 1,3,-1
 367 1493 l 1,0,-1
745 1493 m 1,4,-1
 745 938 l 1,5,-1
 575 938 l 1,6,-1
 575 1493 l 1,7,-1
 745 1493 l 1,4,-1
EndSplineSet
EndChar
StartChar: numbersign
Encoding: 35 35 7
Width: 1716
Flags: W
Fore
1047 901 m 1,0,-1
 756 901 l 1,1,-1
 672 567 l 1,2,-1
 965 567 l 1,3,-1
 1047 901 l 1,0,-1
897 1470 m 1,4,-1
 793 1055 l 1,5,-1
 1085 1055 l 1,6,-1
 1190 1470 l 1,7,-1
 1350 1470 l 1,8,-1
 1247 1055 l 1,9,-1
 1559 1055 l 1,10,-1
 1559 901 l 1,11,-1
 1208 901 l 1,12,-1
 1126 567 l 1,13,-1
 1444 567 l 1,14,-1
 1444 414 l 1,15,-1
 1087 414 l 1,16,-1
 983 0 l 1,17,-1
 823 0 l 1,18,-1
 926 414 l 1,19,-1
 633 414 l 1,20,-1
 530 0 l 1,21,-1
 369 0 l 1,22,-1
 473 414 l 1,23,-1
 158 414 l 1,24,-1
 158 567 l 1,25,-1
 510 567 l 1,26,-1
 594 901 l 1,27,-1
 272 901 l 1,28,-1
 272 1055 l 1,29,-1
 633 1055 l 1,30,-1
 735 1470 l 1,31,-1
 897 1470 l 1,4,-1
EndSplineSet
EndChar
StartChar: dollar
Encoding: 36 36 8
Width: 1303
Flags: W
Fore
692 -301 m 1,0,-1
 592 -301 l 1,1,-1
 591 0 l 1,2,3
 486 2 486 2 381 24.5 c 128,-1,4
 276 47 276 47 170 92 c 1,5,-1
 170 272 l 1,6,7
 272 208 272 208 376.5 175.5 c 128,-1,8
 481 143 481 143 592 142 c 1,9,-1
 592 598 l 1,10,11
 371 634 371 634 270.5 720 c 128,-1,12
 170 806 170 806 170 956 c 0,13,14
 170 1119 170 1119 279 1213 c 128,-1,15
 388 1307 388 1307 592 1321 c 1,16,-1
 592 1556 l 1,17,-1
 692 1556 l 1,18,-1
 692 1324 l 1,19,20
 785 1320 785 1320 872 1304.5 c 128,-1,21
 959 1289 959 1289 1042 1262 c 1,22,-1
 1042 1087 l 1,23,24
 959 1129 959 1129 871.5 1152 c 128,-1,25
 784 1175 784 1175 692 1179 c 1,26,-1
 692 752 l 1,27,28
 919 717 919 717 1026 627 c 128,-1,29
 1133 537 1133 537 1133 381 c 0,30,31
 1133 212 1133 212 1019.5 114.5 c 128,-1,32
 906 17 906 17 692 2 c 1,33,-1
 692 -301 l 1,0,-1
592 770 m 1,34,-1
 592 1180 l 1,35,36
 476 1167 476 1167 415 1114 c 128,-1,37
 354 1061 354 1061 354 973 c 0,38,39
 354 887 354 887 410.5 839 c 128,-1,40
 467 791 467 791 592 770 c 1,34,-1
692 578 m 1,41,-1
 692 145 l 1,42,43
 819 162 819 162 883.5 217 c 128,-1,44
 948 272 948 272 948 362 c 0,45,46
 948 450 948 450 886.5 502 c 128,-1,47
 825 554 825 554 692 578 c 1,41,-1
EndSplineSet
EndChar
StartChar: percent
Encoding: 37 37 9
Width: 1946
Flags: W
Fore
1489 657 m 0,0,1
 1402 657 1402 657 1352.5 583 c 128,-1,2
 1303 509 1303 509 1303 377 c 0,3,4
 1303 247 1303 247 1352.5 172.5 c 128,-1,5
 1402 98 1402 98 1489 98 c 0,6,7
 1574 98 1574 98 1623.5 172.5 c 128,-1,8
 1673 247 1673 247 1673 377 c 0,9,10
 1673 508 1673 508 1623.5 582.5 c 128,-1,11
 1574 657 1574 657 1489 657 c 0,0,1
1489 784 m 0,12,13
 1647 784 1647 784 1740 674 c 128,-1,14
 1833 564 1833 564 1833 377 c 256,15,16
 1833 190 1833 190 1739.5 80.5 c 128,-1,17
 1646 -29 1646 -29 1489 -29 c 0,18,19
 1329 -29 1329 -29 1236 80.5 c 128,-1,20
 1143 190 1143 190 1143 377 c 0,21,22
 1143 565 1143 565 1236.5 674.5 c 128,-1,23
 1330 784 1330 784 1489 784 c 0,12,13
457 1393 m 256,24,25
 371 1393 371 1393 321.5 1318.5 c 128,-1,26
 272 1244 272 1244 272 1114 c 0,27,28
 272 982 272 982 321 908 c 128,-1,29
 370 834 370 834 457 834 c 256,30,31
 544 834 544 834 593.5 908 c 128,-1,32
 643 982 643 982 643 1114 c 0,33,34
 643 1243 643 1243 593 1318 c 128,-1,35
 543 1393 543 1393 457 1393 c 256,24,25
1360 1520 m 1,36,-1
 1520 1520 l 1,37,-1
 586 -29 l 1,38,-1
 426 -29 l 1,39,-1
 1360 1520 l 1,36,-1
457 1520 m 256,40,41
 615 1520 615 1520 709 1410.5 c 128,-1,42
 803 1301 803 1301 803 1114 c 0,43,44
 803 925 803 925 709.5 816 c 128,-1,45
 616 707 616 707 457 707 c 256,46,47
 298 707 298 707 205.5 816.5 c 128,-1,48
 113 926 113 926 113 1114 c 0,49,50
 113 1300 113 1300 206 1410 c 128,-1,51
 299 1520 299 1520 457 1520 c 256,40,41
EndSplineSet
EndChar
StartChar: ampersand
Encoding: 38 38 10
Width: 1597
Flags: W
Fore
498 803 m 1,0,1
 407 722 407 722 364.5 641.5 c 128,-1,2
 322 561 322 561 322 473 c 0,3,4
 322 327 322 327 428 230 c 128,-1,5
 534 133 534 133 694 133 c 0,6,7
 789 133 789 133 872 164.5 c 128,-1,8
 955 196 955 196 1028 260 c 1,9,-1
 498 803 l 1,0,1
639 915 m 2,10,-1
 1147 395 l 1,11,12
 1206 484 1206 484 1239 585.5 c 128,-1,13
 1272 687 1272 687 1278 801 c 1,14,-1
 1464 801 l 1,15,16
 1452 669 1452 669 1400 540 c 128,-1,17
 1348 411 1348 411 1255 285 c 1,18,-1
 1534 0 l 1,19,-1
 1282 0 l 1,20,-1
 1139 147 l 1,21,22
 1035 58 1035 58 921 14.5 c 128,-1,23
 807 -29 807 -29 676 -29 c 0,24,25
 435 -29 435 -29 282 108.5 c 128,-1,26
 129 246 129 246 129 461 c 0,27,28
 129 589 129 589 196 701.5 c 128,-1,29
 263 814 263 814 397 913 c 1,30,31
 349 976 349 976 324 1038.5 c 128,-1,32
 299 1101 299 1101 299 1161 c 0,33,34
 299 1323 299 1323 410 1421.5 c 128,-1,35
 521 1520 521 1520 705 1520 c 0,36,37
 788 1520 788 1520 870.5 1502 c 128,-1,38
 953 1484 953 1484 1038 1448 c 1,39,-1
 1038 1266 l 1,40,41
 951 1313 951 1313 872 1337.5 c 128,-1,42
 793 1362 793 1362 725 1362 c 0,43,44
 620 1362 620 1362 554.5 1306.5 c 128,-1,45
 489 1251 489 1251 489 1163 c 0,46,47
 489 1112 489 1112 518.5 1060.5 c 128,-1,48
 548 1009 548 1009 639 915 c 2,10,-1
EndSplineSet
EndChar
StartChar: quotesingle
Encoding: 39 39 11
Width: 563
Flags: W
Fore
367 1493 m 1,0,-1
 367 938 l 1,1,-1
 197 938 l 1,2,-1
 197 1493 l 1,3,-1
 367 1493 l 1,0,-1
EndSplineSet
EndChar
StartChar: parenleft
Encoding: 40 40 12
Width: 799
Flags: W
Fore
635 1554 m 1,0,1
 501 1324 501 1324 436 1099 c 128,-1,2
 371 874 371 874 371 643 c 256,3,4
 371 412 371 412 436.5 185.5 c 128,-1,5
 502 -41 502 -41 635 -270 c 1,6,-1
 475 -270 l 1,7,8
 325 -35 325 -35 250.5 192 c 128,-1,9
 176 419 176 419 176 643 c 0,10,11
 176 866 176 866 250 1092 c 128,-1,12
 324 1318 324 1318 475 1554 c 1,13,-1
 635 1554 l 1,0,1
EndSplineSet
EndChar
StartChar: parenright
Encoding: 41 41 13
Width: 799
Flags: W
Fore
164 1554 m 1,0,-1
 324 1554 l 1,1,2
 474 1318 474 1318 548.5 1092 c 128,-1,3
 623 866 623 866 623 643 c 0,4,5
 623 419 623 419 548.5 192 c 128,-1,6
 474 -35 474 -35 324 -270 c 1,7,-1
 164 -270 l 1,8,9
 297 -41 297 -41 362.5 185.5 c 128,-1,10
 428 412 428 412 428 643 c 256,11,12
 428 874 428 874 362.5 1099 c 128,-1,13
 297 1324 297 1324 164 1554 c 1,0,-1
EndSplineSet
EndChar
StartChar: asterisk
Encoding: 42 42 14
Width: 1024
Flags: W
Fore
963 1247 m 1,0,-1
 604 1053 l 1,1,-1
 963 858 l 1,2,-1
 905 760 l 1,3,-1
 569 963 l 1,4,-1
 569 586 l 1,5,-1
 455 586 l 1,6,-1
 455 963 l 1,7,-1
 119 760 l 1,8,-1
 61 858 l 1,9,-1
 420 1053 l 1,10,-1
 61 1247 l 1,11,-1
 119 1346 l 1,12,-1
 455 1143 l 1,13,-1
 455 1520 l 1,14,-1
 569 1520 l 1,15,-1
 569 1143 l 1,16,-1
 905 1346 l 1,17,-1
 963 1247 l 1,0,-1
EndSplineSet
EndChar
StartChar: plus
Encoding: 43 43 15
Width: 1716
Flags: W
Fore
942 1284 m 1,0,-1
 942 727 l 1,1,-1
 1499 727 l 1,2,-1
 1499 557 l 1,3,-1
 942 557 l 1,4,-1
 942 0 l 1,5,-1
 774 0 l 1,6,-1
 774 557 l 1,7,-1
 217 557 l 1,8,-1
 217 727 l 1,9,-1
 774 727 l 1,10,-1
 774 1284 l 1,11,-1
 942 1284 l 1,0,-1
EndSplineSet
EndChar
StartChar: comma
Encoding: 44 44 16
Width: 651
Flags: W
Fore
240 254 m 1,0,-1
 451 254 l 1,1,-1
 451 82 l 1,2,-1
 287 -238 l 1,3,-1
 158 -238 l 1,4,-1
 240 82 l 1,5,-1
 240 254 l 1,0,-1
EndSplineSet
EndChar
StartChar: hyphen
Encoding: 45 45 17
Width: 739
Flags: W
Fore
100 643 m 1,0,-1
 639 643 l 1,1,-1
 639 479 l 1,2,-1
 100 479 l 1,3,-1
 100 643 l 1,0,-1
EndSplineSet
EndChar
StartChar: period
Encoding: 46 46 18
Width: 651
Flags: W
Fore
219 254 m 1,0,-1
 430 254 l 1,1,-1
 430 0 l 1,2,-1
 219 0 l 1,3,-1
 219 254 l 1,0,-1
EndSplineSet
EndChar
StartChar: slash
Encoding: 47 47 19
Width: 690
Flags: W
Fore
520 1493 m 1,0,-1
 690 1493 l 1,1,-1
 170 -190 l 1,2,-1
 0 -190 l 1,3,-1
 520 1493 l 1,0,-1
EndSplineSet
EndChar
StartChar: zero
Encoding: 48 48 20
Width: 1303
Flags: W
Fore
651 1360 m 0,0,1
 495 1360 495 1360 416.5 1206.5 c 128,-1,2
 338 1053 338 1053 338 745 c 0,3,4
 338 438 338 438 416.5 284.5 c 128,-1,5
 495 131 495 131 651 131 c 0,6,7
 808 131 808 131 886.5 284.5 c 128,-1,8
 965 438 965 438 965 745 c 0,9,10
 965 1053 965 1053 886.5 1206.5 c 128,-1,11
 808 1360 808 1360 651 1360 c 0,0,1
651 1520 m 256,12,13
 902 1520 902 1520 1034.5 1321.5 c 128,-1,14
 1167 1123 1167 1123 1167 745 c 0,15,16
 1167 368 1167 368 1034.5 169.5 c 128,-1,17
 902 -29 902 -29 651 -29 c 256,18,19
 400 -29 400 -29 267.5 169.5 c 128,-1,20
 135 368 135 368 135 745 c 0,21,22
 135 1123 135 1123 267.5 1321.5 c 128,-1,23
 400 1520 400 1520 651 1520 c 256,12,13
EndSplineSet
EndChar
StartChar: one
Encoding: 49 49 21
Width: 1303
Flags: W
Fore
254 170 m 1,0,-1
 584 170 l 1,1,-1
 584 1309 l 1,2,-1
 225 1237 l 1,3,-1
 225 1421 l 1,4,-1
 582 1493 l 1,5,-1
 784 1493 l 1,6,-1
 784 170 l 1,7,-1
 1114 170 l 1,8,-1
 1114 0 l 1,9,-1
 254 0 l 1,10,-1
 254 170 l 1,0,-1
EndSplineSet
EndChar
StartChar: two
Encoding: 50 50 22
Width: 1303
Flags: W
Fore
393 170 m 1,0,-1
 1098 170 l 1,1,-1
 1098 0 l 1,2,-1
 150 0 l 1,3,-1
 150 170 l 1,4,5
 265 289 265 289 463.5 489.5 c 128,-1,6
 662 690 662 690 713 748 c 0,7,8
 810 857 810 857 848.5 932.5 c 128,-1,9
 887 1008 887 1008 887 1081 c 0,10,11
 887 1200 887 1200 803.5 1275 c 128,-1,12
 720 1350 720 1350 586 1350 c 0,13,14
 491 1350 491 1350 385.5 1317 c 128,-1,15
 280 1284 280 1284 160 1217 c 1,16,-1
 160 1421 l 1,17,18
 282 1470 282 1470 388 1495 c 128,-1,19
 494 1520 494 1520 582 1520 c 0,20,21
 814 1520 814 1520 952 1404 c 128,-1,22
 1090 1288 1090 1288 1090 1094 c 0,23,24
 1090 1002 1090 1002 1055.5 919.5 c 128,-1,25
 1021 837 1021 837 930 725 c 0,26,27
 905 696 905 696 771 557.5 c 128,-1,28
 637 419 637 419 393 170 c 1,0,-1
EndSplineSet
EndChar
StartChar: three
Encoding: 51 51 23
Width: 1303
Flags: W
Fore
831 805 m 1,0,1
 976 774 976 774 1057.5 676 c 128,-1,2
 1139 578 1139 578 1139 434 c 0,3,4
 1139 213 1139 213 987 92 c 128,-1,5
 835 -29 835 -29 555 -29 c 0,6,7
 461 -29 461 -29 361.5 -10.5 c 128,-1,8
 262 8 262 8 156 45 c 1,9,-1
 156 240 l 1,10,11
 240 191 240 191 340 166 c 128,-1,12
 440 141 440 141 549 141 c 0,13,14
 739 141 739 141 838.5 216 c 128,-1,15
 938 291 938 291 938 434 c 0,16,17
 938 566 938 566 845.5 640.5 c 128,-1,18
 753 715 753 715 588 715 c 2,19,-1
 414 715 l 1,20,-1
 414 881 l 1,21,-1
 596 881 l 2,22,23
 745 881 745 881 824 940.5 c 128,-1,24
 903 1000 903 1000 903 1112 c 0,25,26
 903 1227 903 1227 821.5 1288.5 c 128,-1,27
 740 1350 740 1350 588 1350 c 0,28,29
 505 1350 505 1350 410 1332 c 128,-1,30
 315 1314 315 1314 201 1276 c 1,31,-1
 201 1456 l 1,32,33
 316 1488 316 1488 416.5 1504 c 128,-1,34
 517 1520 517 1520 606 1520 c 0,35,36
 836 1520 836 1520 970 1415.5 c 128,-1,37
 1104 1311 1104 1311 1104 1133 c 0,38,39
 1104 1009 1104 1009 1033 923.5 c 128,-1,40
 962 838 962 838 831 805 c 1,0,1
EndSplineSet
EndChar
StartChar: four
Encoding: 52 52 24
Width: 1303
Flags: W
Fore
774 1317 m 1,0,-1
 264 520 l 1,1,-1
 774 520 l 1,2,-1
 774 1317 l 1,0,-1
721 1493 m 1,3,-1
 975 1493 l 1,4,-1
 975 520 l 1,5,-1
 1188 520 l 1,6,-1
 1188 352 l 1,7,-1
 975 352 l 1,8,-1
 975 0 l 1,9,-1
 774 0 l 1,10,-1
 774 352 l 1,11,-1
 100 352 l 1,12,-1
 100 547 l 1,13,-1
 721 1493 l 1,3,-1
EndSplineSet
EndChar
StartChar: five
Encoding: 53 53 25
Width: 1303
Flags: W
Fore
221 1493 m 1,0,-1
 1014 1493 l 1,1,-1
 1014 1323 l 1,2,-1
 406 1323 l 1,3,-1
 406 957 l 1,4,5
 450 972 450 972 494 979.5 c 128,-1,6
 538 987 538 987 582 987 c 0,7,8
 832 987 832 987 978 850 c 128,-1,9
 1124 713 1124 713 1124 479 c 0,10,11
 1124 238 1124 238 974 104.5 c 128,-1,12
 824 -29 824 -29 551 -29 c 0,13,14
 457 -29 457 -29 359.5 -13 c 128,-1,15
 262 3 262 3 158 35 c 1,16,-1
 158 238 l 1,17,18
 248 189 248 189 344 165 c 128,-1,19
 440 141 440 141 547 141 c 0,20,21
 720 141 720 141 821 232 c 128,-1,22
 922 323 922 323 922 479 c 256,23,24
 922 635 922 635 821 726 c 128,-1,25
 720 817 720 817 547 817 c 0,26,27
 466 817 466 817 385.5 799 c 128,-1,28
 305 781 305 781 221 743 c 1,29,-1
 221 1493 l 1,0,-1
EndSplineSet
EndChar
StartChar: six
Encoding: 54 54 26
Width: 1303
Flags: W
Fore
676 827 m 256,0,1
 540 827 540 827 460.5 734 c 128,-1,2
 381 641 381 641 381 479 c 0,3,4
 381 318 381 318 460.5 224.5 c 128,-1,5
 540 131 540 131 676 131 c 256,6,7
 812 131 812 131 891.5 224.5 c 128,-1,8
 971 318 971 318 971 479 c 0,9,10
 971 641 971 641 891.5 734 c 128,-1,11
 812 827 812 827 676 827 c 256,0,1
1077 1460 m 1,12,-1
 1077 1276 l 1,13,14
 1001 1312 1001 1312 923.5 1331 c 128,-1,15
 846 1350 846 1350 770 1350 c 0,16,17
 570 1350 570 1350 464.5 1215 c 128,-1,18
 359 1080 359 1080 344 807 c 1,19,20
 403 894 403 894 492 940.5 c 128,-1,21
 581 987 581 987 688 987 c 0,22,23
 913 987 913 987 1043.5 850.5 c 128,-1,24
 1174 714 1174 714 1174 479 c 0,25,26
 1174 249 1174 249 1038 110 c 128,-1,27
 902 -29 902 -29 676 -29 c 0,28,29
 417 -29 417 -29 280 169.5 c 128,-1,30
 143 368 143 368 143 745 c 0,31,32
 143 1099 143 1099 311 1309.5 c 128,-1,33
 479 1520 479 1520 762 1520 c 0,34,35
 838 1520 838 1520 915.5 1505 c 128,-1,36
 993 1490 993 1490 1077 1460 c 1,12,-1
EndSplineSet
EndChar
StartChar: seven
Encoding: 55 55 27
Width: 1303
Flags: W
Fore
168 1493 m 1,0,-1
 1128 1493 l 1,1,-1
 1128 1407 l 1,2,-1
 586 0 l 1,3,-1
 375 0 l 1,4,-1
 885 1323 l 1,5,-1
 168 1323 l 1,6,-1
 168 1493 l 1,0,-1
EndSplineSet
EndChar
StartChar: eight
Encoding: 56 56 28
Width: 1303
Flags: W
Fore
651 709 m 0,0,1
 507 709 507 709 424.5 632 c 128,-1,2
 342 555 342 555 342 420 c 256,3,4
 342 285 342 285 424.5 208 c 128,-1,5
 507 131 507 131 651 131 c 256,6,7
 795 131 795 131 878 208.5 c 128,-1,8
 961 286 961 286 961 420 c 0,9,10
 961 555 961 555 878.5 632 c 128,-1,11
 796 709 796 709 651 709 c 0,0,1
449 795 m 1,12,13
 319 827 319 827 246.5 916 c 128,-1,14
 174 1005 174 1005 174 1133 c 0,15,16
 174 1312 174 1312 301.5 1416 c 128,-1,17
 429 1520 429 1520 651 1520 c 0,18,19
 874 1520 874 1520 1001 1416 c 128,-1,20
 1128 1312 1128 1312 1128 1133 c 0,21,22
 1128 1005 1128 1005 1055.5 916 c 128,-1,23
 983 827 983 827 854 795 c 1,24,25
 1000 761 1000 761 1081.5 662 c 128,-1,26
 1163 563 1163 563 1163 420 c 0,27,28
 1163 203 1163 203 1030.5 87 c 128,-1,29
 898 -29 898 -29 651 -29 c 256,30,31
 404 -29 404 -29 271.5 87 c 128,-1,32
 139 203 139 203 139 420 c 0,33,34
 139 563 139 563 221 662 c 128,-1,35
 303 761 303 761 449 795 c 1,12,13
375 1114 m 256,36,37
 375 998 375 998 447.5 933 c 128,-1,38
 520 868 520 868 651 868 c 0,39,40
 781 868 781 868 854.5 933 c 128,-1,41
 928 998 928 998 928 1114 c 256,42,43
 928 1230 928 1230 854.5 1295 c 128,-1,44
 781 1360 781 1360 651 1360 c 0,45,46
 520 1360 520 1360 447.5 1295 c 128,-1,47
 375 1230 375 1230 375 1114 c 256,36,37
EndSplineSet
EndChar
StartChar: nine
Encoding: 57 57 29
Width: 1303
Flags: W
Fore
225 31 m 1,0,-1
 225 215 l 1,1,2
 301 179 301 179 379 160 c 128,-1,3
 457 141 457 141 532 141 c 0,4,5
 732 141 732 141 837.5 275.5 c 128,-1,6
 943 410 943 410 958 684 c 1,7,8
 900 598 900 598 811 552 c 128,-1,9
 722 506 722 506 614 506 c 0,10,11
 390 506 390 506 259.5 641.5 c 128,-1,12
 129 777 129 777 129 1012 c 0,13,14
 129 1242 129 1242 265 1381 c 128,-1,15
 401 1520 401 1520 627 1520 c 0,16,17
 886 1520 886 1520 1022.5 1321.5 c 128,-1,18
 1159 1123 1159 1123 1159 745 c 0,19,20
 1159 392 1159 392 991.5 181.5 c 128,-1,21
 824 -29 824 -29 541 -29 c 0,22,23
 465 -29 465 -29 387 -14 c 128,-1,24
 309 1 309 1 225 31 c 1,0,-1
627 664 m 256,25,26
 763 664 763 664 842.5 757 c 128,-1,27
 922 850 922 850 922 1012 c 0,28,29
 922 1173 922 1173 842.5 1266.5 c 128,-1,30
 763 1360 763 1360 627 1360 c 256,31,32
 491 1360 491 1360 411.5 1266.5 c 128,-1,33
 332 1173 332 1173 332 1012 c 0,34,35
 332 850 332 850 411.5 757 c 128,-1,36
 491 664 491 664 627 664 c 256,25,26
EndSplineSet
EndChar
StartChar: colon
Encoding: 58 58 30
Width: 690
Flags: W
Fore
240 254 m 1,0,-1
 451 254 l 1,1,-1
 451 0 l 1,2,-1
 240 0 l 1,3,-1
 240 254 l 1,0,-1
240 1059 m 1,4,-1
 451 1059 l 1,5,-1
 451 805 l 1,6,-1
 240 805 l 1,7,-1
 240 1059 l 1,4,-1
EndSplineSet
EndChar
StartChar: semicolon
Encoding: 59 59 31
Width: 690
Flags: W
Fore
240 1059 m 1,0,-1
 451 1059 l 1,1,-1
 451 805 l 1,2,-1
 240 805 l 1,3,-1
 240 1059 l 1,0,-1
240 254 m 1,4,-1
 451 254 l 1,5,-1
 451 82 l 1,6,-1
 287 -238 l 1,7,-1
 158 -238 l 1,8,-1
 240 82 l 1,9,-1
 240 254 l 1,4,-1
EndSplineSet
EndChar
StartChar: less
Encoding: 60 60 32
Width: 1716
Flags: W
Fore
1499 1008 m 1,0,-1
 467 641 l 1,1,-1
 1499 276 l 1,2,-1
 1499 94 l 1,3,-1
 217 559 l 1,4,-1
 217 725 l 1,5,-1
 1499 1190 l 1,6,-1
 1499 1008 l 1,0,-1
EndSplineSet
EndChar
StartChar: equal
Encoding: 61 61 33
Width: 1716
Flags: W
Fore
217 930 m 1,0,-1
 1499 930 l 1,1,-1
 1499 762 l 1,2,-1
 217 762 l 1,3,-1
 217 930 l 1,0,-1
217 522 m 1,4,-1
 1499 522 l 1,5,-1
 1499 352 l 1,6,-1
 217 352 l 1,7,-1
 217 522 l 1,4,-1
EndSplineSet
EndChar
StartChar: greater
Encoding: 62 62 34
Width: 1716
Flags: W
Fore
217 1008 m 1,0,-1
 217 1190 l 1,1,-1
 1499 725 l 1,2,-1
 1499 559 l 1,3,-1
 217 94 l 1,4,-1
 217 276 l 1,5,-1
 1247 641 l 1,6,-1
 217 1008 l 1,0,-1
EndSplineSet
EndChar
StartChar: question
Encoding: 63 63 35
Width: 1087
Flags: W
Fore
391 254 m 1,0,-1
 594 254 l 1,1,-1
 594 0 l 1,2,-1
 391 0 l 1,3,-1
 391 254 l 1,0,-1
588 401 m 1,4,-1
 397 401 l 1,5,-1
 397 555 l 2,6,7
 397 656 397 656 425 721 c 128,-1,8
 453 786 453 786 543 872 c 2,9,-1
 633 961 l 2,10,11
 690 1014 690 1014 715.5 1061 c 128,-1,12
 741 1108 741 1108 741 1157 c 0,13,14
 741 1246 741 1246 675.5 1301 c 128,-1,15
 610 1356 610 1356 502 1356 c 0,16,17
 423 1356 423 1356 333.5 1321 c 128,-1,18
 244 1286 244 1286 147 1219 c 1,19,-1
 147 1407 l 1,20,21
 241 1464 241 1464 337.5 1492 c 128,-1,22
 434 1520 434 1520 537 1520 c 0,23,24
 721 1520 721 1520 832.5 1423 c 128,-1,25
 944 1326 944 1326 944 1167 c 0,26,27
 944 1091 944 1091 908 1022.5 c 128,-1,28
 872 954 872 954 782 868 c 2,29,-1
 694 782 l 2,30,31
 647 735 647 735 627.5 708.5 c 128,-1,32
 608 682 608 682 600 657 c 0,33,34
 594 636 594 636 591 606 c 128,-1,35
 588 576 588 576 588 524 c 2,36,-1
 588 401 l 1,4,-1
EndSplineSet
EndChar
StartChar: at
Encoding: 64 64 36
Width: 2048
Flags: W
Fore
762 537 m 0,0,1
 762 394 762 394 833 312.5 c 128,-1,2
 904 231 904 231 1028 231 c 0,3,4
 1151 231 1151 231 1221.5 313 c 128,-1,5
 1292 395 1292 395 1292 537 c 0,6,7
 1292 677 1292 677 1220 759.5 c 128,-1,8
 1148 842 1148 842 1026 842 c 0,9,10
 905 842 905 842 833.5 760 c 128,-1,11
 762 678 762 678 762 537 c 0,0,1
1307 238 m 1,12,13
 1247 161 1247 161 1169.5 124.5 c 128,-1,14
 1092 88 1092 88 989 88 c 0,15,16
 817 88 817 88 709.5 212.5 c 128,-1,17
 602 337 602 337 602 537 c 256,18,19
 602 737 602 737 710 862 c 128,-1,20
 818 987 818 987 989 987 c 0,21,22
 1092 987 1092 987 1170 949.5 c 128,-1,23
 1248 912 1248 912 1307 836 c 1,24,-1
 1307 967 l 1,25,-1
 1450 967 l 1,26,-1
 1450 231 l 1,27,28
 1596 253 1596 253 1678.5 364.5 c 128,-1,29
 1761 476 1761 476 1761 653 c 0,30,31
 1761 760 1761 760 1729.5 854 c 128,-1,32
 1698 948 1698 948 1634 1028 c 0,33,34
 1530 1159 1530 1159 1380.5 1228.5 c 128,-1,35
 1231 1298 1231 1298 1055 1298 c 0,36,37
 932 1298 932 1298 819 1265.5 c 128,-1,38
 706 1233 706 1233 610 1169 c 0,39,40
 453 1067 453 1067 364.5 901.5 c 128,-1,41
 276 736 276 736 276 543 c 0,42,43
 276 384 276 384 333.5 245 c 128,-1,44
 391 106 391 106 500 0 c 0,45,46
 605 -104 605 -104 743 -158.5 c 128,-1,47
 881 -213 881 -213 1038 -213 c 0,48,49
 1167 -213 1167 -213 1291.5 -169.5 c 128,-1,50
 1416 -126 1416 -126 1520 -45 c 1,51,-1
 1610 -156 l 1,52,53
 1485 -253 1485 -253 1337.5 -304.5 c 128,-1,54
 1190 -356 1190 -356 1038 -356 c 0,55,56
 853 -356 853 -356 689 -290.5 c 128,-1,57
 525 -225 525 -225 397 -100 c 256,58,59
 269 25 269 25 202 189.5 c 128,-1,60
 135 354 135 354 135 543 c 0,61,62
 135 725 135 725 203 890 c 128,-1,63
 271 1055 271 1055 397 1180 c 0,64,65
 526 1307 526 1307 695 1374.5 c 128,-1,66
 864 1442 864 1442 1053 1442 c 0,67,68
 1265 1442 1265 1442 1446.5 1355 c 128,-1,69
 1628 1268 1628 1268 1751 1108 c 0,70,71
 1826 1010 1826 1010 1865.5 895 c 128,-1,72
 1905 780 1905 780 1905 657 c 0,73,74
 1905 394 1905 394 1746 242 c 128,-1,75
 1587 90 1587 90 1307 84 c 1,76,-1
 1307 238 l 1,12,13
EndSplineSet
EndChar
StartChar: A
Encoding: 65 65 37
Width: 1401
Flags: W
Fore
700 1294 m 1,0,-1
 426 551 l 1,1,-1
 975 551 l 1,2,-1
 700 1294 l 1,0,-1
586 1493 m 1,3,-1
 815 1493 l 1,4,-1
 1384 0 l 1,5,-1
 1174 0 l 1,6,-1
 1038 383 l 1,7,-1
 365 383 l 1,8,-1
 229 0 l 1,9,-1
 16 0 l 1,10,-1
 586 1493 l 1,3,-1
EndSplineSet
EndChar
StartChar: B
Encoding: 66 66 38
Width: 1405
Flags: W
Fore
403 713 m 1,0,-1
 403 166 l 1,1,-1
 727 166 l 2,2,3
 890 166 890 166 968.5 233.5 c 128,-1,4
 1047 301 1047 301 1047 440 c 0,5,6
 1047 580 1047 580 968.5 646.5 c 128,-1,7
 890 713 890 713 727 713 c 2,8,-1
 403 713 l 1,0,-1
403 1327 m 1,9,-1
 403 877 l 1,10,-1
 702 877 l 2,11,12
 850 877 850 877 922.5 932.5 c 128,-1,13
 995 988 995 988 995 1102 c 0,14,15
 995 1215 995 1215 922.5 1271 c 128,-1,16
 850 1327 850 1327 702 1327 c 2,17,-1
 403 1327 l 1,9,-1
201 1493 m 1,18,-1
 717 1493 l 2,19,20
 948 1493 948 1493 1073 1397 c 128,-1,21
 1198 1301 1198 1301 1198 1124 c 0,22,23
 1198 987 1198 987 1134 906 c 128,-1,24
 1070 825 1070 825 946 805 c 1,25,26
 1095 773 1095 773 1177.5 671.5 c 128,-1,27
 1260 570 1260 570 1260 418 c 0,28,29
 1260 218 1260 218 1124 109 c 128,-1,30
 988 0 988 0 737 0 c 2,31,-1
 201 0 l 1,32,-1
 201 1493 l 1,18,-1
EndSplineSet
EndChar
StartChar: C
Encoding: 67 67 39
Width: 1430
Flags: W
Fore
1319 1378 m 1,0,-1
 1319 1165 l 1,1,2
 1217 1260 1217 1260 1101.5 1307 c 128,-1,3
 986 1354 986 1354 856 1354 c 0,4,5
 600 1354 600 1354 464 1197.5 c 128,-1,6
 328 1041 328 1041 328 745 c 0,7,8
 328 450 328 450 464 293.5 c 128,-1,9
 600 137 600 137 856 137 c 0,10,11
 986 137 986 137 1101.5 184 c 128,-1,12
 1217 231 1217 231 1319 326 c 1,13,-1
 1319 115 l 1,14,15
 1213 43 1213 43 1094.5 7 c 128,-1,16
 976 -29 976 -29 844 -29 c 0,17,18
 505 -29 505 -29 310 178.5 c 128,-1,19
 115 386 115 386 115 745 c 0,20,21
 115 1105 115 1105 310 1312.5 c 128,-1,22
 505 1520 505 1520 844 1520 c 0,23,24
 978 1520 978 1520 1096.5 1484.5 c 128,-1,25
 1215 1449 1215 1449 1319 1378 c 1,0,-1
EndSplineSet
EndChar
StartChar: D
Encoding: 68 68 40
Width: 1577
Flags: W
Fore
403 1327 m 1,0,-1
 403 166 l 1,1,-1
 647 166 l 2,2,3
 956 166 956 166 1099.5 306 c 128,-1,4
 1243 446 1243 446 1243 748 c 0,5,6
 1243 1048 1243 1048 1099.5 1187.5 c 128,-1,7
 956 1327 956 1327 647 1327 c 2,8,-1
 403 1327 l 1,0,-1
201 1493 m 1,9,-1
 616 1493 l 2,10,11
 1050 1493 1050 1493 1253 1312.5 c 128,-1,12
 1456 1132 1456 1132 1456 748 c 0,13,14
 1456 362 1456 362 1252 181 c 128,-1,15
 1048 0 1048 0 616 0 c 2,16,-1
 201 0 l 1,17,-1
 201 1493 l 1,9,-1
EndSplineSet
EndChar
StartChar: E
Encoding: 69 69 41
Width: 1294
Flags: W
Fore
201 1493 m 1,0,-1
 1145 1493 l 1,1,-1
 1145 1323 l 1,2,-1
 403 1323 l 1,3,-1
 403 881 l 1,4,-1
 1114 881 l 1,5,-1
 1114 711 l 1,6,-1
 403 711 l 1,7,-1
 403 170 l 1,8,-1
 1163 170 l 1,9,-1
 1163 0 l 1,10,-1
 201 0 l 1,11,-1
 201 1493 l 1,0,-1
EndSplineSet
EndChar
StartChar: F
Encoding: 70 70 42
Width: 1178
Flags: W
Fore
201 1493 m 1,0,-1
 1059 1493 l 1,1,-1
 1059 1323 l 1,2,-1
 403 1323 l 1,3,-1
 403 883 l 1,4,-1
 995 883 l 1,5,-1
 995 713 l 1,6,-1
 403 713 l 1,7,-1
 403 0 l 1,8,-1
 201 0 l 1,9,-1
 201 1493 l 1,0,-1
EndSplineSet
EndChar
StartChar: G
Encoding: 71 71 43
Width: 1587
Flags: W
Fore
1219 213 m 1,0,-1
 1219 614 l 1,1,-1
 889 614 l 1,2,-1
 889 780 l 1,3,-1
 1419 780 l 1,4,-1
 1419 139 l 1,5,6
 1302 56 1302 56 1161 13.5 c 128,-1,7
 1020 -29 1020 -29 860 -29 c 0,8,9
 510 -29 510 -29 312.5 175.5 c 128,-1,10
 115 380 115 380 115 745 c 0,11,12
 115 1111 115 1111 312.5 1315.5 c 128,-1,13
 510 1520 510 1520 860 1520 c 0,14,15
 1006 1520 1006 1520 1137.5 1484 c 128,-1,16
 1269 1448 1269 1448 1380 1378 c 1,17,-1
 1380 1163 l 1,18,19
 1268 1258 1268 1258 1142 1306 c 128,-1,20
 1016 1354 1016 1354 877 1354 c 0,21,22
 603 1354 603 1354 465.5 1201 c 128,-1,23
 328 1048 328 1048 328 745 c 0,24,25
 328 443 328 443 465.5 290 c 128,-1,26
 603 137 603 137 877 137 c 0,27,28
 984 137 984 137 1068 155.5 c 128,-1,29
 1152 174 1152 174 1219 213 c 1,0,-1
EndSplineSet
EndChar
StartChar: H
Encoding: 72 72 44
Width: 1540
Flags: W
Fore
201 1493 m 1,0,-1
 403 1493 l 1,1,-1
 403 881 l 1,2,-1
 1137 881 l 1,3,-1
 1137 1493 l 1,4,-1
 1339 1493 l 1,5,-1
 1339 0 l 1,6,-1
 1137 0 l 1,7,-1
 1137 711 l 1,8,-1
 403 711 l 1,9,-1
 403 0 l 1,10,-1
 201 0 l 1,11,-1
 201 1493 l 1,0,-1
EndSplineSet
EndChar
StartChar: I
Encoding: 73 73 45
Width: 604
Flags: W
Fore
201 1493 m 1,0,-1
 403 1493 l 1,1,-1
 403 0 l 1,2,-1
 201 0 l 1,3,-1
 201 1493 l 1,0,-1
EndSplineSet
EndChar
StartChar: J
Encoding: 74 74 46
Width: 604
Flags: W
Fore
201 1493 m 1,0,-1
 403 1493 l 1,1,-1
 403 104 l 2,2,3
 403 -166 403 -166 300.5 -288 c 128,-1,4
 198 -410 198 -410 -29 -410 c 2,5,-1
 -106 -410 l 1,6,-1
 -106 -240 l 1,7,-1
 -43 -240 l 2,8,9
 91 -240 91 -240 146 -165 c 128,-1,10
 201 -90 201 -90 201 104 c 2,11,-1
 201 1493 l 1,0,-1
EndSplineSet
EndChar
StartChar: K
Encoding: 75 75 47
Width: 1343
Flags: W
Fore
201 1493 m 1,0,-1
 403 1493 l 1,1,-1
 403 862 l 1,2,-1
 1073 1493 l 1,3,-1
 1333 1493 l 1,4,-1
 592 797 l 1,5,-1
 1386 0 l 1,6,-1
 1120 0 l 1,7,-1
 403 719 l 1,8,-1
 403 0 l 1,9,-1
 201 0 l 1,10,-1
 201 1493 l 1,0,-1
EndSplineSet
EndChar
StartChar: L
Encoding: 76 76 48
Width: 1141
Flags: W
Fore
201 1493 m 1,0,-1
 403 1493 l 1,1,-1
 403 170 l 1,2,-1
 1130 170 l 1,3,-1
 1130 0 l 1,4,-1
 201 0 l 1,5,-1
 201 1493 l 1,0,-1
EndSplineSet
EndChar
StartChar: M
Encoding: 77 77 49
Width: 1767
Flags: W
Fore
201 1493 m 1,0,-1
 502 1493 l 1,1,-1
 883 477 l 1,2,-1
 1266 1493 l 1,3,-1
 1567 1493 l 1,4,-1
 1567 0 l 1,5,-1
 1370 0 l 1,6,-1
 1370 1311 l 1,7,-1
 985 287 l 1,8,-1
 782 287 l 1,9,-1
 397 1311 l 1,10,-1
 397 0 l 1,11,-1
 201 0 l 1,12,-1
 201 1493 l 1,0,-1
EndSplineSet
EndChar
StartChar: N
Encoding: 78 78 50
Width: 1532
Flags: W
Fore
201 1493 m 1,0,-1
 473 1493 l 1,1,-1
 1135 244 l 1,2,-1
 1135 1493 l 1,3,-1
 1331 1493 l 1,4,-1
 1331 0 l 1,5,-1
 1059 0 l 1,6,-1
 397 1249 l 1,7,-1
 397 0 l 1,8,-1
 201 0 l 1,9,-1
 201 1493 l 1,0,-1
EndSplineSet
EndChar
StartChar: O
Encoding: 79 79 51
Width: 1612
Flags: W
Fore
807 1356 m 256,0,1
 587 1356 587 1356 457.5 1192 c 128,-1,2
 328 1028 328 1028 328 745 c 0,3,4
 328 463 328 463 457.5 299 c 128,-1,5
 587 135 587 135 807 135 c 256,6,7
 1027 135 1027 135 1155.5 299 c 128,-1,8
 1284 463 1284 463 1284 745 c 0,9,10
 1284 1028 1284 1028 1155.5 1192 c 128,-1,11
 1027 1356 1027 1356 807 1356 c 256,0,1
807 1520 m 0,12,13
 1121 1520 1121 1520 1309 1309.5 c 128,-1,14
 1497 1099 1497 1099 1497 745 c 0,15,16
 1497 392 1497 392 1309 181.5 c 128,-1,17
 1121 -29 1121 -29 807 -29 c 0,18,19
 492 -29 492 -29 303.5 181 c 128,-1,20
 115 391 115 391 115 745 c 256,21,22
 115 1099 115 1099 303.5 1309.5 c 128,-1,23
 492 1520 492 1520 807 1520 c 0,12,13
EndSplineSet
EndChar
StartChar: P
Encoding: 80 80 52
Width: 1235
Flags: W
Fore
403 1327 m 1,0,-1
 403 766 l 1,1,-1
 657 766 l 2,2,3
 798 766 798 766 875 839 c 128,-1,4
 952 912 952 912 952 1047 c 0,5,6
 952 1181 952 1181 875 1254 c 128,-1,7
 798 1327 798 1327 657 1327 c 2,8,-1
 403 1327 l 1,0,-1
201 1493 m 1,9,-1
 657 1493 l 2,10,11
 908 1493 908 1493 1036.5 1379.5 c 128,-1,12
 1165 1266 1165 1266 1165 1047 c 0,13,14
 1165 826 1165 826 1036.5 713 c 128,-1,15
 908 600 908 600 657 600 c 2,16,-1
 403 600 l 1,17,-1
 403 0 l 1,18,-1
 201 0 l 1,19,-1
 201 1493 l 1,9,-1
EndSplineSet
EndChar
StartChar: Q
Encoding: 81 81 53
Width: 1612
Flags: W
Fore
807 1356 m 256,0,1
 587 1356 587 1356 457.5 1192 c 128,-1,2
 328 1028 328 1028 328 745 c 0,3,4
 328 463 328 463 457.5 299 c 128,-1,5
 587 135 587 135 807 135 c 256,6,7
 1027 135 1027 135 1155.5 299 c 128,-1,8
 1284 463 1284 463 1284 745 c 0,9,10
 1284 1028 1284 1028 1155.5 1192 c 128,-1,11
 1027 1356 1027 1356 807 1356 c 256,0,1
1090 27 m 1,12,-1
 1356 -264 l 1,13,-1
 1112 -264 l 1,14,-1
 891 -25 l 1,15,16
 858 -27 858 -27 840.5 -28 c 128,-1,17
 823 -29 823 -29 807 -29 c 0,18,19
 492 -29 492 -29 303.5 181.5 c 128,-1,20
 115 392 115 392 115 745 c 0,21,22
 115 1099 115 1099 303.5 1309.5 c 128,-1,23
 492 1520 492 1520 807 1520 c 0,24,25
 1121 1520 1121 1520 1309 1309.5 c 128,-1,26
 1497 1099 1497 1099 1497 745 c 0,27,28
 1497 485 1497 485 1392.5 300 c 128,-1,29
 1288 115 1288 115 1090 27 c 1,12,-1
EndSplineSet
EndChar
StartChar: R
Encoding: 82 82 54
Width: 1423
Flags: W
Fore
909 700 m 1,0,1
 974 678 974 678 1035.5 606 c 128,-1,2
 1097 534 1097 534 1159 408 c 2,3,-1
 1364 0 l 1,4,-1
 1147 0 l 1,5,-1
 956 383 l 2,6,7
 882 533 882 533 812.5 582 c 128,-1,8
 743 631 743 631 623 631 c 2,9,-1
 403 631 l 1,10,-1
 403 0 l 1,11,-1
 201 0 l 1,12,-1
 201 1493 l 1,13,-1
 657 1493 l 2,14,15
 913 1493 913 1493 1039 1386 c 128,-1,16
 1165 1279 1165 1279 1165 1063 c 0,17,18
 1165 922 1165 922 1099.5 829 c 128,-1,19
 1034 736 1034 736 909 700 c 1,0,1
403 1327 m 1,20,-1
 403 797 l 1,21,-1
 657 797 l 2,22,23
 803 797 803 797 877.5 864.5 c 128,-1,24
 952 932 952 932 952 1063 c 256,25,26
 952 1194 952 1194 877.5 1260.5 c 128,-1,27
 803 1327 803 1327 657 1327 c 2,28,-1
 403 1327 l 1,20,-1
EndSplineSet
EndChar
StartChar: S
Encoding: 83 83 55
Width: 1300
Flags: W
Fore
1096 1444 m 1,0,-1
 1096 1247 l 1,1,2
 981 1302 981 1302 879 1329 c 128,-1,3
 777 1356 777 1356 682 1356 c 0,4,5
 517 1356 517 1356 427.5 1292 c 128,-1,6
 338 1228 338 1228 338 1110 c 0,7,8
 338 1011 338 1011 397.5 960.5 c 128,-1,9
 457 910 457 910 623 879 c 2,10,-1
 745 854 l 2,11,12
 971 811 971 811 1078.5 702.5 c 128,-1,13
 1186 594 1186 594 1186 412 c 0,14,15
 1186 195 1186 195 1040.5 83 c 128,-1,16
 895 -29 895 -29 614 -29 c 0,17,18
 508 -29 508 -29 388.5 -5 c 128,-1,19
 269 19 269 19 141 66 c 1,20,-1
 141 274 l 1,21,22
 264 205 264 205 382 170 c 128,-1,23
 500 135 500 135 614 135 c 0,24,25
 787 135 787 135 881 203 c 128,-1,26
 975 271 975 271 975 397 c 0,27,28
 975 507 975 507 907.5 569 c 128,-1,29
 840 631 840 631 686 662 c 2,30,-1
 563 686 l 2,31,32
 337 731 337 731 236 827 c 128,-1,33
 135 923 135 923 135 1094 c 0,34,35
 135 1292 135 1292 274.5 1406 c 128,-1,36
 414 1520 414 1520 659 1520 c 0,37,38
 764 1520 764 1520 873 1501 c 128,-1,39
 982 1482 982 1482 1096 1444 c 1,0,-1
EndSplineSet
EndChar
StartChar: T
Encoding: 84 84 56
Width: 1251
Flags: W
Fore
-6 1493 m 1,0,-1
 1257 1493 l 1,1,-1
 1257 1323 l 1,2,-1
 727 1323 l 1,3,-1
 727 0 l 1,4,-1
 524 0 l 1,5,-1
 524 1323 l 1,6,-1
 -6 1323 l 1,7,-1
 -6 1493 l 1,0,-1
EndSplineSet
EndChar
StartChar: U
Encoding: 85 85 57
Width: 1499
Flags: W
Fore
178 1493 m 1,0,-1
 381 1493 l 1,1,-1
 381 586 l 2,2,3
 381 346 381 346 468 240.5 c 128,-1,4
 555 135 555 135 750 135 c 0,5,6
 944 135 944 135 1031 240.5 c 128,-1,7
 1118 346 1118 346 1118 586 c 2,8,-1
 1118 1493 l 1,9,-1
 1321 1493 l 1,10,-1
 1321 561 l 2,11,12
 1321 269 1321 269 1176.5 120 c 128,-1,13
 1032 -29 1032 -29 750 -29 c 0,14,15
 467 -29 467 -29 322.5 120 c 128,-1,16
 178 269 178 269 178 561 c 2,17,-1
 178 1493 l 1,0,-1
EndSplineSet
EndChar
StartChar: V
Encoding: 86 86 58
Width: 1401
Flags: W
Fore
586 0 m 1,0,-1
 16 1493 l 1,1,-1
 227 1493 l 1,2,-1
 700 236 l 1,3,-1
 1174 1493 l 1,4,-1
 1384 1493 l 1,5,-1
 815 0 l 1,6,-1
 586 0 l 1,0,-1
EndSplineSet
EndChar
StartChar: W
Encoding: 87 87 59
Width: 2025
Flags: W
Fore
68 1493 m 1,0,-1
 272 1493 l 1,1,-1
 586 231 l 1,2,-1
 899 1493 l 1,3,-1
 1126 1493 l 1,4,-1
 1440 231 l 1,5,-1
 1753 1493 l 1,6,-1
 1958 1493 l 1,7,-1
 1583 0 l 1,8,-1
 1329 0 l 1,9,-1
 1014 1296 l 1,10,-1
 696 0 l 1,11,-1
 442 0 l 1,12,-1
 68 1493 l 1,0,-1
EndSplineSet
EndChar
StartChar: X
Encoding: 88 88 60
Width: 1403
Flags: W
Fore
129 1493 m 1,0,-1
 346 1493 l 1,1,-1
 717 938 l 1,2,-1
 1090 1493 l 1,3,-1
 1307 1493 l 1,4,-1
 827 776 l 1,5,-1
 1339 0 l 1,6,-1
 1122 0 l 1,7,-1
 702 635 l 1,8,-1
 279 0 l 1,9,-1
 61 0 l 1,10,-1
 594 797 l 1,11,-1
 129 1493 l 1,0,-1
EndSplineSet
EndChar
StartChar: Y
Encoding: 89 89 61
Width: 1251
Flags: W
Fore
-4 1493 m 1,0,-1
 213 1493 l 1,1,-1
 627 879 l 1,2,-1
 1038 1493 l 1,3,-1
 1255 1493 l 1,4,-1
 727 711 l 1,5,-1
 727 0 l 1,6,-1
 524 0 l 1,7,-1
 524 711 l 1,8,-1
 -4 1493 l 1,0,-1
EndSplineSet
EndChar
StartChar: Z
Encoding: 90 90 62
Width: 1403
Flags: W
Fore
115 1493 m 1,0,-1
 1288 1493 l 1,1,-1
 1288 1339 l 1,2,-1
 344 170 l 1,3,-1
 1311 170 l 1,4,-1
 1311 0 l 1,5,-1
 92 0 l 1,6,-1
 92 154 l 1,7,-1
 1036 1323 l 1,8,-1
 115 1323 l 1,9,-1
 115 1493 l 1,0,-1
EndSplineSet
EndChar
StartChar: bracketleft
Encoding: 91 91 63
Width: 799
Flags: W
Fore
176 1556 m 1,0,-1
 600 1556 l 1,1,-1
 600 1413 l 1,2,-1
 360 1413 l 1,3,-1
 360 -127 l 1,4,-1
 600 -127 l 1,5,-1
 600 -270 l 1,6,-1
 176 -270 l 1,7,-1
 176 1556 l 1,0,-1
EndSplineSet
EndChar
StartChar: backslash
Encoding: 92 92 64
Width: 690
Flags: W
Fore
170 1493 m 1,0,-1
 690 -190 l 1,1,-1
 520 -190 l 1,2,-1
 0 1493 l 1,3,-1
 170 1493 l 1,0,-1
EndSplineSet
EndChar
StartChar: bracketright
Encoding: 93 93 65
Width: 799
Flags: W
Fore
623 1556 m 1,0,-1
 623 -270 l 1,1,-1
 199 -270 l 1,2,-1
 199 -127 l 1,3,-1
 438 -127 l 1,4,-1
 438 1413 l 1,5,-1
 199 1413 l 1,6,-1
 199 1556 l 1,7,-1
 623 1556 l 1,0,-1
EndSplineSet
EndChar
StartChar: asciicircum
Encoding: 94 94 66
Width: 1716
Flags: W
Fore
956 1493 m 1,0,-1
 1499 936 l 1,1,-1
 1298 936 l 1,2,-1
 858 1331 l 1,3,-1
 418 936 l 1,4,-1
 217 936 l 1,5,-1
 760 1493 l 1,6,-1
 956 1493 l 1,0,-1
EndSplineSet
EndChar
StartChar: underscore
Encoding: 95 95 67
Width: 1024
Flags: W
Fore
1044 -340 m 1,0,-1
 1044 -483 l 1,1,-1
 -20 -483 l 1,2,-1
 -20 -340 l 1,3,-1
 1044 -340 l 1,0,-1
EndSplineSet
EndChar
StartChar: grave
Encoding: 96 96 68
Width: 1024
Flags: W
Fore
367 1638 m 1,0,-1
 649 1264 l 1,1,-1
 496 1264 l 1,2,-1
 170 1638 l 1,3,-1
 367 1638 l 1,0,-1
EndSplineSet
EndChar
StartChar: a
Encoding: 97 97 69
Width: 1255
Flags: W
Back
205 899 m 9,0,0
 205 1069 l 17,0,0
 360 1146 360 1146 586 1147 c 0,0,0
 827.031 1149.12 827.031 1149.12 949.5 1020.5 c 128,-1,37
 1069 895 1069 895 1069 639 c 2,11,-1
 1069 0 l 1,12,-1
 885 0 l 1,13,-1
 885 170 l 1,14,15
 822 68 822 68 728 19.5 c 128,-1,16
 634 -29 634 -29 498 -29 c 0,17,18
 326 -29 326 -29 224.5 67.5 c 128,-1,19
 123 164 123 164 123 326 c 0,20,21
 123 515 123 515 249.5 611 c 128,-1,22
 376 707 376 707 627 707 c 2,23,-1
 885 707 l 1,24,-1
 885 725 l 2,25,26
 885 852 885 852 801.5 921.5 c 128,-1,27
 718.987 990.178 718.987 990.178 567 991 c 8,0,0
 392 992 392 992 205 899 c 9,0,0
702 563 m 2,0,1
 479 563 479 563 393 512 c 128,-1,2
 307 461 307 461 307 338 c 0,3,4
 307 240 307 240 371.5 182.5 c 128,-1,5
 436 125 436 125 547 125 c 0,6,7
 700 125 700 125 792.5 233.5 c 128,-1,8
 885 342 885 342 885 522 c 2,9,-1
 885 563 l 1,10,-1
 702 563 l 2,0,1
EndSplineSet
Fore
702 563 m 2,0,1
 479 563 479 563 393 512 c 128,-1,2
 307 461 307 461 307 338 c 0,3,4
 307 240 307 240 371.5 182.5 c 128,-1,5
 436 125 436 125 547 125 c 0,6,7
 700 125 700 125 792.5 233.5 c 128,-1,8
 885 342 885 342 885 522 c 2,9,-1
 885 563 l 1,10,-1
 702 563 l 2,0,1
1069 639 m 6,11,-1
 1069 0 l 1,12,-1
 885 0 l 1,13,-1
 885 170 l 1,14,15
 822 68 822 68 728 19.5 c 128,-1,16
 634 -29 634 -29 498 -29 c 0,17,18
 326 -29 326 -29 224.5 67.5 c 128,-1,19
 123 164 123 164 123 326 c 0,20,21
 123 515 123 515 249.5 611 c 128,-1,22
 376 707 376 707 627 707 c 2,23,-1
 885 707 l 1,24,-1
 885 725 l 6,25,26
 885 852 885 852 801.5 921.5 c 132,-1,27
 718 991 718 991 567 991 c 4,28,29
 471 991 471 991 380 968 c 132,-1,30
 289 945 289 945 205 899 c 5,31,-1
 205 1069 l 5,32,33
 306 1108 306 1108 401 1127.5 c 132,-1,34
 496 1147 496 1147 586 1147 c 4,35,36
 829 1147 829 1147 949 1021 c 132,-1,37
 1069 895 1069 895 1069 639 c 6,11,-1
EndSplineSet
EndChar
StartChar: b
Encoding: 98 98 70
Width: 1300
Flags: W
Fore
997 559 m 256,0,1
 997 762 997 762 913.5 877.5 c 128,-1,2
 830 993 830 993 684 993 c 256,3,4
 538 993 538 993 454.5 877.5 c 128,-1,5
 371 762 371 762 371 559 c 256,6,7
 371 356 371 356 454.5 240.5 c 128,-1,8
 538 125 538 125 684 125 c 256,9,10
 830 125 830 125 913.5 240.5 c 128,-1,11
 997 356 997 356 997 559 c 256,0,1
371 950 m 1,12,13
 429 1050 429 1050 517.5 1098.5 c 128,-1,14
 606 1147 606 1147 729 1147 c 0,15,16
 933 1147 933 1147 1060.5 985 c 128,-1,17
 1188 823 1188 823 1188 559 c 256,18,19
 1188 295 1188 295 1060.5 133 c 128,-1,20
 933 -29 933 -29 729 -29 c 0,21,22
 606 -29 606 -29 517.5 19.5 c 128,-1,23
 429 68 429 68 371 168 c 1,24,-1
 371 0 l 1,25,-1
 186 0 l 1,26,-1
 186 1556 l 1,27,-1
 371 1556 l 1,28,-1
 371 950 l 1,12,13
EndSplineSet
EndChar
StartChar: c
Encoding: 99 99 71
Width: 1126
Flags: W
Fore
999 1077 m 1,0,-1
 999 905 l 1,1,2
 921 948 921 948 842.5 969.5 c 128,-1,3
 764 991 764 991 684 991 c 0,4,5
 505 991 505 991 406 877.5 c 128,-1,6
 307 764 307 764 307 559 c 256,7,8
 307 354 307 354 406 240.5 c 128,-1,9
 505 127 505 127 684 127 c 0,10,11
 764 127 764 127 842.5 148.5 c 128,-1,12
 921 170 921 170 999 213 c 1,13,-1
 999 43 l 1,14,15
 922 7 922 7 839.5 -11 c 128,-1,16
 757 -29 757 -29 664 -29 c 0,17,18
 411 -29 411 -29 262 130 c 128,-1,19
 113 289 113 289 113 559 c 0,20,21
 113 833 113 833 263.5 990 c 128,-1,22
 414 1147 414 1147 676 1147 c 0,23,24
 761 1147 761 1147 842 1129.5 c 128,-1,25
 923 1112 923 1112 999 1077 c 1,0,-1
EndSplineSet
EndChar
StartChar: d
Encoding: 100 100 72
Width: 1300
Flags: W
Fore
930 950 m 1,0,-1
 930 1556 l 1,1,-1
 1114 1556 l 1,2,-1
 1114 0 l 1,3,-1
 930 0 l 1,4,-1
 930 168 l 1,5,6
 872 68 872 68 783.5 19.5 c 128,-1,7
 695 -29 695 -29 571 -29 c 0,8,9
 368 -29 368 -29 240.5 133 c 128,-1,10
 113 295 113 295 113 559 c 256,11,12
 113 823 113 823 240.5 985 c 128,-1,13
 368 1147 368 1147 571 1147 c 0,14,15
 695 1147 695 1147 783.5 1098.5 c 128,-1,16
 872 1050 872 1050 930 950 c 1,0,-1
303 559 m 256,17,18
 303 356 303 356 386.5 240.5 c 128,-1,19
 470 125 470 125 616 125 c 256,20,21
 762 125 762 125 846 240.5 c 128,-1,22
 930 356 930 356 930 559 c 256,23,24
 930 762 930 762 846 877.5 c 128,-1,25
 762 993 762 993 616 993 c 256,26,27
 470 993 470 993 386.5 877.5 c 128,-1,28
 303 762 303 762 303 559 c 256,17,18
EndSplineSet
EndChar
StartChar: e
Encoding: 101 101 73
Width: 1260
Flags: W
Fore
1151 606 m 2,0,-1
 1151 516 l 1,1,-1
 305 516 l 1,2,3
 317 326 317 326 419.5 226.5 c 128,-1,4
 522 127 522 127 705 127 c 0,5,6
 811 127 811 127 910.5 153 c 128,-1,7
 1010 179 1010 179 1108 231 c 1,8,-1
 1108 57 l 1,9,10
 1009 15 1009 15 905 -7 c 128,-1,11
 801 -29 801 -29 694 -29 c 0,12,13
 426 -29 426 -29 269.5 127 c 128,-1,14
 113 283 113 283 113 549 c 0,15,16
 113 824 113 824 261.5 985.5 c 128,-1,17
 410 1147 410 1147 662 1147 c 0,18,19
 888 1147 888 1147 1019.5 1001.5 c 128,-1,20
 1151 856 1151 856 1151 606 c 2,0,-1
967 660 m 1,21,22
 965 811 965 811 882.5 901 c 128,-1,23
 800 991 800 991 664 991 c 0,24,25
 510 991 510 991 417.5 904 c 128,-1,26
 325 817 325 817 311 659 c 1,27,-1
 967 660 l 1,21,22
EndSplineSet
EndChar
StartChar: f
Encoding: 102 102 74
Width: 721
Flags: W
Fore
760 1556 m 1,0,-1
 760 1403 l 1,1,-1
 584 1403 l 2,2,3
 485 1403 485 1403 446.5 1363 c 128,-1,4
 408 1323 408 1323 408 1219 c 2,5,-1
 408 1120 l 1,6,-1
 711 1120 l 1,7,-1
 711 977 l 1,8,-1
 408 977 l 1,9,-1
 408 0 l 1,10,-1
 223 0 l 1,11,-1
 223 977 l 1,12,-1
 47 977 l 1,13,-1
 47 1120 l 1,14,-1
 223 1120 l 1,15,-1
 223 1198 l 2,16,17
 223 1385 223 1385 310 1470.5 c 128,-1,18
 397 1556 397 1556 586 1556 c 2,19,-1
 760 1556 l 1,0,-1
EndSplineSet
EndChar
StartChar: g
Encoding: 103 103 75
Width: 1300
Flags: W
Fore
930 573 m 0,0,1
 930 773 930 773 847.5 883 c 128,-1,2
 765 993 765 993 616 993 c 0,3,4
 468 993 468 993 385.5 883 c 128,-1,5
 303 773 303 773 303 573 c 0,6,7
 303 374 303 374 385.5 264 c 128,-1,8
 468 154 468 154 616 154 c 0,9,10
 765 154 765 154 847.5 264 c 128,-1,11
 930 374 930 374 930 573 c 0,0,1
1114 139 m 2,12,13
 1114 -147 1114 -147 987 -286.5 c 128,-1,14
 860 -426 860 -426 598 -426 c 0,15,16
 501 -426 501 -426 415 -411.5 c 128,-1,17
 329 -397 329 -397 248 -367 c 1,18,-1
 248 -188 l 1,19,20
 329 -232 329 -232 408 -253 c 128,-1,21
 487 -274 487 -274 569 -274 c 0,22,23
 750 -274 750 -274 840 -179.5 c 128,-1,24
 930 -85 930 -85 930 106 c 2,25,-1
 930 197 l 1,26,27
 873 98 873 98 784 49 c 128,-1,28
 695 0 695 0 571 0 c 0,29,30
 365 0 365 0 239 157 c 128,-1,31
 113 314 113 314 113 573 c 0,32,33
 113 833 113 833 239 990 c 128,-1,34
 365 1147 365 1147 571 1147 c 0,35,36
 695 1147 695 1147 784 1098 c 128,-1,37
 873 1049 873 1049 930 950 c 1,38,-1
 930 1120 l 1,39,-1
 1114 1120 l 1,40,-1
 1114 139 l 2,12,13
EndSplineSet
EndChar
StartChar: h
Encoding: 104 104 76
Width: 1298
Flags: W
Fore
1124 676 m 2,0,-1
 1124 0 l 1,1,-1
 940 0 l 1,2,-1
 940 670 l 2,3,4
 940 829 940 829 878 908 c 128,-1,5
 816 987 816 987 692 987 c 0,6,7
 543 987 543 987 457 892 c 128,-1,8
 371 797 371 797 371 633 c 2,9,-1
 371 0 l 1,10,-1
 186 0 l 1,11,-1
 186 1556 l 1,12,-1
 371 1556 l 1,13,-1
 371 946 l 1,14,15
 437 1047 437 1047 526.5 1097 c 128,-1,16
 616 1147 616 1147 733 1147 c 0,17,18
 926 1147 926 1147 1025 1027.5 c 128,-1,19
 1124 908 1124 908 1124 676 c 2,0,-1
EndSplineSet
EndChar
StartChar: i
Encoding: 105 105 77
Width: 569
Flags: W
Fore
193 1120 m 1,0,-1
 377 1120 l 1,1,-1
 377 0 l 1,2,-1
 193 0 l 1,3,-1
 193 1120 l 1,0,-1
193 1556 m 1,4,-1
 377 1556 l 1,5,-1
 377 1323 l 1,6,-1
 193 1323 l 1,7,-1
 193 1556 l 1,4,-1
EndSplineSet
EndChar
StartChar: j
Encoding: 106 106 78
Width: 569
Flags: W
Fore
193 1120 m 1,0,-1
 377 1120 l 1,1,-1
 377 -20 l 2,2,3
 377 -234 377 -234 295.5 -330 c 128,-1,4
 214 -426 214 -426 33 -426 c 2,5,-1
 -37 -426 l 1,6,-1
 -37 -270 l 1,7,-1
 12 -270 l 2,8,9
 117 -270 117 -270 155 -221.5 c 128,-1,10
 193 -173 193 -173 193 -20 c 2,11,-1
 193 1120 l 1,0,-1
193 1556 m 1,12,-1
 377 1556 l 1,13,-1
 377 1323 l 1,14,-1
 193 1323 l 1,15,-1
 193 1556 l 1,12,-1
EndSplineSet
EndChar
StartChar: k
Encoding: 107 107 79
Width: 1186
Flags: W
Fore
186 1556 m 1,0,-1
 371 1556 l 1,1,-1
 371 637 l 1,2,-1
 920 1120 l 1,3,-1
 1155 1120 l 1,4,-1
 561 596 l 1,5,-1
 1180 0 l 1,6,-1
 940 0 l 1,7,-1
 371 547 l 1,8,-1
 371 0 l 1,9,-1
 186 0 l 1,10,-1
 186 1556 l 1,0,-1
EndSplineSet
EndChar
StartChar: l
Encoding: 108 108 80
Width: 569
Flags: W
Fore
193 1556 m 1,0,-1
 377 1556 l 1,1,-1
 377 0 l 1,2,-1
 193 0 l 1,3,-1
 193 1556 l 1,0,-1
EndSplineSet
EndChar
StartChar: m
Encoding: 109 109 81
Width: 1995
Flags: W
Fore
1065 905 m 1,0,1
 1134 1029 1134 1029 1230 1088 c 128,-1,2
 1326 1147 1326 1147 1456 1147 c 0,3,4
 1631 1147 1631 1147 1726 1024.5 c 128,-1,5
 1821 902 1821 902 1821 676 c 2,6,-1
 1821 0 l 1,7,-1
 1636 0 l 1,8,-1
 1636 670 l 2,9,10
 1636 831 1636 831 1579 909 c 128,-1,11
 1522 987 1522 987 1405 987 c 0,12,13
 1262 987 1262 987 1179 892 c 128,-1,14
 1096 797 1096 797 1096 633 c 2,15,-1
 1096 0 l 1,16,-1
 911 0 l 1,17,-1
 911 670 l 2,18,19
 911 832 911 832 854 909.5 c 128,-1,20
 797 987 797 987 678 987 c 0,21,22
 537 987 537 987 454 891.5 c 128,-1,23
 371 796 371 796 371 633 c 2,24,-1
 371 0 l 1,25,-1
 186 0 l 1,26,-1
 186 1120 l 1,27,-1
 371 1120 l 1,28,-1
 371 946 l 1,29,30
 434 1049 434 1049 522 1098 c 128,-1,31
 610 1147 610 1147 731 1147 c 0,32,33
 853 1147 853 1147 938.5 1085 c 128,-1,34
 1024 1023 1024 1023 1065 905 c 1,0,1
EndSplineSet
EndChar
StartChar: n
Encoding: 110 110 82
Width: 1298
Flags: W
Fore
1124 676 m 2,0,-1
 1124 0 l 1,1,-1
 940 0 l 1,2,-1
 940 670 l 2,3,4
 940 829 940 829 878 908 c 128,-1,5
 816 987 816 987 692 987 c 0,6,7
 543 987 543 987 457 892 c 128,-1,8
 371 797 371 797 371 633 c 2,9,-1
 371 0 l 1,10,-1
 186 0 l 1,11,-1
 186 1120 l 1,12,-1
 371 1120 l 1,13,-1
 371 946 l 1,14,15
 437 1047 437 1047 526.5 1097 c 128,-1,16
 616 1147 616 1147 733 1147 c 0,17,18
 926 1147 926 1147 1025 1027.5 c 128,-1,19
 1124 908 1124 908 1124 676 c 2,0,-1
EndSplineSet
EndChar
StartChar: o
Encoding: 111 111 83
Width: 1253
Flags: W
Fore
627 991 m 0,0,1
 479 991 479 991 393 875.5 c 128,-1,2
 307 760 307 760 307 559 c 256,3,4
 307 358 307 358 392.5 242.5 c 128,-1,5
 478 127 478 127 627 127 c 0,6,7
 774 127 774 127 860 243 c 128,-1,8
 946 359 946 359 946 559 c 0,9,10
 946 758 946 758 860 874.5 c 128,-1,11
 774 991 774 991 627 991 c 0,0,1
627 1147 m 0,12,13
 867 1147 867 1147 1004 991 c 128,-1,14
 1141 835 1141 835 1141 559 c 0,15,16
 1141 284 1141 284 1004 127.5 c 128,-1,17
 867 -29 867 -29 627 -29 c 0,18,19
 386 -29 386 -29 249.5 127.5 c 128,-1,20
 113 284 113 284 113 559 c 0,21,22
 113 835 113 835 249.5 991 c 128,-1,23
 386 1147 386 1147 627 1147 c 0,12,13
EndSplineSet
EndChar
StartChar: p
Encoding: 112 112 84
Width: 1300
Flags: W
Fore
371 168 m 1,0,-1
 371 -426 l 1,1,-1
 186 -426 l 1,2,-1
 186 1120 l 1,3,-1
 371 1120 l 1,4,-1
 371 950 l 1,5,6
 429 1050 429 1050 517.5 1098.5 c 128,-1,7
 606 1147 606 1147 729 1147 c 0,8,9
 933 1147 933 1147 1060.5 985 c 128,-1,10
 1188 823 1188 823 1188 559 c 256,11,12
 1188 295 1188 295 1060.5 133 c 128,-1,13
 933 -29 933 -29 729 -29 c 0,14,15
 606 -29 606 -29 517.5 19.5 c 128,-1,16
 429 68 429 68 371 168 c 1,0,-1
997 559 m 256,17,18
 997 762 997 762 913.5 877.5 c 128,-1,19
 830 993 830 993 684 993 c 256,20,21
 538 993 538 993 454.5 877.5 c 128,-1,22
 371 762 371 762 371 559 c 256,23,24
 371 356 371 356 454.5 240.5 c 128,-1,25
 538 125 538 125 684 125 c 256,26,27
 830 125 830 125 913.5 240.5 c 128,-1,28
 997 356 997 356 997 559 c 256,17,18
EndSplineSet
EndChar
StartChar: q
Encoding: 113 113 85
Width: 1300
Flags: W
Fore
303 559 m 256,0,1
 303 356 303 356 386.5 240.5 c 128,-1,2
 470 125 470 125 616 125 c 256,3,4
 762 125 762 125 846 240.5 c 128,-1,5
 930 356 930 356 930 559 c 256,6,7
 930 762 930 762 846 877.5 c 128,-1,8
 762 993 762 993 616 993 c 256,9,10
 470 993 470 993 386.5 877.5 c 128,-1,11
 303 762 303 762 303 559 c 256,0,1
930 168 m 1,12,13
 872 68 872 68 783.5 19.5 c 128,-1,14
 695 -29 695 -29 571 -29 c 0,15,16
 368 -29 368 -29 240.5 133 c 128,-1,17
 113 295 113 295 113 559 c 256,18,19
 113 823 113 823 240.5 985 c 128,-1,20
 368 1147 368 1147 571 1147 c 0,21,22
 695 1147 695 1147 783.5 1098.5 c 128,-1,23
 872 1050 872 1050 930 950 c 1,24,-1
 930 1120 l 1,25,-1
 1114 1120 l 1,26,-1
 1114 -426 l 1,27,-1
 930 -426 l 1,28,-1
 930 168 l 1,12,13
EndSplineSet
EndChar
StartChar: r
Encoding: 114 114 86
Width: 842
Flags: W
Fore
842 948 m 1,0,1
 811 966 811 966 774.5 974.5 c 128,-1,2
 738 983 738 983 694 983 c 0,3,4
 538 983 538 983 454.5 881.5 c 128,-1,5
 371 780 371 780 371 590 c 2,6,-1
 371 0 l 1,7,-1
 186 0 l 1,8,-1
 186 1120 l 1,9,-1
 371 1120 l 1,10,-1
 371 946 l 1,11,12
 429 1048 429 1048 522 1097.5 c 128,-1,13
 615 1147 615 1147 748 1147 c 0,14,15
 767 1147 767 1147 790 1144.5 c 128,-1,16
 813 1142 813 1142 841 1137 c 1,17,-1
 842 948 l 1,0,1
EndSplineSet
EndChar
StartChar: s
Encoding: 115 115 87
Width: 1067
Flags: W
Fore
907 1087 m 1,0,-1
 907 913 l 1,1,2
 829 953 829 953 745 973 c 128,-1,3
 661 993 661 993 571 993 c 0,4,5
 434 993 434 993 365.5 951 c 128,-1,6
 297 909 297 909 297 825 c 0,7,8
 297 761 297 761 346 724.5 c 128,-1,9
 395 688 395 688 543 655 c 2,10,-1
 606 641 l 2,11,12
 802 599 802 599 884.5 522.5 c 128,-1,13
 967 446 967 446 967 309 c 0,14,15
 967 153 967 153 843.5 62 c 128,-1,16
 720 -29 720 -29 504 -29 c 0,17,18
 414 -29 414 -29 316.5 -11.5 c 128,-1,19
 219 6 219 6 111 41 c 1,20,-1
 111 231 l 1,21,22
 213 178 213 178 312 151.5 c 128,-1,23
 411 125 411 125 508 125 c 0,24,25
 638 125 638 125 708 169.5 c 128,-1,26
 778 214 778 214 778 295 c 0,27,28
 778 370 778 370 727.5 410 c 128,-1,29
 677 450 677 450 506 487 c 2,30,-1
 442 502 l 2,31,32
 271 538 271 538 195 612.5 c 128,-1,33
 119 687 119 687 119 817 c 0,34,35
 119 975 119 975 231 1061 c 128,-1,36
 343 1147 343 1147 549 1147 c 0,37,38
 651 1147 651 1147 741 1132 c 128,-1,39
 831 1117 831 1117 907 1087 c 1,0,-1
EndSplineSet
EndChar
StartChar: t
Encoding: 116 116 88
Width: 803
Flags: W
Fore
375 1438 m 1,0,-1
 375 1120 l 1,1,-1
 754 1120 l 1,2,-1
 754 977 l 1,3,-1
 375 977 l 1,4,-1
 375 369 l 2,5,6
 375 232 375 232 412.5 193 c 128,-1,7
 450 154 450 154 565 154 c 2,8,-1
 754 154 l 1,9,-1
 754 0 l 1,10,-1
 565 0 l 2,11,12
 352 0 352 0 271 79.5 c 128,-1,13
 190 159 190 159 190 369 c 2,14,-1
 190 977 l 1,15,-1
 55 977 l 1,16,-1
 55 1120 l 1,17,-1
 190 1120 l 1,18,-1
 190 1438 l 1,19,-1
 375 1438 l 1,0,-1
EndSplineSet
EndChar
StartChar: u
Encoding: 117 117 89
Width: 1298
Flags: W
Fore
174 442 m 2,0,-1
 174 1120 l 1,1,-1
 358 1120 l 1,2,-1
 358 449 l 2,3,4
 358 290 358 290 420 210.5 c 128,-1,5
 482 131 482 131 606 131 c 0,6,7
 755 131 755 131 841.5 226 c 128,-1,8
 928 321 928 321 928 485 c 2,9,-1
 928 1120 l 1,10,-1
 1112 1120 l 1,11,-1
 1112 0 l 1,12,-1
 928 0 l 1,13,-1
 928 172 l 1,14,15
 861 70 861 70 772.5 20.5 c 128,-1,16
 684 -29 684 -29 567 -29 c 0,17,18
 374 -29 374 -29 274 91 c 128,-1,19
 174 211 174 211 174 442 c 2,0,-1
EndSplineSet
EndChar
StartChar: v
Encoding: 118 118 90
Width: 1212
Flags: W
Fore
61 1120 m 1,0,-1
 256 1120 l 1,1,-1
 606 180 l 1,2,-1
 956 1120 l 1,3,-1
 1151 1120 l 1,4,-1
 731 0 l 1,5,-1
 481 0 l 1,6,-1
 61 1120 l 1,0,-1
EndSplineSet
EndChar
StartChar: w
Encoding: 119 119 91
Width: 1675
Flags: W
Fore
86 1120 m 1,0,-1
 270 1120 l 1,1,-1
 500 246 l 1,2,-1
 729 1120 l 1,3,-1
 946 1120 l 1,4,-1
 1176 246 l 1,5,-1
 1405 1120 l 1,6,-1
 1589 1120 l 1,7,-1
 1296 0 l 1,8,-1
 1079 0 l 1,9,-1
 838 918 l 1,10,-1
 596 0 l 1,11,-1
 379 0 l 1,12,-1
 86 1120 l 1,0,-1
EndSplineSet
EndChar
StartChar: x
Encoding: 120 120 92
Width: 1212
Flags: W
Fore
1124 1120 m 1,0,-1
 719 575 l 1,1,-1
 1145 0 l 1,2,-1
 928 0 l 1,3,-1
 602 440 l 1,4,-1
 276 0 l 1,5,-1
 59 0 l 1,6,-1
 494 586 l 1,7,-1
 96 1120 l 1,8,-1
 313 1120 l 1,9,-1
 610 721 l 1,10,-1
 907 1120 l 1,11,-1
 1124 1120 l 1,0,-1
EndSplineSet
EndChar
StartChar: y
Encoding: 121 121 93
Width: 1212
Flags: W
Fore
659 -104 m 2,0,1
 581 -304 581 -304 507 -365 c 128,-1,2
 433 -426 433 -426 309 -426 c 2,3,-1
 162 -426 l 1,4,-1
 162 -272 l 1,5,-1
 270 -272 l 2,6,7
 346 -272 346 -272 388 -236 c 128,-1,8
 430 -200 430 -200 481 -66 c 2,9,-1
 514 18 l 1,10,-1
 61 1120 l 1,11,-1
 256 1120 l 1,12,-1
 606 244 l 1,13,-1
 956 1120 l 1,14,-1
 1151 1120 l 1,15,-1
 659 -104 l 2,0,1
EndSplineSet
EndChar
StartChar: z
Encoding: 122 122 94
Width: 1075
Flags: W
Fore
113 1120 m 1,0,-1
 987 1120 l 1,1,-1
 987 952 l 1,2,-1
 295 147 l 1,3,-1
 987 147 l 1,4,-1
 987 0 l 1,5,-1
 88 0 l 1,6,-1
 88 168 l 1,7,-1
 780 973 l 1,8,-1
 113 973 l 1,9,-1
 113 1120 l 1,0,-1
EndSplineSet
EndChar
StartChar: braceleft
Encoding: 123 123 95
Width: 1303
Flags: W
Fore
1047 -190 m 1,0,-1
 1047 -334 l 1,1,-1
 985 -334 l 2,2,3
 736 -334 736 -334 651.5 -260 c 128,-1,4
 567 -186 567 -186 567 35 c 2,5,-1
 567 274 l 2,6,7
 567 425 567 425 513 483 c 128,-1,8
 459 541 459 541 317 541 c 2,9,-1
 256 541 l 1,10,-1
 256 684 l 1,11,-1
 317 684 l 2,12,13
 460 684 460 684 513.5 741.5 c 128,-1,14
 567 799 567 799 567 948 c 2,15,-1
 567 1188 l 2,16,17
 567 1409 567 1409 651.5 1482.5 c 128,-1,18
 736 1556 736 1556 985 1556 c 2,19,-1
 1047 1556 l 1,20,-1
 1047 1413 l 1,21,-1
 979 1413 l 2,22,23
 838 1413 838 1413 795 1369 c 128,-1,24
 752 1325 752 1325 752 1184 c 2,25,-1
 752 936 l 2,26,27
 752 779 752 779 706.5 708 c 128,-1,28
 661 637 661 637 551 612 c 1,29,30
 662 585 662 585 707 514 c 128,-1,31
 752 443 752 443 752 287 c 2,32,-1
 752 39 l 2,33,34
 752 -102 752 -102 795 -146 c 128,-1,35
 838 -190 838 -190 979 -190 c 2,36,-1
 1047 -190 l 1,0,-1
EndSplineSet
EndChar
StartChar: bar
Encoding: 124 124 96
Width: 690
Flags: W
Fore
430 1565 m 1,0,-1
 430 -483 l 1,1,-1
 260 -483 l 1,2,-1
 260 1565 l 1,3,-1
 430 1565 l 1,0,-1
EndSplineSet
EndChar
StartChar: braceright
Encoding: 125 125 97
Width: 1303
Flags: W
Fore
256 -190 m 1,0,-1
 326 -190 l 2,1,2
 466 -190 466 -190 508.5 -147 c 128,-1,3
 551 -104 551 -104 551 39 c 2,4,-1
 551 287 l 2,5,6
 551 443 551 443 596 514 c 128,-1,7
 641 585 641 585 752 612 c 1,8,9
 641 637 641 637 596 708 c 128,-1,10
 551 779 551 779 551 936 c 2,11,-1
 551 1184 l 2,12,13
 551 1326 551 1326 508.5 1369.5 c 128,-1,14
 466 1413 466 1413 326 1413 c 2,15,-1
 256 1413 l 1,16,-1
 256 1556 l 1,17,-1
 319 1556 l 2,18,19
 568 1556 568 1556 651.5 1482.5 c 128,-1,20
 735 1409 735 1409 735 1188 c 2,21,-1
 735 948 l 2,22,23
 735 799 735 799 789 741.5 c 128,-1,24
 843 684 843 684 985 684 c 2,25,-1
 1047 684 l 1,26,-1
 1047 541 l 1,27,-1
 985 541 l 2,28,29
 843 541 843 541 789 483 c 128,-1,30
 735 425 735 425 735 274 c 2,31,-1
 735 35 l 2,32,33
 735 -186 735 -186 651.5 -260 c 128,-1,34
 568 -334 568 -334 319 -334 c 2,35,-1
 256 -334 l 1,36,-1
 256 -190 l 1,0,-1
EndSplineSet
EndChar
StartChar: asciitilde
Encoding: 126 126 98
Width: 1716
Flags: W
Fore
1499 817 m 1,0,-1
 1499 639 l 1,1,2
 1394 560 1394 560 1304.5 526 c 128,-1,3
 1215 492 1215 492 1118 492 c 0,4,5
 1008 492 1008 492 862 551 c 0,6,7
 851 555 851 555 846 557 c 0,8,9
 839 560 839 560 824 565 c 0,10,11
 669 627 669 627 575 627 c 0,12,13
 487 627 487 627 401 588.5 c 128,-1,14
 315 550 315 550 217 467 c 1,15,-1
 217 645 l 1,16,17
 322 724 322 724 411.5 758.5 c 128,-1,18
 501 793 501 793 598 793 c 0,19,20
 708 793 708 793 855 733 c 0,21,22
 865 729 865 729 870 727 c 0,23,24
 878 724 878 724 892 719 c 0,25,26
 1047 657 1047 657 1141 657 c 0,27,28
 1227 657 1227 657 1311.5 695 c 128,-1,29
 1396 733 1396 733 1499 817 c 1,0,-1
EndSplineSet
EndChar
StartChar: exclamdown
Encoding: 161 161 100
Width: 821
Flags: W
Fore
512 1239 m 1,0,-1
 309 1239 l 1,1,-1
 309 1493 l 1,2,-1
 512 1493 l 1,3,-1
 512 1239 l 1,0,-1
512 0 m 1,4,-1
 309 0 l 1,5,-1
 309 655 l 1,6,-1
 330 1012 l 1,7,-1
 492 1012 l 1,8,-1
 512 655 l 1,9,-1
 512 0 l 1,4,-1
EndSplineSet
EndChar
StartChar: cent
Encoding: 162 162 101
Width: 1303
Flags: W
Fore
678 131 m 1,0,-1
 678 987 l 1,1,2
 531 969 531 969 449 856 c 128,-1,3
 367 743 367 743 367 559 c 0,4,5
 367 374 367 374 449 261 c 128,-1,6
 531 148 531 148 678 131 c 1,0,-1
1059 1077 m 1,7,-1
 1059 905 l 1,8,9
 985 946 985 946 917 967 c 128,-1,10
 849 988 849 988 781 991 c 1,11,-1
 780 127 l 1,12,13
 850 132 850 132 918.5 153 c 128,-1,14
 987 174 987 174 1059 213 c 1,15,-1
 1059 43 l 1,16,17
 994 13 994 13 925.5 -4.5 c 128,-1,18
 857 -22 857 -22 780 -29 c 1,19,-1
 780 -313 l 1,20,-1
 678 -313 l 1,21,-1
 678 -25 l 1,22,23
 437 -5 437 -5 304.5 148.5 c 128,-1,24
 172 302 172 302 172 559 c 0,25,26
 172 817 172 817 304.5 970 c 128,-1,27
 437 1123 437 1123 678 1145 c 1,28,-1
 678 1432 l 1,29,-1
 780 1432 l 1,30,-1
 781 1145 l 1,31,32
 854 1141 854 1141 922.5 1124.5 c 128,-1,33
 991 1108 991 1108 1059 1077 c 1,7,-1
EndSplineSet
EndChar
StartChar: sterling
Encoding: 163 163 102
Width: 1303
Flags: W
Fore
1102 1460 m 1,0,-1
 1102 1278 l 1,1,2
 1026 1319 1026 1319 958 1339.5 c 128,-1,3
 890 1360 890 1360 829 1360 c 0,4,5
 681 1360 681 1360 623 1282.5 c 128,-1,6
 565 1205 565 1205 565 993 c 2,7,-1
 565 778 l 1,8,-1
 956 778 l 1,9,-1
 956 635 l 1,10,-1
 565 635 l 1,11,-1
 565 170 l 1,12,-1
 1122 170 l 1,13,-1
 1122 0 l 1,14,-1
 129 0 l 1,15,-1
 129 170 l 1,16,-1
 365 170 l 1,17,-1
 365 635 l 1,18,-1
 166 635 l 1,19,-1
 166 778 l 1,20,-1
 365 778 l 1,21,-1
 365 1016 l 2,22,23
 365 1277 365 1277 472 1398.5 c 128,-1,24
 579 1520 579 1520 811 1520 c 0,25,26
 872 1520 872 1520 947.5 1504.5 c 128,-1,27
 1023 1489 1023 1489 1102 1460 c 1,0,-1
EndSplineSet
EndChar
StartChar: currency
Encoding: 164 164 103
Width: 1303
Flags: W
Fore
891 993 m 1,0,-1
 1098 1202 l 1,1,-1
 1212 1087 l 1,2,-1
 1006 881 l 1,3,4
 1043 822 1043 822 1061 762.5 c 128,-1,5
 1079 703 1079 703 1079 641 c 0,6,7
 1079 578 1079 578 1060 520.5 c 128,-1,8
 1041 463 1041 463 1001 406 c 1,9,-1
 1210 199 l 1,10,-1
 1096 86 l 1,11,-1
 889 293 l 1,12,13
 830 253 830 253 772 234 c 128,-1,14
 714 215 714 215 653 215 c 0,15,16
 595 215 595 215 535 233.5 c 128,-1,17
 475 252 475 252 414 289 c 1,18,-1
 207 82 l 1,19,-1
 94 197 l 1,20,-1
 301 403 l 1,21,22
 264 465 264 465 245.5 524 c 128,-1,23
 227 583 227 583 227 641 c 0,24,25
 227 705 227 705 246 763 c 128,-1,26
 265 821 265 821 303 877 c 1,27,-1
 96 1083 l 1,28,-1
 211 1198 l 1,29,-1
 418 991 l 1,30,31
 473 1030 473 1030 531 1048.5 c 128,-1,32
 589 1067 589 1067 653 1067 c 0,33,34
 713 1067 713 1067 771.5 1049 c 128,-1,35
 830 1031 830 1031 891 993 c 1,0,-1
922 643 m 0,36,37
 922 755 922 755 844.5 832 c 128,-1,38
 767 909 767 909 653 909 c 0,39,40
 541 909 541 909 462 832 c 128,-1,41
 383 755 383 755 383 643 c 0,42,43
 383 529 383 529 461.5 451 c 128,-1,44
 540 373 540 373 653 373 c 256,45,46
 766 373 766 373 844 451.5 c 128,-1,47
 922 530 922 530 922 643 c 0,36,37
EndSplineSet
EndChar
StartChar: yen
Encoding: 165 165 104
Width: 1303
Flags: W
Fore
1165 455 m 1,0,-1
 752 455 l 1,1,-1
 752 0 l 1,2,-1
 551 0 l 1,3,-1
 551 455 l 1,4,-1
 135 455 l 1,5,-1
 135 578 l 1,6,-1
 551 578 l 1,7,-1
 551 629 l 1,8,-1
 467 784 l 1,9,-1
 135 784 l 1,10,-1
 135 907 l 1,11,-1
 399 907 l 1,12,-1
 82 1493 l 1,13,-1
 272 1493 l 1,14,-1
 651 793 l 1,15,-1
 1028 1493 l 1,16,-1
 1219 1493 l 1,17,-1
 901 907 l 1,18,-1
 1165 907 l 1,19,-1
 1165 784 l 1,20,-1
 834 784 l 1,21,-1
 750 629 l 1,22,-1
 750 578 l 1,23,-1
 1165 578 l 1,24,-1
 1165 455 l 1,0,-1
EndSplineSet
EndChar
StartChar: brokenbar
Encoding: 166 166 105
Width: 690
Flags: W
Fore
430 408 m 1,0,-1
 430 -350 l 1,1,-1
 260 -350 l 1,2,-1
 260 408 l 1,3,-1
 430 408 l 1,0,-1
430 1432 m 1,4,-1
 430 674 l 1,5,-1
 260 674 l 1,6,-1
 260 1432 l 1,7,-1
 430 1432 l 1,4,-1
EndSplineSet
EndChar
StartChar: section
Encoding: 167 167 106
Width: 1024
Flags: W
Fore
379 936 m 1,0,1
 316 890 316 890 285 845 c 128,-1,2
 254 800 254 800 254 754 c 0,3,4
 254 678 254 678 323.5 611.5 c 128,-1,5
 393 545 393 545 643 410 c 1,6,7
 706 455 706 455 737 500.5 c 128,-1,8
 768 546 768 546 768 592 c 0,9,10
 768 667 768 667 696.5 735 c 128,-1,11
 625 803 625 803 379 936 c 1,0,1
829 1462 m 1,12,-1
 829 1298 l 1,13,14
 746 1337 746 1337 674.5 1356.5 c 128,-1,15
 603 1376 603 1376 547 1376 c 0,16,17
 450 1376 450 1376 396 1336 c 128,-1,18
 342 1296 342 1296 342 1225 c 0,19,20
 342 1135 342 1135 548 1020 c 0,21,22
 574 1005 574 1005 588 997 c 0,23,24
 799 878 799 878 864.5 801 c 128,-1,25
 930 724 930 724 930 623 c 0,26,27
 930 533 930 533 884 463 c 128,-1,28
 838 393 838 393 745 340 c 1,29,30
 807 288 807 288 835.5 233.5 c 128,-1,31
 864 179 864 179 864 115 c 0,32,33
 864 -27 864 -27 762 -111 c 128,-1,34
 660 -195 660 -195 487 -195 c 0,35,36
 414 -195 414 -195 337 -180.5 c 128,-1,37
 260 -166 260 -166 172 -137 c 1,38,-1
 172 27 l 1,39,40
 259 -12 259 -12 333 -31.5 c 128,-1,41
 407 -51 407 -51 465 -51 c 0,42,43
 567 -51 567 -51 623.5 -9 c 128,-1,44
 680 33 680 33 680 109 c 0,45,46
 680 211 680 211 459 334 c 2,47,-1
 434 348 l 2,48,49
 220 468 220 468 156 544.5 c 128,-1,50
 92 621 92 621 92 723 c 0,51,52
 92 814 92 814 138.5 885.5 c 128,-1,53
 185 957 185 957 276 1006 c 1,54,55
 217 1050 217 1050 187.5 1106 c 128,-1,56
 158 1162 158 1162 158 1231 c 0,57,58
 158 1361 158 1361 258 1440.5 c 128,-1,59
 358 1520 358 1520 524 1520 c 0,60,61
 597 1520 597 1520 673.5 1505.5 c 128,-1,62
 750 1491 750 1491 829 1462 c 1,12,-1
EndSplineSet
EndChar
StartChar: dieresis
Encoding: 168 168 107
Width: 1024
Flags: W
Fore
606 1552 m 1,0,-1
 809 1552 l 1,1,-1
 809 1350 l 1,2,-1
 606 1350 l 1,3,-1
 606 1552 l 1,0,-1
215 1552 m 1,4,-1
 418 1552 l 1,5,-1
 418 1350 l 1,6,-1
 215 1350 l 1,7,-1
 215 1552 l 1,4,-1
EndSplineSet
EndChar
StartChar: copyright
Encoding: 169 169 108
Width: 2048
Flags: W
Fore
1024 1485 m 256,0,1
 1176 1485 1176 1485 1307.5 1430 c 128,-1,2
 1439 1375 1439 1375 1548 1266 c 256,3,4
 1657 1157 1657 1157 1711 1026 c 128,-1,5
 1765 895 1765 895 1765 741 c 0,6,7
 1765 589 1765 589 1711 458.5 c 128,-1,8
 1657 328 1657 328 1548 219 c 256,9,10
 1439 110 1439 110 1307.5 55 c 128,-1,11
 1176 0 1176 0 1024 0 c 256,12,13
 872 0 872 0 740.5 55 c 128,-1,14
 609 110 609 110 500 219 c 256,15,16
 391 328 391 328 337 458.5 c 128,-1,17
 283 589 283 589 283 741 c 0,18,19
 283 895 283 895 337 1026 c 128,-1,20
 391 1157 391 1157 500 1266 c 256,21,22
 609 1375 609 1375 740.5 1430 c 128,-1,23
 872 1485 872 1485 1024 1485 c 256,0,1
1024 1382 m 0,24,25
 893 1382 893 1382 780 1335 c 128,-1,26
 667 1288 667 1288 573 1194 c 256,27,28
 479 1100 479 1100 431 985.5 c 128,-1,29
 383 871 383 871 383 741 c 0,30,31
 383 612 383 612 431 498.5 c 128,-1,32
 479 385 479 385 573 291 c 256,33,34
 667 197 667 197 780 149.5 c 128,-1,35
 893 102 893 102 1024 102 c 0,36,37
 1156 102 1156 102 1269.5 149.5 c 128,-1,38
 1383 197 1383 197 1477 291 c 0,39,40
 1570 384 1570 384 1616.5 497 c 128,-1,41
 1663 610 1663 610 1663 741 c 0,42,43
 1663 874 1663 874 1616 987.5 c 128,-1,44
 1569 1101 1569 1101 1477 1194 c 0,45,46
 1383 1288 1383 1288 1269.5 1335 c 128,-1,47
 1156 1382 1156 1382 1024 1382 c 0,24,25
1323 1137 m 1,48,-1
 1323 1008 l 1,49,50
 1257 1041 1257 1041 1192 1057 c 128,-1,51
 1127 1073 1127 1073 1061 1073 c 0,52,53
 912 1073 912 1073 828.5 985.5 c 128,-1,54
 745 898 745 898 745 741 c 0,55,56
 745 582 745 582 830.5 495 c 128,-1,57
 916 408 916 408 1071 408 c 0,58,59
 1135 408 1135 408 1196 423.5 c 128,-1,60
 1257 439 1257 439 1323 473 c 1,61,-1
 1323 346 l 1,62,63
 1256 317 1256 317 1187.5 303 c 128,-1,64
 1119 289 1119 289 1049 289 c 0,65,66
 833 289 833 289 707.5 411 c 128,-1,67
 582 533 582 533 582 741 c 0,68,69
 582 950 582 950 707.5 1071 c 128,-1,70
 833 1192 833 1192 1049 1192 c 0,71,72
 1122 1192 1122 1192 1190 1178 c 128,-1,73
 1258 1164 1258 1164 1323 1137 c 1,48,-1
EndSplineSet
EndChar
StartChar: ordfeminine
Encoding: 170 170 109
Width: 965
Flags: W
Fore
139 592 m 1,0,-1
 827 592 l 1,1,-1
 827 469 l 1,2,-1
 139 469 l 1,3,-1
 139 592 l 1,0,-1
825 1165 m 2,4,-1
 825 717 l 1,5,-1
 676 717 l 1,6,-1
 676 829 l 1,7,8
 632 766 632 766 560 732 c 128,-1,9
 488 698 488 698 395 698 c 0,10,11
 267 698 267 698 191 765.5 c 128,-1,12
 115 833 115 833 115 946 c 0,13,14
 115 1081 115 1081 210.5 1150 c 128,-1,15
 306 1219 306 1219 494 1219 c 2,16,-1
 676 1219 l 1,17,-1
 676 1223 l 2,18,19
 676 1314 676 1314 617.5 1359.5 c 128,-1,20
 559 1405 559 1405 442 1405 c 0,21,22
 380 1405 380 1405 312 1388 c 128,-1,23
 244 1371 244 1371 176 1337 c 1,24,-1
 176 1464 l 1,25,26
 249 1492 249 1492 321.5 1506 c 128,-1,27
 394 1520 394 1520 463 1520 c 0,28,29
 646 1520 646 1520 735.5 1432 c 128,-1,30
 825 1344 825 1344 825 1165 c 2,4,-1
549 1104 m 2,31,32
 388 1104 388 1104 325 1070.5 c 128,-1,33
 262 1037 262 1037 262 958 c 0,34,35
 262 894 262 894 311 855.5 c 128,-1,36
 360 817 360 817 442 817 c 0,37,38
 546 817 546 817 611 889 c 128,-1,39
 676 961 676 961 676 1075 c 2,40,-1
 676 1104 l 1,41,-1
 549 1104 l 2,31,32
EndSplineSet
EndChar
StartChar: guillemotleft
Encoding: 171 171 110
Width: 1253
Flags: W
Fore
1061 1059 m 1,0,-1
 1061 868 l 1,1,-1
 760 600 l 1,2,-1
 1061 332 l 1,3,-1
 1061 141 l 1,4,-1
 592 559 l 1,5,-1
 592 641 l 1,6,-1
 1061 1059 l 1,0,-1
627 1059 m 1,7,-1
 627 868 l 1,8,-1
 326 600 l 1,9,-1
 627 332 l 1,10,-1
 627 141 l 1,11,-1
 158 559 l 1,12,-1
 158 641 l 1,13,-1
 627 1059 l 1,7,-1
EndSplineSet
EndChar
StartChar: logicalnot
Encoding: 172 172 111
Width: 1716
Flags: W
Fore
217 862 m 1,0,-1
 1499 862 l 1,1,-1
 1499 287 l 1,2,-1
 1331 287 l 1,3,-1
 1331 692 l 1,4,-1
 217 692 l 1,5,-1
 217 862 l 1,0,-1
EndSplineSet
EndChar
StartChar: uni00AD
Encoding: 173 173 112
Width: 739
Flags: W
Fore
100 643 m 1,0,-1
 639 643 l 1,1,-1
 639 479 l 1,2,-1
 100 479 l 1,3,-1
 100 643 l 1,0,-1
EndSplineSet
EndChar
StartChar: registered
Encoding: 174 174 113
Width: 2048
Flags: W
Fore
1024 1382 m 0,0,1
 893 1382 893 1382 780 1335 c 128,-1,2
 667 1288 667 1288 573 1194 c 256,3,4
 479 1100 479 1100 431 985.5 c 128,-1,5
 383 871 383 871 383 741 c 0,6,7
 383 612 383 612 431 498.5 c 128,-1,8
 479 385 479 385 573 291 c 256,9,10
 667 197 667 197 780 149.5 c 128,-1,11
 893 102 893 102 1024 102 c 0,12,13
 1156 102 1156 102 1269.5 149.5 c 128,-1,14
 1383 197 1383 197 1477 291 c 0,15,16
 1570 384 1570 384 1616.5 497 c 128,-1,17
 1663 610 1663 610 1663 741 c 0,18,19
 1663 874 1663 874 1616 987.5 c 128,-1,20
 1569 1101 1569 1101 1477 1194 c 0,21,22
 1383 1288 1383 1288 1269.5 1335 c 128,-1,23
 1156 1382 1156 1382 1024 1382 c 0,0,1
1024 1485 m 256,24,25
 1176 1485 1176 1485 1307.5 1430 c 128,-1,26
 1439 1375 1439 1375 1548 1266 c 256,27,28
 1657 1157 1657 1157 1711 1026 c 128,-1,29
 1765 895 1765 895 1765 741 c 0,30,31
 1765 589 1765 589 1711 458.5 c 128,-1,32
 1657 328 1657 328 1548 219 c 256,33,34
 1439 110 1439 110 1307.5 55 c 128,-1,35
 1176 0 1176 0 1024 0 c 256,36,37
 872 0 872 0 740.5 55 c 128,-1,38
 609 110 609 110 500 219 c 256,39,40
 391 328 391 328 337 458.5 c 128,-1,41
 283 589 283 589 283 741 c 0,42,43
 283 895 283 895 337 1026 c 128,-1,44
 391 1157 391 1157 500 1266 c 256,45,46
 609 1375 609 1375 740.5 1430 c 128,-1,47
 872 1485 872 1485 1024 1485 c 256,24,25
997 1071 m 2,48,-1
 874 1071 l 1,49,-1
 874 795 l 1,50,-1
 997 795 l 2,51,52
 1107 795 1107 795 1150.5 826 c 128,-1,53
 1194 857 1194 857 1194 932 c 0,54,55
 1194 1008 1194 1008 1150 1039.5 c 128,-1,56
 1106 1071 1106 1071 997 1071 c 2,48,-1
1004 1174 m 2,57,58
 1180 1174 1180 1174 1267 1114.5 c 128,-1,59
 1354 1055 1354 1055 1354 934 c 0,60,61
 1354 848 1354 848 1301.5 792 c 128,-1,62
 1249 736 1249 736 1153 719 c 1,63,64
 1177 711 1177 711 1210.5 672.5 c 128,-1,65
 1244 634 1244 634 1290 561 c 2,66,-1
 1427 338 l 1,67,-1
 1255 338 l 1,68,-1
 1126 547 l 2,69,70
 1067 643 1067 643 1030.5 668.5 c 128,-1,71
 994 694 994 694 940 694 c 2,72,-1
 874 694 l 1,73,-1
 874 338 l 1,74,-1
 719 338 l 1,75,-1
 719 1174 l 1,76,-1
 1004 1174 l 2,57,58
EndSplineSet
EndChar
StartChar: macron
Encoding: 175 175 114
Width: 1024
Flags: W
Fore
213 1526 m 1,0,-1
 811 1526 l 1,1,-1
 811 1378 l 1,2,-1
 213 1378 l 1,3,-1
 213 1526 l 1,0,-1
EndSplineSet
EndChar
StartChar: degree
Encoding: 176 176 115
Width: 1024
Flags: W
Fore
512 1391 m 0,0,1
 432 1391 432 1391 377 1335.5 c 128,-1,2
 322 1280 322 1280 322 1200 c 0,3,4
 322 1121 322 1121 377 1066.5 c 128,-1,5
 432 1012 432 1012 512 1012 c 256,6,7
 592 1012 592 1012 647 1066.5 c 128,-1,8
 702 1121 702 1121 702 1200 c 256,9,10
 702 1279 702 1279 646.5 1335 c 128,-1,11
 591 1391 591 1391 512 1391 c 0,0,1
512 1520 m 0,12,13
 576 1520 576 1520 635 1495.5 c 128,-1,14
 694 1471 694 1471 737 1425 c 0,15,16
 783 1380 783 1380 806 1323 c 128,-1,17
 829 1266 829 1266 829 1200 c 0,18,19
 829 1068 829 1068 736.5 976.5 c 128,-1,20
 644 885 644 885 510 885 c 0,21,22
 375 885 375 885 285 975 c 128,-1,23
 195 1065 195 1065 195 1200 c 0,24,25
 195 1334 195 1334 287 1427 c 128,-1,26
 379 1520 379 1520 512 1520 c 0,12,13
EndSplineSet
EndChar
StartChar: plusminus
Encoding: 177 177 116
Width: 1716
Flags: W
Fore
942 1284 m 1,0,-1
 942 897 l 1,1,-1
 1499 897 l 1,2,-1
 1499 727 l 1,3,-1
 942 727 l 1,4,-1
 942 340 l 1,5,-1
 774 340 l 1,6,-1
 774 727 l 1,7,-1
 217 727 l 1,8,-1
 217 897 l 1,9,-1
 774 897 l 1,10,-1
 774 1284 l 1,11,-1
 942 1284 l 1,0,-1
217 170 m 1,12,-1
 1499 170 l 1,13,-1
 1499 0 l 1,14,-1
 217 0 l 1,15,-1
 217 170 l 1,12,-1
EndSplineSet
EndChar
StartChar: uni00B2
Encoding: 178 178 117
Width: 821
Flags: W
Fore
268 782 m 1,0,-1
 692 782 l 1,1,-1
 692 668 l 1,2,-1
 94 668 l 1,3,-1
 94 778 l 1,4,5
 128 809 128 809 191 865 c 0,6,7
 535 1170 535 1170 535 1264 c 0,8,9
 535 1330 535 1330 483 1370.5 c 128,-1,10
 431 1411 431 1411 346 1411 c 0,11,12
 294 1411 294 1411 233 1393.5 c 128,-1,13
 172 1376 172 1376 100 1341 c 1,14,-1
 100 1464 l 1,15,16
 177 1492 177 1492 243.5 1506 c 128,-1,17
 310 1520 310 1520 367 1520 c 0,18,19
 512 1520 512 1520 599 1454 c 128,-1,20
 686 1388 686 1388 686 1280 c 0,21,22
 686 1141 686 1141 355 857 c 0,23,24
 299 809 299 809 268 782 c 1,0,-1
EndSplineSet
EndChar
StartChar: uni00B3
Encoding: 179 179 118
Width: 821
Flags: W
Fore
524 1120 m 1,0,1
 616 1102 616 1102 666.5 1047.5 c 128,-1,2
 717 993 717 993 717 911 c 0,3,4
 717 787 717 787 622 720 c 128,-1,5
 527 653 527 653 350 653 c 0,6,7
 293 653 293 653 230.5 663.5 c 128,-1,8
 168 674 168 674 98 694 c 1,9,-1
 98 815 l 1,10,11
 150 788 150 788 209.5 775 c 128,-1,12
 269 762 269 762 336 762 c 0,13,14
 445 762 445 762 505 801.5 c 128,-1,15
 565 841 565 841 565 911 c 0,16,17
 565 985 565 985 509.5 1023 c 128,-1,18
 454 1061 454 1061 346 1061 c 2,19,-1
 260 1061 l 1,20,-1
 260 1169 l 1,21,-1
 354 1169 l 2,22,23
 448 1169 448 1169 496.5 1200.5 c 128,-1,24
 545 1232 545 1232 545 1292 c 0,25,26
 545 1350 545 1350 495 1380.5 c 128,-1,27
 445 1411 445 1411 350 1411 c 0,28,29
 310 1411 310 1411 259 1402 c 128,-1,30
 208 1393 208 1393 127 1370 c 1,31,-1
 127 1485 l 1,32,33
 200 1502 200 1502 264 1511 c 128,-1,34
 328 1520 328 1520 383 1520 c 0,35,36
 527 1520 527 1520 611.5 1461 c 128,-1,37
 696 1402 696 1402 696 1303 c 0,38,39
 696 1234 696 1234 651 1186 c 128,-1,40
 606 1138 606 1138 524 1120 c 1,0,1
EndSplineSet
EndChar
StartChar: acute
Encoding: 180 180 119
Width: 1024
Flags: W
Fore
651 1638 m 1,0,-1
 850 1638 l 1,1,-1
 524 1262 l 1,2,-1
 371 1262 l 1,3,-1
 651 1638 l 1,0,-1
EndSplineSet
EndChar
StartChar: mu
Encoding: 181 181 120
Width: 1303
Flags: W
Fore
174 -426 m 1,0,-1
 174 1120 l 1,1,-1
 358 1120 l 1,2,-1
 358 424 l 2,3,4
 358 279 358 279 427 205 c 128,-1,5
 496 131 496 131 631 131 c 0,6,7
 779 131 779 131 853.5 215 c 128,-1,8
 928 299 928 299 928 467 c 2,9,-1
 928 1120 l 1,10,-1
 1112 1120 l 1,11,-1
 1112 258 l 2,12,13
 1112 198 1112 198 1129.5 169.5 c 128,-1,14
 1147 141 1147 141 1184 141 c 0,15,16
 1193 141 1193 141 1209 146.5 c 128,-1,17
 1225 152 1225 152 1253 164 c 1,18,-1
 1253 16 l 1,19,20
 1212 -7 1212 -7 1175.5 -18 c 128,-1,21
 1139 -29 1139 -29 1104 -29 c 0,22,23
 1035 -29 1035 -29 994 10 c 128,-1,24
 953 49 953 49 938 129 c 1,25,26
 888 50 888 50 815.5 10.5 c 128,-1,27
 743 -29 743 -29 645 -29 c 0,28,29
 543 -29 543 -29 471.5 10 c 128,-1,30
 400 49 400 49 358 127 c 1,31,-1
 358 -426 l 1,32,-1
 174 -426 l 1,0,-1
EndSplineSet
EndChar
StartChar: paragraph
Encoding: 182 182 121
Width: 1303
Flags: W
Fore
633 1493 m 2,0,-1
 1081 1493 l 1,1,-1
 1081 -197 l 1,2,-1
 940 -197 l 1,3,-1
 940 1370 l 1,4,-1
 750 1370 l 1,5,-1
 750 -197 l 1,6,-1
 608 -197 l 1,7,-1
 608 649 l 1,8,9
 393 666 393 666 275.5 776.5 c 128,-1,10
 158 887 158 887 158 1071 c 0,11,12
 158 1261 158 1261 288 1377 c 128,-1,13
 418 1493 418 1493 633 1493 c 2,0,-1
EndSplineSet
EndChar
StartChar: periodcentered
Encoding: 183 183 122
Width: 651
Flags: W
Fore
219 838 m 1,0,-1
 430 838 l 1,1,-1
 430 584 l 1,2,-1
 219 584 l 1,3,-1
 219 838 l 1,0,-1
EndSplineSet
EndChar
StartChar: cedilla
Encoding: 184 184 123
Width: 1024
Flags: W
Fore
596 0 m 1,0,1
 651 -62 651 -62 678 -114.5 c 128,-1,2
 705 -167 705 -167 705 -215 c 0,3,4
 705 -304 705 -304 645 -349.5 c 128,-1,5
 585 -395 585 -395 467 -395 c 0,6,7
 421 -395 421 -395 377.5 -389 c 128,-1,8
 334 -383 334 -383 291 -371 c 1,9,-1
 291 -240 l 1,10,11
 325 -257 325 -257 362 -264.5 c 128,-1,12
 399 -272 399 -272 446 -272 c 0,13,14
 505 -272 505 -272 535 -248 c 128,-1,15
 565 -224 565 -224 565 -178 c 0,16,17
 565 -148 565 -148 543.5 -104.5 c 128,-1,18
 522 -61 522 -61 477 0 c 1,19,-1
 596 0 l 1,0,1
EndSplineSet
EndChar
StartChar: uni0E01
Encoding: 3585 3585 124
Width: 1340
Flags: MW
HStem: 0 21G<200 384 964 1146> 1072 160<662 662>
VStem: 199 185<0 567.7> 964 182<0 958.4>
Back
104.5 1046.5 m 13,0,-1
 105 843.5 l 5,1,-1
 342.5 751 l 5,2,3
 260.842 709.92 260.842 709.92 215.068 624.22 c 132,-1,4
 169.257 538.452 169.257 538.452 169.294 456 c 6,5,-1
 169.5 0 l 5,6,-1
 354.5 0 l 5,7,-1
 354.294 456 l 6,8,9
 354.258 535.378 354.258 535.378 396.614 593.427 c 132,-1,10
 438.934 651.413 438.934 651.413 512.5 679 c 5,11,-1
 512 826.5 l 5,12,-1
 260.608 940.811 l 5,13,14
 333.372 996.007 333.372 996.007 431.233 1030.45 c 132,-1,15
 529.095 1064.89 529.095 1064.89 632.5 1063 c 4,16,17
 784.426 1060.3 784.426 1060.3 858.963 979.636 c 132,-1,18
 933.5 898.977 933.5 898.977 933.5 731 c 6,19,-1
 933.5 0 l 5,20,-1
 1116.5 0 l 5,21,-1
 1116.5 747 l 6,22,23
 1116.5 985.378 1116.5 985.378 980.974 1104.37 c 132,-1,24
 845.448 1223.35 845.448 1223.35 632.5 1223 c 4,25,26
 483.723 1222.76 483.723 1222.76 350.205 1181.2 c 132,-1,27
 216.687 1139.64 216.687 1139.64 104.5 1046.5 c 13,0,-1
EndSplineSet
Fore
134 1056 m 9,0,-1
 134 862 l 1,1,-1
 372 760 l 1,2,3
 291 719 291 719 245 633 c 128,-1,4
 199 547 199 547 199 465 c 2,5,-1
 200 0 l 1,6,-1
 384 0 l 1,7,-1
 384 465 l 2,8,9
 384 544 384 544 426.5 602 c 128,-1,10
 469 660 469 660 542 688 c 1,11,-1
 542 836 l 1,12,-1
 291 950 l 1,13,14
 363 1005 363 1005 461 1039.5 c 128,-1,15
 559 1074 559 1074 662 1072 c 0,16,17
 814 1069 814 1069 889 988.5 c 128,-1,18
 964 908 964 908 964 740 c 2,19,-1
 964 0 l 1,20,-1
 1146 0 l 1,21,-1
 1146 756 l 2,22,23
 1146 994 1146 994 1010.5 1113 c 128,-1,24
 875 1232 875 1232 662 1232 c 0,25,26
 514 1232 514 1232 380.5 1190.5 c 128,-1,27
 247 1149 247 1149 134 1056 c 9,0,-1
EndSplineSet
EndChar
StartChar: uni0E02
Encoding: 3586 3586 125
Width: 1220
Flags: W
HStem: 0 154<530 877.8> 761 105.956<220.4 303.636> 1085 135<369 437.7>
VStem: 338 112<899.7 983.732> 341 189<154 484.101> 526 183<844.195 977.231> 846 182<122.8 1202>
Back
1315 927 m 132,-1,1
 1315 967 1315 967 1343 995 c 132,-1,2
 1371 1023 1371 1023 1411 1023 c 132,-1,3
 1451 1023 1451 1023 1479 995 c 132,-1,4
 1507 967 1507 967 1507 927 c 132,-1,5
 1507 887 1507 887 1479 859 c 132,-1,6
 1451 831 1451 831 1411 831 c 132,-1,7
 1371 831 1371 831 1343 859 c 132,-1,0
 1315 887 1315 887 1315 927 c 132,-1,1
1303.5 1118.5 m 132,-1,9
 1214 1035 1214 1035 1219 927 c 4,10,11
 1223 844 1223 844 1277.5 789.5 c 132,-1,12
 1332 735 1332 735 1411 735 c 132,-1,13
 1490 735 1490 735 1546.5 791.5 c 132,-1,14
 1603 848 1603 848 1603 927 c 260,15,16
 1603 1017 1603 1017 1547 1062 c 5,17,18
 1619 1057 1619 1057 1656.5 1003.5 c 132,-1,19
 1693.83 950 1693.83 950 1693 903 c 4,20,21
 1691.37 833.669 1691.37 833.669 1669.46 794.919 c 132,-1,22
 1647.56 756.169 1647.56 756.169 1599.28 695.085 c 132,-1,23
 1551 634 1551 634 1525 562 c 132,-1,24
 1499 490 1499 490 1499 425 c 6,25,-1
 1499 0 l 5,26,-1
 1917 0 l 6,27,28
 2063 0 2063 0 2126 58.5 c 132,-1,29
 2189.08 117.096 2189.08 117.096 2189 194 c 6,30,-1
 2188 1202 l 5,31,-1
 1998 1202 l 5,32,-1
 1998 261 l 6,33,34
 1998 211 1998 211 1973.5 185.5 c 132,-1,35
 1949 160 1949 160 1899 160 c 6,36,-1
 1691 160 l 5,37,-1
 1691 425 l 6,38,39
 1691 484.104 1691 484.104 1707.54 534.021 c 132,-1,40
 1724.09 583.938 1724.09 583.938 1775.04 648.97 c 132,-1,41
 1826 714 1826 714 1844.5 765 c 132,-1,42
 1863 816 1863 816 1863 885 c 4,43,44
 1861 1030 1861 1030 1759 1117 c 132,-1,45
 1657 1204 1657 1204 1525 1203 c 132,-1,8
 1393 1202 1393 1202 1303.5 1118.5 c 132,-1,9
564 875 m 0,0,1
 564 952 564 952 519.5 1007 c 128,-1,2
 475 1062 475 1062 389 1068 c 1,3,4
 424 1050 424 1050 444.5 1012 c 128,-1,5
 465 974 465 974 465 921 c 0,6,7
 465 851 465 851 412.5 796.5 c 128,-1,8
 360 742 360 742 282 744 c 0,9,10
 197 746 197 746 143 798.5 c 128,-1,11
 89 851 89 851 88 931 c 0,12,13
 86 1043 86 1043 174 1123 c 128,-1,14
 262 1203 262 1203 396 1203 c 128,-1,15
 530 1203 530 1203 630.995 1116.36 c 128,-1,16
 731.99 1029.73 731.99 1029.73 734 885 c 0,17,18
 735 813 735 813 718.5 762.5 c 128,-1,19
 702 712 702 712 645.5 643 c 128,-1,20
 589 574 589 574 572.5 525 c 128,-1,21
 556 476 556 476 556 425 c 2,22,-1
 556 154 l 9,23,-1
 761 154 l 2,24,25
 811 154 811 154 835.5 179.5 c 128,-1,26
 860 205 860 205 860 255 c 2,27,-1
 860 1202 l 1,28,-1
 1039 1202 l 1,29,-1
 1040 194 l 2,30,31
 1040.08 116.973 1040.08 116.973 977 58.5 c 128,-1,32
 914 0 914 0 768 0 c 2,33,-1
 367 0 l 1,34,-1
 366 425 l 18,35,36
 365.762 525.997 365.762 525.997 390.881 584 c 128,-1,37
 416 642 416 642 474.143 708.943 c 128,-1,38
 532.286 775.885 532.286 775.885 547.823 805.925 c 128,-1,39
 563.361 835.965 563.361 835.965 564 875 c 0,0,1
281.5 999.5 m 152,-1,41
 250 1000 250 1000 226.5 979 c 128,-1,42
 203 958 203 958 202 926.5 c 128,-1,43
 201 895 201 895 223 873 c 128,-1,44
 245 851 245 851 276.5 850.5 c 128,-1,45
 308 850 308 850 330.5 871 c 128,-1,46
 353 892 353 892 354 923 c 128,-1,47
 355 954 355 954 334 976.5 c 128,-1,40
 313 999 313 999 281.5 999.5 c 152,-1,41
EndSplineSet
Fore
740 0 m 2,0,-1
 341 0 l 1,1,-1
 341 452 l 2,2,3
 341 513 341 513 359.5 566 c 128,-1,4
 378 619 378 619 404.5 658.5 c 128,-1,5
 431 698 431 698 458 735 c 128,-1,6
 485 772 485 772 505 815.5 c 128,-1,7
 525 859 525 859 526 905 c 0,8,9
 526.948 948.598 526.948 948.598 512 985.5 c 0,10,11
 496 1025 496 1025 459.5 1054 c 128,-1,12
 423 1083 423 1083 374 1085 c 1,13,14
 395 1071 395 1071 405 1063 c 128,-1,15
 415 1055 415 1055 427.5 1038.5 c 128,-1,16
 440 1022 440 1022 445 997.5 c 128,-1,17
 450 973 450 973 450 938 c 0,18,19
 450 874 450 874 392 816.5 c 128,-1,20
 334 759 334 759 266 761 c 0,21,22
 180.455 763.516 180.455 763.516 126.727 815.758 c 128,-1,23
 73 868 73 868 72 948 c 0,24,25
 70 1059 70 1059 156.5 1138 c 0,26,27
 244.215 1218.11 244.215 1218.11 369 1220 c 0,28,29
 435 1221 435 1221 491 1203 c 128,-1,30
 547 1185 547 1185 586.5 1154 c 128,-1,31
 626 1123 626 1123 654 1082.5 c 128,-1,32
 682 1042 682 1042 695.5 998.5 c 128,-1,33
 709 955 709 955 709 912 c 0,34,35
 709 863 709 863 690.5 812 c 128,-1,36
 672 761 672 761 646 715.5 c 128,-1,37
 620 670 620 670 593.5 623 c 128,-1,38
 567 576 567 576 548.5 516.389 c 128,-1,39
 530 456.778 530 456.778 530 402 c 2,40,-1
 530 154 l 1,41,-1
 740 154 l 2,42,43
 846 154 846 154 846 258 c 2,44,-1
 846 1202 l 25,45,-1
 1028 1202 l 9,46,-1
 1028 196 l 2,47,48
 1028 0 1028 0 740 0 c 2,0,-1
266 1016 m 152,-1,50
 235 1017 235 1017 211.5 995.5 c 128,-1,51
 188 974 188 974 186 943 c 0,52,53
 185 912 185 912 207.5 890 c 128,-1,54
 230 868 230 868 262 867 c 0,55,56
 293 866 293 866 315 887.5 c 128,-1,57
 337 909 337 909 338 940 c 0,58,59
 340 971 340 971 318.5 993 c 128,-1,49
 297 1015 297 1015 266 1016 c 152,-1,50
EndSplineSet
EndChar
StartChar: uni0E03
Encoding: 3587 3587 126
Width: 1310
Flags: W
HStem: 0 154<634 980.8> 638 107<244.4 327.841> 894 107<261.963 330> 1184 20G<949 1131>
VStem: 72 139<780.7 910> 363 111<776.4 858.79> 444 190<154 489.691> 640 182<835.2 995.877> 949 182<122.8 1204>
Fore
291 894 m 24,0,1
 259 894 259 894 235.5 873 c 128,-1,2
 212 852 212 852 211 821 c 128,-1,3
 210 790 210 790 232 767.5 c 128,-1,4
 254 745 254 745 286 745 c 0,5,6
 317 744 317 744 339.5 765 c 128,-1,7
 362 786 362 786 363 818 c 0,8,9
 364 848 364 848 342.5 870.5 c 128,-1,10
 321 893 321 893 291 894 c 24,0,1
1131 196 m 18,11,12
 1131 0 1131 0 843 0 c 2,13,-1
 444 0 l 1,14,-1
 444 458 l 2,15,16
 444 519 444 519 463.5 570.5 c 128,-1,17
 483 622 483 622 511.5 659 c 128,-1,18
 540 696 540 696 568 730.5 c 128,-1,19
 596 765 596 765 617 807 c 128,-1,20
 638 849 638 849 640 895 c 0,21,22
 646 1040 646 1040 562 1086 c 1,23,-1
 430 1026 l 1,24,-1
 300 1088 l 1,25,26
 228 1054 228 1054 221 987 c 1,27,-1
 294 1001 l 1,28,29
 378 1000 378 1000 425.5 944.5 c 128,-1,30
 473 889 473 889 474 816 c 0,31,32
 474 754 474 754 419.5 696.5 c 128,-1,33
 365 639 365 639 290 638 c 0,34,35
 206.073 637.02 206.073 637.02 139.036 699.219 c 128,-1,36
 72 761.418 72 761.418 72 910 c 0,37,38
 72.4766 1009.08 72.4766 1009.08 135.009 1101.72 c 128,-1,39
 197.54 1194.35 197.54 1194.35 316 1226 c 1,40,-1
 434 1159 l 1,41,-1
 554 1221 l 1,42,43
 636 1206 636 1206 698.5 1155 c 128,-1,44
 761 1104 761 1104 790.763 1039.11 c 128,-1,46
 820.526 974.213 820.526 974.213 822 902 c 0,47,48
 823 853 823 853 803.5 803.5 c 128,-1,49
 784 754 784 754 756 711 c 128,-1,50
 728 668 728 668 700.5 623 c 128,-1,51
 673 578 673 578 653.5 522 c 128,-1,52
 634 466 634 466 634 408 c 2,53,-1
 634 154 l 1,54,-1
 843 154 l 2,55,56
 949 154 949 154 949 258 c 2,57,-1
 949 1202 l 1,58,-1
 1131 1202 l 1,59,-1
 1131 196 l 18,11,12
EndSplineSet
EndChar
StartChar: uni0E04
Encoding: 3588 3588 127
Width: 1340
Flags: MW
HStem: 0 21G<205 398 973 1157> 461 132<602 680> 737 132<602 680> 1072 160<616 702.5>
VStem: 148 174<615.054 861.15> 713 132<626 704> 973 184<0 857.593>
Back
378 0 m 1,0,-1
 195 0 l 1,1,-1
 118 757.885 l 2,2,3
 112.541 811.613 112.541 811.613 134.597 888.306 c 128,-1,4
 156.653 964.999 156.653 964.999 198.178 1024.68 c 128,-1,5
 239.702 1084.36 239.702 1084.36 299.502 1128.46 c 128,-1,6
 359.302 1172.55 359.302 1172.55 445.794 1198.22 c 128,-1,7
 532.285 1223.89 532.285 1223.89 636 1223.89 c 0,8,9
 735.064 1223.89 735.064 1223.89 818.203 1198.25 c 128,-1,10
 901.342 1172.6 901.342 1172.6 959.237 1128.5 c 128,-1,11
 1017.13 1084.39 1017.13 1084.39 1057.56 1024.92 c 128,-1,12
 1097.99 965.439 1097.99 965.439 1117.6 896.166 c 128,-1,13
 1137.21 826.893 1137.21 826.893 1137 681 c 2,14,-1
 1136 0 l 1,15,-1
 953 0 l 1,16,-1
 953 742.886 l 2,17,18
 953 814.83 953 814.83 936.336 871.518 c 128,-1,19
 919.673 928.206 919.673 928.206 883.882 972.335 c 128,-1,20
 848.092 1016.46 848.092 1016.46 786.399 1040.18 c 128,-1,21
 724.705 1063.89 724.705 1063.89 640 1063.89 c 0,22,23
 551.567 1063.89 551.567 1063.89 483.814 1038.7 c 128,-1,24
 416.061 1013.51 416.061 1013.51 375.46 968.862 c 128,-1,25
 334.859 924.217 334.859 924.217 316.191 865.363 c 128,-1,26
 297.523 806.508 297.523 806.508 302 736.886 c 2,27,-1
 322 425.886 l 1,28,29
 331.353 452.608 331.353 452.608 345.039 511.202 c 128,-1,30
 358.724 569.795 358.724 569.795 375.3 620.417 c 128,-1,31
 391.876 671.04 391.876 671.04 416 707.886 c 0,32,33
 448.344 757.286 448.344 757.286 476.853 787.314 c 128,-1,34
 505.361 817.342 505.361 817.342 549.164 837.99 c 128,-1,35
 592.967 858.638 592.967 858.638 648.062 859.329 c 0,36,37
 725.614 860.302 725.614 860.302 778.6 806.479 c 128,-1,38
 831.587 752.656 831.587 752.656 833.5 676.886 c 0,39,40
 835.451 599.648 835.451 599.648 778.832 548.267 c 0,41,42
 724.487 498.949 724.487 498.949 652 496.886 c 0,42,43
 608.614 495.651 608.614 495.651 579.663 505.346 c 128,-1,44
 550.713 515.041 550.713 515.041 536.699 528.7 c 128,-1,45
 522.685 542.358 522.685 542.358 505 568.886 c 1,46,47
 411 372 411 372 378 0 c 1,0,-1
649 600.886 m 24,48,49
 680.383 600.886 680.383 600.886 703.089 622.031 c 128,-1,50
 725.794 643.176 725.794 643.176 726 673.886 c 0,51,52
 726.21 705.275 726.21 705.275 703.848 727.581 c 128,-1,53
 681.486 749.886 681.486 749.886 650 749.886 c 128,-1,54
 618.611 749.886 618.611 749.886 596.411 727.629 c 128,-1,55
 574.211 705.372 574.211 705.372 574 673.886 c 0,56,57
 573.797 643.503 573.797 643.503 595.971 622.194 c 128,-1,58
 618.145 600.886 618.145 600.886 649 600.886 c 24,48,49
EndSplineSet
Fore
398 0 m 17,0,-1
 205 0 l 1,1,-1
 148 686 l 2,2,3
 135.963 830.871 135.963 830.871 156.5 902 c 128,-1,4
 177 973 177 973 218.5 1032.5 c 128,-1,5
 260 1092 260 1092 319.5 1136.5 c 128,-1,6
 379 1181 379 1181 465.5 1206.5 c 128,-1,7
 552 1232 552 1232 656 1232 c 4,8,9
 755 1232 755 1232 838 1206.5 c 128,-1,10
 921 1181 921 1181 979 1136.5 c 128,-1,11
 1037 1092 1037 1092 1077.5 1032.5 c 128,-1,12
 1118 973 1118 973 1137.5 904 c 128,-1,13
 1157 835 1157 835 1157 689 c 2,14,-1
 1157 0 l 1,15,-1
 973 0 l 1,16,-1
 973 751 l 2,17,18
 973 823 973 823 956.5 879.5 c 128,-1,19
 940 936 940 936 904 980 c 128,-1,20
 868 1024 868 1024 806.5 1048 c 128,-1,21
 745 1072 745 1072 660 1072 c 4,22,23
 572 1072 572 1072 504 1047 c 128,-1,24
 436 1022 436 1022 395.5 977 c 128,-1,25
 355 932 355 932 338.429 879.774 c 128,-1,26
 321.857 827.549 321.857 827.549 322 745 c 2,27,-1
 323 168 l 1,28,29
 342 322 342 322 384.26 531.938 c 128,-1,30
 426.519 741.876 426.519 741.876 478 800 c 0,31,32
 540 869 540 869 641 869 c 0,33,34
 725 869 725 869 785 809 c 128,-1,35
 845 749 845 749 845 665 c 128,-1,36
 845 581 845 581 785 521 c 128,-1,37
 725 461 725 461 641 461 c 128,-1,38
 557 461 557 461 497 521 c 9,39,-1
 398 0 l 17,0,-1
569 665 m 128,-1,41
 569 635 569 635 590 614 c 128,-1,42
 611 593 611 593 641 593 c 128,-1,43
 671 593 671 593 692 614 c 128,-1,44
 713 635 713 635 713 665 c 128,-1,45
 713 695 713 695 692 716 c 128,-1,46
 671 737 671 737 641 737 c 128,-1,47
 611 737 611 737 590 716 c 128,-1,40
 569 695 569 695 569 665 c 128,-1,41
EndSplineSet
EndChar
StartChar: uni0E05
Encoding: 3589 3589 128
Width: 1340
Flags: W
HStem: 1 21G<225 408 981 1164> 451 132<612 690> 727 132<612 690>
VStem: 723 132<616 694> 981 183<1 899>
Fore
579 655 m 128,-1,1
 579 625 579 625 600 604 c 128,-1,2
 621 583 621 583 651 583 c 128,-1,3
 681 583 681 583 702 604 c 128,-1,4
 723 625 723 625 723 655 c 128,-1,5
 723 685 723 685 702 706 c 128,-1,6
 681 727 681 727 651 727 c 128,-1,7
 621 727 621 727 600 706 c 128,-1,0
 579 685 579 685 579 655 c 128,-1,1
507 511 m 1,8,9
 432 336 432 336 408 1 c 1,10,-1
 225 1 l 1,11,-1
 146 801 l 2,12,13
 136 897 136 897 173.5 987.5 c 128,-1,15
 211 1078 211 1078 291.5 1145 c 128,-1,16
 372 1212 372 1212 473 1244 c 1,17,-1
 664 1093 l 1,18,-1
 847 1244 l 1,19,20
 947 1211 947 1211 1021 1143 c 128,-1,21
 1095 1075 1095 1075 1129.5 987.5 c 128,-1,23
 1164 900 1164 900 1164 802 c 2,24,-1
 1164 1 l 1,25,-1
 981 1 l 1,26,-1
 981 786 l 2,27,28
 981 899 981 899 947 970 c 128,-1,29
 913 1041 913 1041 848 1073 c 1,30,-1
 700 959 l 1,31,-1
 633 959 l 1,32,-1
 481 1073 l 1,33,34
 404 1032 404 1032 363.5 955.5 c 128,-1,35
 323 879 323 879 330 780 c 2,36,-1
 354 448 l 1,37,38
 353 493 353 493 390.5 606.5 c 128,-1,39
 428 720 428 720 498 790 c 0,40,41
 567 859 567 859 651 859 c 128,-1,42
 735 859 735 859 795 799 c 128,-1,43
 855 739 855 739 855 655 c 128,-1,44
 855 571 855 571 795 511 c 128,-1,45
 735 451 735 451 651 451 c 256,46,47
 567 451 567 451 507 511 c 1,8,9
EndSplineSet
EndChar
StartChar: uni0E06
Encoding: 3590 3590 129
Width: 1360
Flags: W
HStem: -10 142<313 391> 276 143<313 391> 638 106.955<224.4 307.841> 894 107<241.963 310>
VStem: 52 139<780.7 910> 148 132<165 243> 343 111<776.4 858.79> 424 190<165 224 413.923 489.287> 620 182<835.2 995.877> 986 184<215 1203>
Fore
980.001 0 m 1,0,1
 814 148 814 148 614 224 c 1,2,3
 614 128.69 614 128.69 546.967 59.3452 c 128,-1,4
 479.934 -10 479.934 -10 352 -10 c 0,5,6
 268 -10 268 -10 208 50 c 128,-1,7
 148 110 148 110 148 204 c 0,8,9
 148 289.434 148 289.434 208.317 354.217 c 128,-1,10
 268.634 419 268.634 419 356 419 c 0,11,12
 397.607 420 397.607 420 424 413.923 c 9,13,-1
 424 458 l 2,14,15
 424 519 424 519 443.5 570.5 c 128,-1,16
 463 622 463 622 491.5 659 c 128,-1,17
 520 696 520 696 548 730.5 c 128,-1,18
 576 765 576 765 597 807 c 128,-1,19
 618 849 618 849 620 895 c 0,20,21
 626 1040 626 1040 542 1086 c 1,22,-1
 410 1026 l 1,23,-1
 280 1088 l 1,24,25
 208 1054 208 1054 201 987 c 1,26,-1
 274 1001 l 1,27,28
 358 1000 358 1000 405.5 944.5 c 128,-1,29
 453 889 453 889 454 816 c 0,30,31
 454 754 454 754 399.5 696.5 c 128,-1,32
 345 639 345 639 270 638 c 0,33,34
 186.073 637.02 186.073 637.02 119.036 699.219 c 128,-1,35
 52 761.418 52 761.418 52 910 c 0,36,37
 52.477 1009.08 52.477 1009.08 115.009 1101.72 c 128,-1,38
 177.54 1194.35 177.54 1194.35 296 1226 c 1,39,-1
 414 1159 l 1,40,-1
 534 1221 l 1,41,42
 616 1206 616 1206 678.5 1155 c 128,-1,43
 741 1104 741 1104 770.763 1039.11 c 132,-1,45
 800.526 974.213 800.526 974.213 802 902 c 0,46,47
 803 853 803 853 783.5 803.5 c 128,-1,48
 764 754 764 754 736 711 c 128,-1,49
 708 668 708 668 682.054 625.543 c 128,-1,50
 656.109 583.087 656.109 583.087 635.054 525.13 c 128,-1,51
 614 467.174 614 467.174 614 408 c 10,52,-1
 614 379 l 17,53,54
 818 322 818 322 986 215 c 1,55,-1
 987.707 1203.72 l 1,56,-1
 1170 1203 l 1,57,-1
 1170 0 l 1,58,-1
 980.001 0 l 1,0,1
271 894 m 24,59,60
 239 894 239 894 215.5 873 c 128,-1,61
 192 852 192 852 191 821 c 128,-1,62
 190 790 190 790 212 767.5 c 128,-1,63
 234 745 234 745 266 745 c 0,64,65
 297 744 297 744 319.5 765 c 128,-1,66
 342 786 342 786 343 818 c 0,67,68
 344 848 344 848 322.5 870.5 c 128,-1,69
 301 893 301 893 271 894 c 24,59,60
280 204 m 128,-1,71
 280 174 280 174 301 153 c 128,-1,72
 322 132 322 132 352 132 c 128,-1,73
 382 132 382 132 403 153 c 128,-1,74
 424 174 424 174 424 204 c 128,-1,75
 424 234 424 234 403 255 c 128,-1,76
 382 276 382 276 352 276 c 128,-1,77
 322 276 322 276 301 255 c 128,-1,70
 280 234 280 234 280 204 c 128,-1,71
EndSplineSet
EndChar
StartChar: uni0E07
Encoding: 3591 3591 130
Width: 1050
Flags: W
HStem: 0 21G<604 830> 804 132<551 629> 1080 132<551 629>
VStem: 386 132<969 1047> 644 186<300 807> 662 168<963 1047>
Back
586 922.902 m 24,0,1
 617.383 922.902 617.383 922.902 640.089 944.047 c 128,-1,2
 662.794 965.191 662.794 965.191 663 995.9 c 0,3,4
 663.21 1027.29 663.21 1027.29 640.849 1049.6 c 128,-1,5
 618.487 1071.9 618.487 1071.9 587 1071.9 c 128,-1,6
 555.61 1071.9 555.61 1071.9 533.411 1049.64 c 128,-1,7
 511.211 1027.39 511.211 1027.39 511 995.9 c 0,8,9
 510.796 965.52 510.796 965.52 532.971 944.211 c 128,-1,10
 555.146 922.902 555.146 922.902 586 922.902 c 24,0,1
643.821 800.898 m 9,1,-1
 644 300 l 1,19,-1
 478.423 543.827 478.423 543.827 150.83 760.902 c 1,17,18
 91.8301 640.902 l 1,16,-1
 196.207 566.968 196.207 566.968 356.346 367.257 c 128,-1,15
 516.484 167.547 516.484 167.547 614 0 c 1,13,14
 830 0 l 1,12,-1
 829.83 952.902 l 18,11,-1
 829.809 1070.6 829.809 1070.6 763.126 1136.57 c 128,-1,0
 696.443 1202.54 696.443 1202.54 607 1202.9 c 0,31,32
 506.438 1203.31 506.438 1203.31 441.401 1146.7 c 128,-1,30
 376.365 1090.09 376.365 1090.09 378 987.9 c 0,27,28
 379.416 899.415 379.416 899.415 441.267 846.892 c 128,-1,26
 503.118 794.37 503.118 794.37 582 793.902 c 0,24,25
 621.667 793.667 621.667 793.667 643.821 800.898 c 9,1,-1
EndSplineSet
Fore
518 1008 m 128,-1,1
 518 978 518 978 539 957 c 128,-1,2
 560 936 560 936 590 936 c 128,-1,3
 620 936 620 936 641 957 c 128,-1,4
 662 978 662 978 662 1008 c 128,-1,5
 662 1038 662 1038 641 1059 c 128,-1,6
 620 1080 620 1080 590 1080 c 128,-1,7
 560 1080 560 1080 539 1059 c 128,-1,0
 518 1038 518 1038 518 1008 c 128,-1,1
830 963 m 10,8,-1
 830 0 l 1,9,-1
 604 0 l 1,10,11
 452.5 252.5 452.5 252.5 330.429 401.961 c 128,-1,12
 208.359 551.422 208.359 551.422 92 641 c 1,13,-1
 151 761 l 1,14,15
 300 660 300 660 427 544 c 128,-1,16
 554 428 554 428 644 300 c 1,17,-1
 644 807 l 17,18,19
 642 804 642 804 590 804 c 0,20,21
 506 804 506 804 446 864 c 128,-1,22
 386 924 386 924 386 1008 c 128,-1,23
 386 1092 386 1092 446 1152 c 128,-1,24
 506 1212 506 1212 590 1212 c 0,25,26
 703 1212 703 1212 766.5 1139 c 128,-1,27
 830 1066 830 1066 830 963 c 10,8,-1
EndSplineSet
EndChar
StartChar: uni0E08
Encoding: 3592 3592 131
Width: 1140
Flags: MW
HStem: 0 21G<680 866> 449.06 126<350.888 431.798> 724.06 125<351.195 432.932> 1076 156<438 539.5>
VStem: 187 128.998<608.561 688.992>
Back
946 723 m 10,0,-1
 946 0 l 1,32,-1
 760 0 l 1,33,34
 720 192 720 192 667.289 337.5 c 128,-1,35
 614.578 483 614.578 483 559.5 526 c 1,36,37
 548.064 501.588 548.064 501.588 510.502 475.348 c 128,-1,38
 472.94 449.109 472.94 449.109 401 449.06 c 8,39,0
 311.202 448.998 311.202 448.998 255.23 503.388 c 128,-1,1
 199.258 557.778 199.258 557.778 197 642.06 c 0,2,3
 194.413 738.648 194.413 738.648 257.129 794.196 c 128,-1,4
 319.845 849.745 319.845 849.745 420 849.06 c 0,5,6
 494.53 849.034 494.53 849.034 548.765 811.517 c 128,-1,7
 603 774 603 774 637.036 731.685 c 128,-1,8
 671.071 689.37 671.071 689.37 710.041 618.996 c 128,-1,9
 749.011 548.623 749.011 548.623 762 492 c 1,10,-1
 762 810 l 2,25,26
 762 937 762 937 678.5 1006.5 c 128,-1,27
 595 1076 595 1076 444 1076 c 0,28,29
 348 1076 348 1076 257 1053 c 128,-1,30
 166 1030 166 1030 82 984 c 1,31,-1
 82 1154 l 1,32,33
 183 1193 183 1193 278 1212.5 c 128,-1,34
 373 1232 373 1232 463 1232 c 0,35,36
 706 1232 706 1232 826 1106 c 128,-1,37
 946 980 946 980 946 723 c 10,0,-1
401 575.06 m 24,40,41
 432.383 575.06 432.383 575.06 455.089 596.205 c 128,-1,42
 477.794 617.35 477.794 617.35 478 648.06 c 0,43,44
 478.21 679.449 478.21 679.449 455.848 701.755 c 128,-1,45
 433.486 724.06 433.486 724.06 402 724.06 c 128,-1,46
 370.611 724.06 370.611 724.06 348.411 701.803 c 128,-1,47
 326.211 679.546 326.211 679.546 326 648.06 c 0,48,49
 325.797 617.676 325.797 617.676 347.971 596.368 c 128,-1,50
 370.145 575.06 370.145 575.06 401 575.06 c 24,40,41
EndSplineSet
Fore
966 753 m 10,0,-1
 866 0 l 1,1,-1
 680 0 l 1,2,3
 663.099 173.817 663.099 173.817 632.549 295.911 c 128,-1,4
 602 418 602 418 549.5 526 c 1,5,6
 538.064 501.588 538.064 501.588 500.502 475.348 c 128,-1,7
 462.94 449.109 462.94 449.109 391 449.06 c 8,8,9
 301.202 448.998 301.202 448.998 245.23 503.388 c 128,-1,10
 189.258 557.778 189.258 557.778 187 642.06 c 0,11,12
 184.413 738.648 184.413 738.648 247.129 794.196 c 128,-1,13
 309.845 849.745 309.845 849.745 410 849.06 c 0,14,15
 491.705 849.031 491.705 849.031 552.236 804.924 c 128,-1,16
 612.767 760.816 612.767 760.816 642.539 706.551 c 128,-1,17
 672.312 652.285 672.312 652.285 703.156 546.643 c 128,-1,18
 734 441 734 441 751 326 c 1,19,-1
 782 810 l 2,20,21
 789.723 930.571 789.723 930.571 702.361 1003.29 c 128,-1,22
 615 1076 615 1076 464 1076 c 4,23,24
 368 1076 368 1076 277 1053 c 128,-1,25
 186 1030 186 1030 102 984 c 1,26,-1
 102 1154 l 1,27,28
 203 1193 203 1193 298 1212.5 c 128,-1,29
 393 1232 393 1232 483 1232 c 4,30,31
 726 1232 726 1232 859.229 1092.11 c 128,-1,32
 992.457 952.218 992.457 952.218 966 753 c 10,0,-1
391 575.06 m 24,33,34
 422.383 575.06 422.383 575.06 445.089 596.205 c 128,-1,35
 467.794 617.35 467.794 617.35 468 648.06 c 0,36,37
 468.21 679.449 468.21 679.449 445.848 701.755 c 128,-1,38
 423.486 724.06 423.486 724.06 392 724.06 c 128,-1,39
 360.611 724.06 360.611 724.06 338.411 701.803 c 128,-1,40
 316.211 679.546 316.211 679.546 316 648.06 c 0,41,42
 315.797 617.676 315.797 617.676 337.971 596.368 c 128,-1,43
 360.145 575.06 360.145 575.06 391 575.06 c 24,33,34
EndSplineSet
EndChar
StartChar: uni0E09
Encoding: 3593 3593 132
Width: 1300
Flags: MW
HStem: 0 132<964 1042> 424 132<249 327> 700 132<249 327> 1076 156<524.904 650.5>
VStem: 84 132<589 667> 342 186<207 427> 360 168<583 667> 898 184<391 975.1> 1075 132<165 243>
Fore
898 810 m 2,0,1
 898 937 898 937 814.5 1006.5 c 128,-1,2
 731 1076 731 1076 570 1076 c 0,3,4
 457.755 1076 457.755 1076 364.377 1047.5 c 128,-1,5
 271 1019 271 1019 178 964 c 1,6,-1
 178 1134 l 1,7,8
 277 1180 277 1180 368.904 1206 c 128,-1,9
 460.807 1232 460.807 1232 589 1232 c 0,10,11
 842 1232 842 1232 962 1106 c 128,-1,12
 1082 980 1082 980 1082 723 c 10,13,-1
 1082 388 l 17,14,15
 1117.52 377.476 1117.52 377.476 1147 348 c 0,16,17
 1207 288 1207 288 1207 204 c 128,-1,18
 1207 120 1207 120 1147 60 c 128,-1,19
 1087 0 1087 0 1003 0 c 128,-1,20
 919 0 919 0 859 60 c 128,-1,21
 799 120 799 120 799 204 c 1,22,23
 612.349 130 612.349 130 524 0 c 1,24,-1
 342 0 l 1,25,-1
 342 427 l 1,26,27
 340 424 340 424 288 424 c 0,28,29
 204 424 204 424 144 484 c 128,-1,30
 84 544 84 544 84 628 c 128,-1,31
 84 712 84 712 144 772 c 128,-1,32
 204 832 204 832 288 832 c 0,33,34
 401 832 401 832 464.5 759 c 128,-1,35
 528 686 528 686 528 583 c 2,36,-1
 528 207 l 1,37,38
 689.548 358 689.548 358 898 391 c 9,39,-1
 898 810 l 2,0,1
931 204 m 128,-1,41
 931 174 931 174 952 153 c 128,-1,42
 973 132 973 132 1003 132 c 128,-1,43
 1033 132 1033 132 1054 153 c 128,-1,44
 1075 174 1075 174 1075 204 c 128,-1,45
 1075 234 1075 234 1054 255 c 128,-1,46
 1033 276 1033 276 1003 276 c 128,-1,47
 973 276 973 276 952 255 c 128,-1,40
 931 234 931 234 931 204 c 128,-1,41
216 628 m 128,-1,49
 216 598 216 598 237 577 c 128,-1,50
 258 556 258 556 288 556 c 128,-1,51
 318 556 318 556 339 577 c 128,-1,52
 360 598 360 598 360 628 c 128,-1,53
 360 658 360 658 339 679 c 128,-1,54
 318 700 318 700 288 700 c 128,-1,55
 258 700 258 700 237 679 c 128,-1,48
 216 658 216 658 216 628 c 128,-1,49
EndSplineSet
EndChar
StartChar: uni0E0A
Encoding: 3594 3594 133
Width: 1260
Flags: W
HStem: 0 154<540 887.8> 761 105.956<230.4 313.636> 1085 135<379 447.7>
VStem: 348 112<899.7 983.732> 351 189<154 486.825> 536 183<841.265 978.989> 856 182<154 816.9> 968 180<1168.4 1392>
Fore
770 1024 m 1,0,1
 862 1045 862 1045 915 1132.5 c 128,-1,2
 968 1220 968 1220 968 1392 c 1,3,-1
 1148 1392 l 1,4,5
 1148 1184 1148 1184 1082.5 1084.5 c 128,-1,6
 1017 985 1017 985 940 940 c 1,7,8
 988 906 988 906 1013 849 c 128,-1,9
 1038 792 1038 792 1038 709 c 2,10,-1
 1038 196 l 6,11,12
 1038 0 1038 0 750 0 c 6,13,-1
 351 0 l 1,14,-1
 351 452 l 2,15,16
 351 513 351 513 369.5 566 c 128,-1,17
 388 619 388 619 414.5 658.5 c 128,-1,18
 441 698 441 698 468 735 c 128,-1,19
 495 772 495 772 514.304 813.987 c 128,-1,20
 533.608 855.973 533.608 855.973 536 905 c 0,21,22
 538 946 538 946 522 985.5 c 128,-1,23
 506 1025 506 1025 469.5 1054 c 128,-1,24
 433 1083 433 1083 384 1085 c 1,25,26
 422 1070 422 1070 441 1035.5 c 0,27,28
 460.987 999.208 460.987 999.208 460 938 c 0,29,30
 459 876 459 876 410.5 818.5 c 128,-1,31
 362 761 362 761 276 761 c 0,32,33
 193 761 193 761 138 814.5 c 128,-1,34
 83 868 83 868 82 948 c 0,35,36
 80 1059 80 1059 167.107 1138.55 c 128,-1,37
 254.215 1218.11 254.215 1218.11 379 1220 c 0,38,39
 445 1221 445 1221 501 1203 c 128,-1,40
 557 1185 557 1185 596.5 1154 c 128,-1,41
 636 1123 636 1123 664 1082.5 c 128,-1,42
 692 1042 692 1042 705.5 998.5 c 128,-1,43
 719 955 719 955 719 912 c 0,44,45
 719 863 719 863 700.5 812 c 128,-1,46
 682 761 682 761 656 715.5 c 128,-1,47
 630 670 630 670 603.5 623 c 128,-1,48
 577 576 577 576 558.5 518 c 128,-1,49
 540 460 540 460 540 402 c 2,50,-1
 540 154 l 1,51,-1
 750 154 l 6,52,53
 856 154 856 154 856 258 c 6,54,-1
 856 709 l 2,55,56
 856 842.872 856 842.872 770 898 c 1,57,-1
 770 1024 l 1,0,1
276 1016 m 152,-1,59
 245 1017 245 1017 221.5 995.5 c 128,-1,60
 198 974 198 974 196 943 c 0,61,62
 195 912 195 912 217.5 890 c 128,-1,63
 240 868 240 868 272 867 c 0,64,65
 303 866 303 866 325 887.5 c 128,-1,66
 347 909 347 909 348 940 c 0,67,68
 350 971 350 971 328.5 993 c 128,-1,58
 307 1015 307 1015 276 1016 c 152,-1,59
EndSplineSet
EndChar
StartChar: uni0E0B
Encoding: 3595 3595 134
Width: 1370
Flags: W
HStem: 0 154<644 999.8> 638 106.955<254.4 337.841> 894 107<271.963 340>
VStem: 82 139<780.7 910> 373 111<776.4 858.79> 454 190<154 489.691> 650 182<835.2 995.6> 968 182<122.8 780.05> 1078 180<1158.4 1382>
Fore
862 0 m 14,0,-1
 454 0 l 17,1,-1
 454 458 l 2,2,3
 454 519 454 519 473.5 570.5 c 128,-1,4
 493 622 493 622 521.5 659 c 128,-1,5
 550 696 550 696 578 730.5 c 128,-1,6
 606 765 606 765 627 807 c 128,-1,7
 648 849 648 849 650 895 c 0,8,9
 656 1040 656 1040 572 1086 c 1,10,-1
 440 1026 l 1,11,-1
 310 1088 l 1,12,13
 238 1054 238 1054 231 987 c 1,14,-1
 304 1001 l 1,15,16
 388 1000 388 1000 435.5 944.5 c 128,-1,17
 483 889 483 889 484 816 c 0,18,19
 484 754 484 754 429.5 696.5 c 128,-1,20
 375 639 375 639 300 638 c 0,21,22
 216 637 216 637 149 699 c 128,-1,23
 82 761 82 761 82 910 c 0,24,25
 82 1009 82 1009 145 1101.5 c 128,-1,26
 208 1194 208 1194 326 1226 c 1,27,-1
 444 1159 l 1,28,-1
 564 1221 l 1,29,30
 646 1206 646 1206 708.5 1155 c 128,-1,31
 771 1104 771 1104 801 1039 c 128,-1,32
 831 974 831 974 832 902 c 0,33,34
 833 853 833 853 813.5 803.5 c 128,-1,35
 794 754 794 754 766 711 c 128,-1,36
 738 668 738 668 710.5 623 c 128,-1,37
 683 578 683 578 663.5 522 c 128,-1,38
 644 466 644 466 644 408 c 2,39,-1
 644 154 l 1,40,-1
 862 154 l 6,41,42
 968 154 968 154 968 258 c 6,43,-1
 968 699 l 2,44,45
 968 806.308 968 806.308 881 888 c 1,46,-1
 881 1014 l 1,47,48
 973 1035 973 1035 1026 1122.5 c 128,-1,49
 1079 1210 1079 1210 1078 1382 c 1,50,-1
 1258 1382 l 1,51,52
 1259 1174 1259 1174 1193.5 1074.5 c 128,-1,53
 1128 975 1128 975 1052 930 c 1,54,55
 1099 896 1099 896 1123.5 839 c 0,56,57
 1150 780.05 1150 780.05 1150 699 c 2,58,-1
 1150 196 l 6,59,60
 1150 0 1150 0 862 0 c 14,0,-1
301 894 m 24,61,62
 269 894 269 894 245.5 873 c 128,-1,63
 222 852 222 852 221 821 c 128,-1,64
 220 790 220 790 242 767.5 c 128,-1,65
 264 745 264 745 296 745 c 0,66,67
 327 744 327 744 349.5 765 c 128,-1,68
 372 786 372 786 373 818 c 0,69,70
 374 848 374 848 352.5 870.5 c 128,-1,71
 331 893 331 893 301 894 c 24,61,62
EndSplineSet
EndChar
StartChar: uni0E0C
Encoding: 3596 3596 135
Width: 1800
Flags: MW
HStem: -11 122.999<911.07 999.091> -10 132<392 470> 260.999 133.441<392 470 912.203 953.262> 1072 160<653 653>
VStem: 189 185<395 566.451> 503 130<155 233> 953.262 183.738<394.44 906.564> 1430 182<216 1202.89>
Fore
1431 0 m 1,0,1
 1287 207 1287 207 1147 251 c 1,2,3
 1165.57 176.566 1165.57 176.566 1144.55 119.812 c 0,4,5
 1121.17 56.6914 1121.17 56.6914 1069.83 22.8457 c 128,-1,6
 1018.48 -11 1018.48 -11 942.5 -11 c 0,7,8
 839.156 -11 839.156 -11 786.199 53.626 c 128,-1,9
 733.241 118.252 733.241 118.252 743.5 214 c 0,10,11
 750.509 286.463 750.509 286.463 809.393 342.071 c 128,-1,12
 868.276 397.679 868.276 397.679 953.262 394.44 c 1,13,-1
 954 740 l 2,14,15
 954.356 906.564 954.356 906.564 879.178 987.776 c 128,-1,16
 804 1069 804 1069 653 1072 c 4,17,18
 549 1074 549 1074 451 1039.5 c 128,-1,19
 353 1005 353 1005 281 950 c 1,20,-1
 532 836 l 1,21,-1
 531 688 l 1,22,23
 459 660 459 660 415.929 601.404 c 128,-1,24
 372.858 542.808 372.858 542.808 374 464 c 2,25,-1
 375 395 l 1,26,27
 377 398 377 398 429 398 c 0,28,29
 513 398 513 398 573 338 c 128,-1,30
 633 278 633 278 633 194 c 128,-1,31
 633 110 633 110 573 50 c 128,-1,32
 513 -10 513 -10 429 -10 c 0,33,34
 316 -10 316 -10 252.5 63 c 128,-1,35
 189 136 189 136 189 239 c 2,36,-1
 189 465 l 2,37,38
 189 547 189 547 235 633 c 128,-1,39
 281 719 281 719 363 760 c 1,40,-1
 125 862 l 1,41,-1
 125 1056 l 17,42,43
 237 1149 237 1149 370.5 1190.5 c 128,-1,44
 504 1232 504 1232 653 1232 c 4,45,46
 865 1232 865 1232 1001 1113 c 128,-1,47
 1137 994 1137 994 1137 756 c 2,48,-1
 1137 383 l 1,49,50
 1296 351 1296 351 1430 216 c 1,51,-1
 1430.5 1202.89 l 1,52,-1
 1612 1203 l 1,53,-1
 1612 0 l 17,54,-1
 1431 0 l 1,0,1
503 194 m 128,-1,56
 503 224 503 224 482 245 c 128,-1,57
 461 266 461 266 431 266 c 128,-1,58
 401 266 401 266 380 245 c 128,-1,59
 359 224 359 224 359 194 c 128,-1,60
 359 164 359 164 380 143 c 128,-1,61
 401 122 401 122 431 122 c 128,-1,62
 461 122 461 122 482 143 c 128,-1,55
 503 164 503 164 503 194 c 128,-1,56
953.001 260.999 m 24,63,64
 921.618 260.999 921.618 260.999 898.912 239.854 c 128,-1,65
 876.207 218.708 876.207 218.708 876.001 187.999 c 0,66,67
 875.791 156.61 875.791 156.61 898.153 134.305 c 128,-1,68
 920.516 111.999 920.516 111.999 952.001 111.999 c 1,69,70
 970.884 99.2422 970.884 99.2422 999.418 127.933 c 128,-1,71
 1027.95 156.623 1027.95 156.623 1028 187.999 c 0,72,73
 1028.2 218.381 1028.2 218.381 1006.03 239.69 c 128,-1,74
 983.856 260.999 983.856 260.999 953.001 260.999 c 24,63,64
EndSplineSet
EndChar
StartChar: uni0E0D
Encoding: 3597 3597 136
Width: 1800
Flags: MW
HStem: -396 100<1215 1325.5> -138 88.0917<1068.83 1140.25> -10 132<391 469> 0 156<1106 1433> 266 132<391 469> 1072 160<642 642>
VStem: 188 185<395 566.7> 502 130<155 233> 923 183<156 971.4> 954 90<-228.404 -162.8> 1165.5 92.5<-227.05 -162.164> 1433 185<156 1204>
Fore
1106 756 m 2,0,-1
 1106 156 l 1,1,-1
 1433 156 l 1,2,-1
 1433 1204 l 1,3,-1
 1618 1204 l 1,4,-1
 1618 0 l 1,5,-1
 924 0 l 1,6,-1
 923 740 l 2,7,8
 922.759 918.27 922.759 918.27 852.88 993.635 c 132,-1,10
 783 1069 783 1069 642 1072 c 0,10,11
 547 1074 547 1074 449.5 1039.5 c 128,-1,12
 352 1005 352 1005 280 950 c 1,13,-1
 531 836 l 1,14,-1
 530 688 l 1,15,16
 458 660 458 660 415 601.5 c 128,-1,17
 371.858 542.806 371.858 542.806 373 464 c 2,18,-1
 374 395 l 1,19,20
 376 398 376 398 428 398 c 0,21,22
 512 398 512 398 572 338 c 128,-1,23
 632 278 632 278 632 194 c 128,-1,24
 632 110 632 110 572 50 c 128,-1,25
 512 -10 512 -10 428 -10 c 0,26,27
 315 -10 315 -10 251.5 63 c 128,-1,28
 188 136 188 136 188 239 c 2,29,-1
 188 465 l 2,30,31
 188 547 188 547 234 633 c 128,-1,32
 280 719 280 719 362 760 c 1,33,-1
 124 862 l 1,34,-1
 124 1056 l 17,35,36
 236 1149 236 1149 369.5 1190.5 c 128,-1,37
 503 1232 503 1232 642 1232 c 0,38,39
 844 1232 844 1232 975 1117.5 c 128,-1,40
 1106 1003 1106 1003 1106 756 c 2,0,-1
502 194 m 128,-1,42
 502 224 502 224 481 245 c 128,-1,43
 460 266 460 266 430 266 c 128,-1,44
 400 266 400 266 379 245 c 128,-1,45
 358 224 358 224 358 194 c 128,-1,46
 358 164 358 164 379 143 c 128,-1,47
 400 122 400 122 430 122 c 128,-1,48
 460 122 460 122 481 143 c 128,-1,41
 502 164 502 164 502 194 c 128,-1,42
1103.5 -251.5 m 152,-1,50
 1128 -252 1128 -252 1146.5 -236 c 128,-1,51
 1165 -220 1165 -220 1165.5 -196.5 c 128,-1,52
 1166 -173 1166 -173 1148.5 -155.5 c 128,-1,53
 1131 -138 1131 -138 1107 -138 c 0,54,55
 1082 -137 1082 -137 1063.5 -153.5 c 128,-1,56
 1045 -170 1045 -170 1044 -194 c 128,-1,57
 1043 -218 1043 -218 1061 -234.5 c 128,-1,49
 1079 -251 1079 -251 1103.5 -251.5 c 152,-1,50
1225 -396 m 0,58,59
 1073 -396 1073 -396 1013.13 -332.925 c 128,-1,60
 953.27 -269.851 953.27 -269.851 954 -190 c 0,61,62
 954.979 -131.249 954.979 -131.249 1001.99 -89.624 c 128,-1,63
 1049 -48 1049 -48 1111 -50 c 128,-1,64
 1173 -52 1173 -52 1215.5 -93.5 c 128,-1,65
 1258 -135 1258 -135 1258 -199 c 0,66,67
 1258 -266 1258 -266 1215 -296 c 1,68,69
 1300 -299 1300 -299 1398.5 -233.5 c 128,-1,70
 1497 -168 1497 -168 1559 -86 c 1,71,-1
 1592 -235 l 1,72,73
 1521 -302 1521 -302 1422 -349 c 128,-1,74
 1323 -396 1323 -396 1225 -396 c 0,58,59
EndSplineSet
Substitution2: "Single Substitution lookup 9" uni0E0D.descless
Substitution2: "Single Substitution lookup 8" uni0E0D.descless
EndChar
StartChar: uni0E0E
Encoding: 3598 3598 137
Width: 1440
Flags: MW
HStem: -410 148<566.596 658.612> -116 139<601.07 715.122> -10 132<234 312> 266 132<234 312> 1072 160<762 762>
VStem: 69 132<155 233> 326 187<394 576.2> 345 168<155 239> 389 155<-239.811 -155.5> 1062 184<-186 959.795>
AnchorPoint: "BelowBase" 1167.5 -478.5 basechar 0
Fore
637 -116 m 0,0,1
 609.362 -117 609.362 -117 576.681 -141.5 c 128,-1,2
 544 -166 544 -166 544 -201 c 0,3,4
 544 -229 544 -229 560.5 -245.5 c 128,-1,5
 577 -262 577 -262 601 -262 c 0,6,7
 645.317 -262 645.317 -262 678.357 -230.817 c 128,-1,8
 711.397 -199.634 711.397 -199.634 727 -133 c 1,9,10
 690.2 -114.6 690.2 -114.6 637 -116 c 0,0,1
513 506 m 2,11,-1
 513 239 l 2,12,13
 513 135.852 513 135.852 449.5 62.9258 c 128,-1,14
 386 -10 386 -10 273 -10 c 0,15,16
 189 -10 189 -10 129 50 c 128,-1,17
 69 110 69 110 69 194 c 128,-1,18
 69 278 69 278 129 338 c 128,-1,19
 189 398 189 398 273 398 c 0,20,21
 324 398 324 398 326 394 c 1,22,-1
 326 506 l 2,23,24
 326 591 326 591 361.5 664 c 128,-1,25
 397 737 397 737 472 760 c 1,26,-1
 233 862 l 1,27,-1
 234 1056 l 17,28,29
 346 1149 346 1149 479.5 1190.5 c 128,-1,30
 613 1232 613 1232 762 1232 c 4,31,32
 974 1232 974 1232 1110 1112.92 c 128,-1,34
 1246 993.84 1246 993.84 1246 756 c 2,35,-1
 1246 -410 l 1,36,-1
 1061 -410 l 1,37,38
 963.253 -268 963.253 -268 876 -201 c 1,39,40
 844 -304 844 -304 777 -356 c 128,-1,41
 710 -408 710 -408 604 -410 c 0,42,43
 506.201 -411.036 506.201 -411.036 447.6 -353.518 c 128,-1,44
 389 -296 389 -296 389 -217 c 0,45,46
 389 -136.905 389 -136.905 433.172 -81.0231 c 128,-1,47
 477.344 -25.1416 477.344 -25.1416 532.172 -1.07081 c 128,-1,48
 587 23 587 23 653 23 c 0,49,50
 716 23 716 23 761 9 c 1,51,-1
 779 99 l 1,52,-1
 939 42 l 1,53,-1
 917 -52 l 1,54,55
 983 -95 983 -95 1062 -186 c 1,56,-1
 1062 740 l 2,57,58
 1062 909.073 1062 909.073 987.5 989.037 c 128,-1,59
 913 1069 913 1069 762 1072 c 4,60,61
 658 1074 658 1074 560 1039.5 c 128,-1,62
 462 1005 462 1005 390 950 c 1,63,-1
 641 836 l 1,64,-1
 641 688 l 1,65,66
 564.31 654 564.31 654 538.655 607 c 128,-1,67
 513 560 513 560 513 506 c 2,11,-1
201 194 m 128,-1,69
 201 164 201 164 222 143 c 128,-1,70
 243 122 243 122 273 122 c 128,-1,71
 303 122 303 122 324 143 c 128,-1,72
 345 164 345 164 345 194 c 128,-1,73
 345 224 345 224 324 245 c 128,-1,74
 303 266 303 266 273 266 c 128,-1,75
 243 266 243 266 222 245 c 128,-1,68
 201 224 201 224 201 194 c 128,-1,69
EndSplineSet
EndChar
StartChar: uni0E0F
Encoding: 3599 3599 138
Width: 1440
Flags: MW
HStem: -410 128<484.475 569.9> -132 120<497.303 600.265> -10 132<234 312> 266 132<234 312> 1072 160<762 762>
VStem: 69 132<155 233> 326 187<394 576.2> 345 168<155 239> 1062 184<-229 909.073>
AnchorPoint: "BelowBase" 1152 -496 basechar 0
Fore
201 194 m 128,-1,1
 201 164 201 164 222 143 c 128,-1,2
 243 122 243 122 273 122 c 128,-1,3
 303 122 303 122 324 143 c 128,-1,4
 345 164 345 164 345 194 c 128,-1,5
 345 224 345 224 324 245 c 128,-1,6
 303 266 303 266 273 266 c 128,-1,7
 243 266 243 266 222 245 c 128,-1,0
 201 224 201 224 201 194 c 128,-1,1
1246 -410 m 17,8,-1
 1040 -410 l 1,9,-1
 969 -271 l 1,10,-1
 904 -410 l 1,11,-1
 810 -410 l 1,12,13
 798 -296 798 -296 740 -221 c 1,14,15
 720.959 -313.061 720.959 -313.061 662.479 -361.531 c 128,-1,16
 604 -410 604 -410 534 -410 c 0,17,18
 439 -410 439 -410 384.25 -362.99 c 128,-1,19
 329.5 -315.981 329.5 -315.981 325 -230 c 0,20,21
 321.014 -153.84 321.014 -153.84 383.007 -82.9201 c 128,-1,22
 445 -12 445 -12 561 -12 c 0,23,24
 616 -12 616 -12 655 -32 c 1,25,-1
 668 49 l 1,26,-1
 794 33 l 1,27,-1
 768 -87 l 1,28,29
 832 -126 832 -126 870 -224 c 1,30,-1
 928 -104 l 1,31,-1
 1002 -104 l 1,32,-1
 1062 -229 l 1,33,-1
 1062 740 l 2,34,35
 1062 909.073 1062 909.073 987.5 989.037 c 128,-1,36
 913 1069 913 1069 762 1072 c 4,37,38
 658 1074 658 1074 560 1039.5 c 128,-1,39
 462 1005 462 1005 390 950 c 1,40,-1
 641 836 l 1,41,-1
 641 688 l 1,42,43
 564.31 654 564.31 654 538.655 607 c 128,-1,44
 513 560 513 560 513 506 c 2,45,-1
 513 239 l 2,46,47
 513 135.852 513 135.852 449.5 62.9258 c 128,-1,48
 386 -10 386 -10 273 -10 c 0,49,50
 189 -10 189 -10 129 50 c 128,-1,51
 69 110 69 110 69 194 c 128,-1,52
 69 278 69 278 129 338 c 128,-1,53
 189 398 189 398 273 398 c 0,54,55
 324 398 324 398 326 394 c 1,56,-1
 326 506 l 2,57,58
 326 591 326 591 361.5 664 c 128,-1,59
 397 737 397 737 472 760 c 1,60,-1
 233 862 l 1,61,-1
 234 1056 l 17,62,63
 346 1149 346 1149 479.5 1190.5 c 128,-1,64
 613 1232 613 1232 762 1232 c 4,65,66
 974 1232 974 1232 1110 1112.42 c 128,-1,67
 1246 992.844 1246 992.844 1246 756 c 10,68,-1
 1246 -410 l 17,8,-1
527 -282 m 0,69,70
 560 -282 560 -282 587 -254 c 128,-1,71
 614 -226 614 -226 629 -155 c 1,72,73
 589.878 -133.176 589.878 -133.176 556 -132 c 0,74,75
 510.848 -131.019 510.848 -131.019 485.924 -159.51 c 128,-1,76
 461 -188 461 -188 462 -224 c 0,77,78
 462.573 -254.041 462.573 -254.041 480.654 -268.021 c 128,-1,79
 498.736 -282 498.736 -282 527 -282 c 0,69,70
EndSplineSet
EndChar
StartChar: uni0E10
Encoding: 3600 3600 139
Width: 1170
Flags: MW
HStem: -542 100<271.764 400> -319.946 104.946<266.44 390> -290 69<732.668 795.078> -119 75<733.297 796.378> 0 21G<683 869> 269.06 126<350.888 431.798> 544.06 125<351.194 432.932> 1062 160<662 662>
VStem: 190 126<428.561 508.992> 636 76<-201.078 -139.625> 798 162<-403 -283>
Fore
391 395.06 m 24,0,1
 422.383 395.06 422.383 395.06 445.089 416.205 c 128,-1,2
 467.794 437.35 467.794 437.35 468 468.06 c 0,3,4
 468.21 499.449 468.21 499.449 445.848 521.755 c 128,-1,5
 423.486 544.06 423.486 544.06 392 544.06 c 128,-1,6
 360.611 544.06 360.611 544.06 338.411 521.803 c 128,-1,7
 316.211 499.546 316.211 499.546 316 468.06 c 0,8,9
 315.797 437.676 315.797 437.676 337.971 416.368 c 128,-1,10
 360.145 395.06 360.145 395.06 391 395.06 c 24,0,1
976 608 m 10,11,-1
 869 0 l 1,12,-1
 683 0 l 1,13,14
 674.597 53.6533 674.597 53.6533 638.798 161.827 c 128,-1,15
 603 270 603 270 558 348 c 1,16,17
 549.214 326.714 549.214 326.714 507.577 297.912 c 128,-1,18
 465.94 269.109 465.94 269.109 394 269.06 c 8,19,20
 304.202 268.998 304.202 268.998 248.23 323.388 c 128,-1,21
 192.258 377.778 192.258 377.778 190 462.06 c 0,22,23
 187.413 558.648 187.413 558.648 250.889 614.87 c 128,-1,24
 314.364 671.091 314.364 671.091 413 669.06 c 0,25,26
 531 667 531 667 621 557 c 128,-1,27
 711 447 711 447 744 286 c 1,28,-1
 790 565.917 l 2,29,30
 811.269 695.343 811.269 695.343 642 722 c 10,31,-1
 134 802 l 17,32,-1
 134 1046 l 17,33,34
 247 1139 247 1139 380.5 1180.5 c 128,-1,35
 514 1222 514 1222 662 1222 c 4,36,37
 763.56 1222 763.56 1222 851.583 1193.63 c 128,-1,38
 939.607 1165.26 939.607 1165.26 1003.17 1111.08 c 128,-1,39
 1066.74 1056.9 1066.74 1056.9 1096.57 999.32 c 9,40,-1
 945.086 886.666 l 17,41,42
 935.388 928.71 935.388 928.71 892.259 975.002 c 128,-1,43
 849.13 1021.29 849.13 1021.29 791.163 1040.94 c 128,-1,44
 733.197 1060.59 733.197 1060.59 662 1062 c 4,45,46
 559 1064 559 1064 461 1029.5 c 128,-1,47
 363 995 363 995 291 940 c 9,48,-1
 712 878 l 18,49,50
 1015.65 833.282 1015.65 833.282 976 608 c 10,11,-1
798 -403 m 1,51,-1
 798 -283 l 1,52,53
 786 -290 786 -290 753 -290 c 0,54,55
 707 -290 707 -290 672.5 -257.5 c 128,-1,56
 638 -225 638 -225 636 -172 c 0,57,58
 634 -124 634 -124 671.5 -83.5 c 128,-1,59
 709 -43 709 -43 778 -44 c 0,60,61
 863 -45 863 -45 911.5 -103 c 128,-1,62
 960 -161 960 -161 960 -237 c 2,63,-1
 960 -540 l 1,64,-1
 780 -540 l 1,65,66
 740 -482 740 -482 700 -451 c 1,67,68
 661 -483 661 -483 625 -538 c 1,69,-1
 559 -538 l 1,70,71
 552 -476 552 -476 502 -419 c 1,72,73
 474.851 -475.762 474.851 -475.762 426.926 -508.881 c 128,-1,74
 379 -542 379 -542 309 -542 c 0,75,76
 237.976 -542 237.976 -542 182.488 -501.25 c 128,-1,77
 127 -460.5 127 -460.5 127 -390 c 0,78,79
 127 -324.981 127 -324.981 177.785 -268.892 c 128,-1,80
 228.57 -212.804 228.57 -212.804 324 -215 c 0,81,82
 403 -216 403 -216 451 -255 c 1,83,-1
 478 -184 l 1,84,-1
 570 -252 l 1,85,-1
 540 -318 l 1,86,87
 582 -352 582 -352 600 -406 c 1,88,89
 640 -352 640 -352 700 -320 c 1,90,91
 746.56 -347 746.56 -347 798 -403 c 1,51,-1
766 -119 m 24,92,93
 744 -119 744 -119 728 -134 c 128,-1,94
 712 -149 712 -149 712 -170 c 128,-1,95
 712 -191 712 -191 727.5 -206 c 128,-1,96
 743 -221 743 -221 764 -221 c 128,-1,97
 785 -221 785 -221 800 -205.5 c 128,-1,98
 815 -190 815 -190 815 -169 c 128,-1,99
 815 -148 815 -148 800.5 -133.5 c 128,-1,100
 786 -119 786 -119 766 -119 c 24,92,93
245 -394 m 0,101,102
 246.715 -416.245 246.715 -416.245 267.604 -429.276 c 128,-1,103
 288.493 -442.307 288.493 -442.307 311 -442 c 0,104,105
 380.151 -441 380.151 -441 417 -355 c 1,106,107
 375 -321 375 -321 325 -320 c 0,108,109
 279.954 -318.862 279.954 -318.862 261.058 -341.528 c 128,-1,110
 242.163 -364.193 242.163 -364.193 245 -394 c 0,101,102
EndSplineSet
Substitution2: "Single Substitution lookup 9" uni0E10.descless
Substitution2: "Single Substitution lookup 8" uni0E10.descless
EndChar
StartChar: uni0E11
Encoding: 3601 3601 140
Width: 1560
Flags: W
HStem: 0 21G<424 607 1178 1361> 638 106.488<224.55 306.79> 893.5 107.5<241.963 310.3> 1060 162<1078.57 1194.8>
VStem: 52 139<780.7 910> 343 111<776.7 858.841> 424 190<242.684 490.632> 620 182<835.2 995.877> 1178 183<0 1082.62>
Fore
1045 1007 m 0,0,1
 974.053 892.457 974.053 892.457 908.527 558.729 c 128,-1,2
 843 225 843 225 607 0 c 9,3,-1
 424 0 l 1,4,-1
 424 458 l 2,5,6
 424 519 424 519 443.5 570.5 c 128,-1,7
 463 622 463 622 491.5 659 c 128,-1,8
 520 696 520 696 548 730.5 c 128,-1,9
 576 765 576 765 597 807 c 128,-1,10
 618 849 618 849 620 895 c 0,11,12
 626 1040 626 1040 542 1086 c 1,13,-1
 410 1026 l 1,14,-1
 280 1088 l 1,15,16
 208 1054 208 1054 201 987 c 1,17,-1
 274 1001 l 1,18,19
 358 1000 358 1000 405.5 944.5 c 128,-1,20
 453 889 453 889 454 816 c 0,21,22
 454 754 454 754 399.5 696.5 c 128,-1,23
 345 639 345 639 270 638 c 0,24,25
 186.073 637.02 186.073 637.02 119.036 699.219 c 128,-1,26
 52 761.418 52 761.418 52 910 c 0,27,28
 52.477 1009.08 52.477 1009.08 115.009 1101.72 c 128,-1,29
 177.54 1194.35 177.54 1194.35 296 1226 c 1,30,-1
 414 1159 l 1,31,-1
 534 1221 l 1,32,33
 616 1206 616 1206 678.5 1155 c 128,-1,34
 741 1104 741 1104 770.763 1039.11 c 128,-1,35
 800.526 974.213 800.526 974.213 802 902 c 0,36,37
 803 853 803 853 783.5 803.5 c 128,-1,38
 764 754 764 754 736 711 c 128,-1,39
 708 668 708 668 680.5 623 c 128,-1,40
 653 578 653 578 633.5 522.561 c 128,-1,41
 614 467.121 614 467.121 614 408 c 2,42,-1
 614 242.684 l 17,43,44
 753 393 753 393 809.172 662.334 c 136,-1,45
 865.344 931.669 865.344 931.669 921 1050 c 0,46,47
 950.82 1114.32 950.82 1114.32 999.367 1168.16 c 128,-1,48
 1047.91 1222 1047.91 1222 1152 1222 c 0,49,50
 1244.81 1222 1244.81 1222 1302.95 1157.57 c 128,-1,51
 1361 1093.25 1361 1093.25 1361 997 c 2,52,-1
 1361 0 l 1,53,-1
 1178 0 l 1,54,-1
 1178 980 l 10,55,56
 1178 1058.94 1178 1058.94 1122 1060 c 0,57,58
 1094.04 1060.4 1094.04 1060.4 1078.03 1047.45 c 128,-1,59
 1062.03 1034.5 1062.03 1034.5 1045 1007 c 0,0,1
270 893.5 m 152,-1,61
 239 894 239 894 215.5 873 c 128,-1,62
 192 852 192 852 191 821 c 128,-1,63
 190 790 190 790 212 767.5 c 128,-1,64
 234 745 234 745 265.5 744.5 c 128,-1,65
 297 744 297 744 319.5 765 c 128,-1,66
 342 786 342 786 343 817 c 128,-1,67
 344 848 344 848 322.5 870.5 c 128,-1,60
 301 893 301 893 270 893.5 c 152,-1,61
EndSplineSet
EndChar
StartChar: uni0E12
Encoding: 3602 3602 141
Width: 1790
Flags: W
HStem: -10 132<913 991> 713 132<585 663> 1183 20G<1418 1598>
VStem: 420 132<602 680> 696 132<602 680> 748 132<155 233> 952 183<398.44 907.429> 1418 180<216 1203>
Fore
1135 367 m 1,0,-1
 1135 778.78 l 2,1,2
 1135 877.741 1135 877.741 1099.82 966.125 c 128,-1,3
 1064.64 1054.51 1064.64 1054.51 990.606 1122.65 c 128,-1,4
 916.572 1190.79 916.572 1190.79 817 1223.77 c 1,5,-1
 633.854 1072.59 l 1,6,-1
 443.464 1223.87 l 1,7,8
 341.751 1191.74 341.751 1191.74 261.132 1125.07 c 128,-1,9
 180.513 1058.39 180.513 1058.39 143.713 968.374 c 128,-1,10
 106.914 878.356 106.914 878.356 117 777.779 c 2,11,-1
 195 0 l 1,12,-1
 378 0 l 1,13,14
 587.79 180.652 587.79 180.652 707.895 340.869 c 128,-1,15
 828 501.086 828 501.086 828 641 c 0,16,17
 828 725 828 725 768 785 c 128,-1,18
 708 845 708 845 624 845 c 128,-1,19
 540 845 540 845 480 785 c 128,-1,20
 420 725 420 725 420 641 c 128,-1,21
 420 557 420 557 477.5 499.5 c 128,-1,22
 535 442 535 442 624 442 c 1,23,24
 580 380 580 380 505.796 318.406 c 128,-1,25
 431.592 256.811 431.592 256.811 356.999 220 c 1,26,-1
 301 756.78 l 2,27,28
 290.731 855.211 290.731 855.211 332.132 933.513 c 128,-1,29
 373.534 1011.82 373.534 1011.82 451.107 1052.99 c 1,30,-1
 602.854 938.592 l 1,31,-1
 669.854 938.592 l 1,32,-1
 817.852 1053.09 l 1,33,34
 882.647 1021.09 882.647 1021.09 917.282 949.105 c 128,-1,35
 951.918 877.061 951.918 877.061 952 762.78 c 2,36,-1
 952.262 398.44 l 1,37,38
 868 398 868 398 808 338 c 128,-1,39
 748 278 748 278 748 194 c 128,-1,40
 748 110 748 110 808 50 c 128,-1,41
 868 -10 868 -10 952 -10 c 128,-1,42
 1036 -10 1036 -10 1096 50 c 128,-1,43
 1156 110 1156 110 1156 194 c 1,44,45
 1296 156 1296 156 1420 0 c 1,46,-1
 1598 0 l 1,47,-1
 1598 1203 l 1,48,-1
 1418 1203 l 1,49,-1
 1418 216 l 1,50,51
 1294 324 1294 324 1135 367 c 1,0,-1
880 194 m 128,-1,53
 880 224 880 224 901 245 c 128,-1,54
 922 266 922 266 952 266 c 128,-1,55
 982 266 982 266 1003 245 c 128,-1,56
 1024 224 1024 224 1024 194 c 128,-1,57
 1024 164 1024 164 1003 143 c 128,-1,58
 982 122 982 122 952 122 c 128,-1,59
 922 122 922 122 901 143 c 128,-1,52
 880 164 880 164 880 194 c 128,-1,53
552 641 m 128,-1,61
 552 671 552 671 573 692 c 128,-1,62
 594 713 594 713 624 713 c 128,-1,63
 654 713 654 713 675 692 c 128,-1,64
 696 671 696 671 696 641 c 128,-1,65
 696 611 696 611 675 590 c 128,-1,66
 654 569 654 569 624 569 c 128,-1,67
 594 569 594 569 573 590 c 128,-1,60
 552 611 552 611 552 641 c 128,-1,61
EndSplineSet
EndChar
StartChar: uni0E13
Encoding: 3603 3603 142
Width: 1850
Flags: MW
HStem: -10 132<392 470 1535 1613> 266 132<392 470> 1072 160<673 673>
VStem: 189 185<395 566.448> 503 130<155 233> 924 183<216 974.144> 1443 181<398 1202> 1646 132<155 233>
Fore
1107 756 m 2,0,-1
 1107 216 l 1,1,2
 1241 324 1241 324 1443 387 c 1,3,-1
 1443 1202 l 1,4,-1
 1624 1202 l 1,5,-1
 1624 398 l 1,6,7
 1668 398 1668 398 1723 338 c 128,-1,9
 1778 278 1778 278 1778 194 c 128,-1,10
 1778 110 1778 110 1718 50 c 128,-1,11
 1658 -10 1658 -10 1574 -10 c 128,-1,12
 1490 -10 1490 -10 1430 50 c 128,-1,13
 1370 110 1370 110 1370 204 c 1,14,15
 1237.89 166 1237.89 166 1105 0 c 1,16,-1
 924 0 l 1,17,-1
 924 740 l 2,18,19
 924 920.111 924 920.111 853 995.056 c 128,-1,20
 782 1070 782 1070 673 1072 c 4,21,22
 544.477 1074.09 544.477 1074.09 448.739 1039.54 c 128,-1,23
 353 1005 353 1005 281 950 c 1,24,-1
 532 836 l 1,25,-1
 531 688 l 1,26,27
 459 660 459 660 416 601.5 c 128,-1,28
 372.858 542.806 372.858 542.806 374 464 c 2,29,-1
 375 395 l 1,30,31
 377 398 377 398 429 398 c 0,32,33
 513 398 513 398 573 338 c 128,-1,34
 633 278 633 278 633 194 c 128,-1,35
 633 110 633 110 573 50 c 128,-1,36
 513 -10 513 -10 429 -10 c 0,37,38
 316 -10 316 -10 252.5 63 c 128,-1,39
 189 136 189 136 189 239 c 2,40,-1
 189 465 l 2,41,42
 189 547 189 547 235 633 c 128,-1,43
 281 719 281 719 363 760 c 1,44,-1
 125 862 l 1,45,-1
 125 1056 l 17,46,47
 237 1149 237 1149 370.5 1190.5 c 128,-1,48
 504 1232 504 1232 673 1232 c 4,49,50
 845 1232 845 1232 976 1117.5 c 128,-1,51
 1107 1003 1107 1003 1107 756 c 2,0,-1
503 194 m 128,-1,53
 503 224 503 224 482 245 c 128,-1,54
 461 266 461 266 431 266 c 128,-1,55
 401 266 401 266 380 245 c 128,-1,56
 359 224 359 224 359 194 c 128,-1,57
 359 164 359 164 380 143 c 128,-1,58
 401 122 401 122 431 122 c 128,-1,59
 461 122 461 122 482 143 c 128,-1,52
 503 164 503 164 503 194 c 128,-1,53
1646 194 m 128,-1,61
 1646 224 1646 224 1625 245 c 128,-1,62
 1604 266 1604 266 1574 266 c 128,-1,63
 1544 266 1544 266 1523 245 c 128,-1,64
 1502 224 1502 224 1502 194 c 128,-1,65
 1502 164 1502 164 1523 143 c 128,-1,66
 1544 122 1544 122 1574 122 c 128,-1,67
 1604 122 1604 122 1625 143 c 128,-1,60
 1646 164 1646 164 1646 194 c 128,-1,61
EndSplineSet
EndChar
StartChar: uni0E14
Encoding: 3604 3604 143
Width: 1330
Flags: MW
HStem: 0 21G<215 398 973 1157> 721 132<607 685> 1072 160<616 702.5>
VStem: 442 132<610 688> 718 132<610 688> 973 184<0 857.593>
Fore
377 177 m 1,0,1
 500 276 500 276 646 450 c 1,2,3
 557 450 557 450 499.5 507.5 c 128,-1,4
 442 565 442 565 442 649 c 128,-1,5
 442 733 442 733 502 793 c 128,-1,6
 562 853 562 853 646 853 c 128,-1,7
 730 853 730 853 790 793 c 128,-1,8
 850 733 850 733 850 649 c 0,9,10
 850 529.478 850 529.478 796 448 c 0,11,12
 630.905 198.897 630.905 198.897 398 0 c 1,13,-1
 215 0 l 1,14,-1
 148 686 l 2,15,16
 134.245 826.837 134.245 826.837 155.622 899.918 c 132,-1,18
 177 973 177 973 218.5 1032.5 c 128,-1,19
 260 1092 260 1092 319.5 1136.5 c 128,-1,20
 379 1181 379 1181 465.5 1206.5 c 128,-1,21
 552 1232 552 1232 656 1232 c 0,22,23
 755 1232 755 1232 838 1206.5 c 128,-1,24
 921 1181 921 1181 979 1136.5 c 128,-1,25
 1037 1092 1037 1092 1077.5 1032.5 c 128,-1,26
 1118 973 1118 973 1137.5 904 c 128,-1,27
 1157 835 1157 835 1157 689 c 2,28,-1
 1157 0 l 1,29,-1
 973 0 l 1,30,-1
 973 751 l 2,31,32
 973 823 973 823 956.5 879.5 c 128,-1,33
 940 936 940 936 904 980 c 128,-1,34
 868 1024 868 1024 806.5 1048 c 128,-1,35
 745 1072 745 1072 660 1072 c 0,36,37
 572 1072 572 1072 504 1047 c 128,-1,38
 436 1022 436 1022 395.5 977 c 128,-1,39
 355 932 355 932 335.424 870.261 c 132,-1,41
 315.849 808.523 315.849 808.523 322 745 c 2,42,-1
 377 177 l 1,0,1
574 649 m 128,-1,44
 574 619 574 619 595 598 c 128,-1,45
 616 577 616 577 646 577 c 128,-1,46
 676 577 676 577 697 598 c 128,-1,47
 718 619 718 619 718 649 c 128,-1,48
 718 679 718 679 697 700 c 128,-1,49
 676 721 676 721 646 721 c 128,-1,50
 616 721 616 721 595 700 c 128,-1,43
 574 679 574 679 574 649 c 128,-1,44
EndSplineSet
EndChar
StartChar: uni0E15
Encoding: 3605 3605 144
Width: 1340
Flags: W
HStem: 1 21G<981 1164> 731 132<617 695>
VStem: 452 132<620 698> 728 132<620 698> 981 183<1 899>
Fore
387 177 m 5,0,1
 485 276 485 276 656 460 c 5,2,3
 567 460 567 460 509.5 517.5 c 132,-1,4
 452 575 452 575 452 659 c 132,-1,5
 452 743 452 743 512 803 c 132,-1,6
 572 863 572 863 656 863 c 132,-1,7
 740 863 740 863 800 803 c 132,-1,8
 860 743 860 743 860 659 c 4,9,10
 860 540 860 540 806 458 c 4,11,12
 626 186 626 186 408 0 c 5,13,-1
 225 1 l 5,14,-1
 146 801 l 6,15,16
 136 897 136 897 173.5 987.5 c 132,-1,17
 211 1078 211 1078 291.5 1145 c 132,-1,18
 372 1212 372 1212 473 1244 c 5,19,-1
 664 1093 l 5,20,-1
 847 1244 l 5,21,22
 947 1211 947 1211 1021 1143 c 132,-1,23
 1095 1075 1095 1075 1129.5 987.5 c 132,-1,24
 1164 900 1164 900 1164 802 c 6,25,-1
 1164 1 l 5,26,-1
 981 1 l 5,27,-1
 981 786 l 6,28,29
 981 899 981 899 947 970 c 132,-1,30
 913 1041 913 1041 848 1073 c 5,31,-1
 700 959 l 5,32,-1
 633 959 l 5,33,-1
 481 1073 l 5,34,35
 404 1032 404 1032 362.5 953.5 c 132,-1,36
 321 875 321 875 330 780 c 6,37,-1
 387 177 l 5,0,1
584 659 m 132,-1,39
 584 629 584 629 605 608 c 132,-1,40
 626 587 626 587 656 587 c 132,-1,41
 686 587 686 587 707 608 c 132,-1,42
 728 629 728 629 728 659 c 132,-1,43
 728 689 728 689 707 710 c 132,-1,44
 686 731 686 731 656 731 c 132,-1,45
 626 731 626 731 605 710 c 132,-1,38
 584 689 584 689 584 659 c 132,-1,39
EndSplineSet
EndChar
StartChar: uni0E16
Encoding: 3606 3606 145
Width: 1340
Flags: MW
HStem: -10 132<403 481> 266 132<403 481> 1072 160<666 666>
VStem: 202 168<155 239> 202 185<395 566.45> 514 132<155 233> 967 183<0 958.4>
Fore
514 194 m 128,-1,1
 514 224 514 224 493 245 c 128,-1,2
 472 266 472 266 442 266 c 128,-1,3
 412 266 412 266 391 245 c 128,-1,4
 370 224 370 224 370 194 c 128,-1,5
 370 164 370 164 391 143 c 128,-1,6
 412 122 412 122 442 122 c 128,-1,7
 472 122 472 122 493 143 c 128,-1,0
 514 164 514 164 514 194 c 128,-1,1
967 740 m 2,8,9
 966 908 966 908 891.5 988.5 c 128,-1,10
 817 1069 817 1069 666 1072 c 4,11,12
 562 1074 562 1074 464 1039.5 c 128,-1,13
 366 1005 366 1005 294 950 c 1,14,-1
 545 836 l 1,15,-1
 544 688 l 1,16,17
 472 660 472 660 428.929 601.404 c 128,-1,18
 385.858 542.808 385.858 542.808 387 464 c 2,19,-1
 388 395 l 1,20,21
 390 398 390 398 442 398 c 0,22,23
 526 398 526 398 586 338 c 128,-1,24
 646 278 646 278 646 194 c 128,-1,25
 646 110 646 110 586 50 c 128,-1,26
 526 -10 526 -10 442 -10 c 0,27,28
 329 -10 329 -10 265.5 63 c 128,-1,29
 202 136 202 136 202 239 c 2,30,-1
 202 465 l 2,31,32
 202 547 202 547 248 633 c 128,-1,33
 294 719 294 719 376 760 c 1,34,-1
 138 862 l 1,35,-1
 138 1056 l 17,36,37
 250 1149 250 1149 383.5 1190.5 c 128,-1,38
 517 1232 517 1232 666 1232 c 4,39,40
 878 1232 878 1232 1014 1113 c 128,-1,41
 1150 994 1150 994 1150 756 c 2,42,-1
 1150 0 l 17,43,-1
 968 0 l 1,44,-1
 967 740 l 2,8,9
EndSplineSet
EndChar
StartChar: uni0E17
Encoding: 3607 3607 146
Width: 1420
Flags: W
HStem: 0 21G<345 525 1040 1223> 804 132<251 329> 1070 152<859.9 1065.2> 1080 132<251 329>
VStem: 86 132<969 1047> 362 168<963 1047> 1040 183<0 1102.7>
Fore
218 1008 m 128,-1,1
 218 978 218 978 239 957 c 128,-1,2
 260 936 260 936 290 936 c 128,-1,3
 320 936 320 936 341 957 c 128,-1,4
 362 978 362 978 362 1008 c 128,-1,5
 362 1038 362 1038 341 1059 c 128,-1,6
 320 1080 320 1080 290 1080 c 128,-1,7
 260 1080 260 1080 239 1059 c 128,-1,0
 218 1038 218 1038 218 1008 c 128,-1,1
344 807 m 17,8,9
 342 804 342 804 290 804 c 0,10,11
 206 804 206 804 146 864 c 128,-1,12
 86 924 86 924 86 1008 c 128,-1,13
 86 1092 86 1092 146 1152 c 128,-1,14
 206 1212 206 1212 290 1212 c 0,15,16
 403 1212 403 1212 466 1139 c 0,17,18
 530 1064.78 530 1064.78 530 963 c 10,19,-1
 530 454 l 1,20,21
 626.87 824.689 626.87 824.689 719 1033 c 0,22,23
 756.232 1117.18 756.232 1117.18 822.616 1169.59 c 128,-1,24
 889 1222 889 1222 986 1222 c 0,25,26
 1082 1222 1082 1222 1152.5 1153 c 128,-1,27
 1223 1083.88 1223 1083.88 1223 988 c 2,28,-1
 1223 0 l 1,29,-1
 1040 0 l 1,30,-1
 1040 961 l 2,31,32
 1040 1070 1040 1070 956 1070 c 0,33,34
 875.962 1070 875.962 1070 842 988 c 0,35,36
 690 624 690 624 525 0 c 1,37,-1
 345 0 l 25,38,-1
 344 807 l 17,8,9
EndSplineSet
EndChar
StartChar: uni0E18
Encoding: 3608 3608 147
Width: 1200
Flags: MW
HStem: 0 154<407 852.8> 1062 160<662 662>
VStem: 228 179<154 673.915> 821 182<154 712.83>
Fore
1003 588 m 18,0,1
 1003 811 1003 811 743 858 c 10,2,-1
 291 940 l 17,3,4
 363 995 363 995 461 1029.5 c 128,-1,5
 559 1064 559 1064 662 1062 c 4,6,7
 733 1061 733 1061 791 1041 c 128,-1,8
 849 1021 849 1021 892 975 c 128,-1,9
 935 929 935 929 945 887 c 9,10,-1
 1097 999 l 17,11,12
 1067 1057 1067 1057 1003.5 1111 c 128,-1,13
 940 1165 940 1165 852 1193.5 c 128,-1,14
 764 1222 764 1222 662 1222 c 4,15,16
 514 1222 514 1222 380.5 1180.5 c 128,-1,17
 247 1139 247 1139 134 1046 c 9,18,-1
 134 802 l 9,19,-1
 673 702 l 18,20,21
 821 675 821 675 821 547 c 2,22,-1
 821 258 l 2,23,24
 821 154 821 154 715 154 c 2,25,-1
 407 154 l 1,26,-1
 407 674 l 1,27,-1
 228 674 l 1,28,-1
 228 0 l 9,29,-1
 715 0 l 18,30,31
 1003 0 1003 0 1003 196 c 2,32,-1
 1003 588 l 18,0,1
EndSplineSet
EndChar
StartChar: uni0E19
Encoding: 3609 3609 148
Width: 1430
Flags: W
HStem: -20 132<1085 1163> 804 132<245 323> 1080 132<245 323>
VStem: 80 132<969 1047> 338 186<171 807> 356 168<963 1047> 983 181<379 1202> 1196 132<145 223>
Fore
212 1008 m 128,-1,1
 212 978 212 978 233 957 c 128,-1,2
 254 936 254 936 284 936 c 128,-1,3
 314 936 314 936 335 957 c 128,-1,4
 356 978 356 978 356 1008 c 128,-1,5
 356 1038 356 1038 335 1059 c 128,-1,6
 314 1080 314 1080 284 1080 c 128,-1,7
 254 1080 254 1080 233 1059 c 128,-1,0
 212 1038 212 1038 212 1008 c 128,-1,1
338 807 m 1,8,9
 336 804 336 804 284 804 c 0,10,11
 200 804 200 804 140 864 c 128,-1,12
 80 924 80 924 80 1008 c 128,-1,13
 80 1092 80 1092 140 1152 c 128,-1,14
 200 1212 200 1212 284 1212 c 0,15,16
 397 1212 397 1212 460.5 1138.93 c 128,-1,17
 524 1065.87 524 1065.87 524 963 c 2,18,-1
 524 171 l 1,19,20
 698.985 309 698.985 309 983 374 c 1,21,-1
 983 1202 l 1,22,-1
 1164 1202 l 1,23,-1
 1164 379 l 1,24,25
 1217.73 378 1217.73 378 1272.87 323 c 128,-1,26
 1328 268 1328 268 1328 184 c 128,-1,27
 1328 100 1328 100 1268 40 c 128,-1,28
 1208 -20 1208 -20 1124 -20 c 128,-1,29
 1040 -20 1040 -20 980 40 c 128,-1,30
 920 100 920 100 920 194 c 1,31,32
 764.578 164 764.578 164 521 0 c 1,33,-1
 338 0 l 1,34,-1
 338 807 l 1,8,9
1052 184 m 128,-1,36
 1052 154 1052 154 1073 133 c 128,-1,37
 1094 112 1094 112 1124 112 c 128,-1,38
 1154 112 1154 112 1175 133 c 128,-1,39
 1196 154 1196 154 1196 184 c 128,-1,40
 1196 214 1196 214 1175 235 c 128,-1,41
 1154 256 1154 256 1124 256 c 128,-1,42
 1094 256 1094 256 1073 235 c 128,-1,35
 1052 214 1052 214 1052 184 c 128,-1,36
EndSplineSet
EndChar
StartChar: uni0E1A
Encoding: 3610 3610 149
Width: 1400
Flags: W
HStem: 0 154<524 1032> 804 132<245 323> 1080 132<245 323>
VStem: 80 132<969 1047> 338 186<154 807> 356 168<963 1047> 1032 182<154 1202>
Fore
212 1008 m 132,-1,1
 212 978 212 978 233 957 c 132,-1,2
 254 936 254 936 284 936 c 132,-1,3
 314 936 314 936 335 957 c 132,-1,4
 356 978 356 978 356 1008 c 132,-1,5
 356 1038 356 1038 335 1059 c 132,-1,6
 314 1080 314 1080 284 1080 c 132,-1,7
 254 1080 254 1080 233 1059 c 132,-1,0
 212 1038 212 1038 212 1008 c 132,-1,1
338 0 m 5,8,-1
 338 807 l 5,9,10
 336 804 336 804 284 804 c 4,11,12
 200 804 200 804 140 864 c 132,-1,13
 80 924 80 924 80 1008 c 132,-1,14
 80 1092 80 1092 140 1152 c 132,-1,15
 200 1212 200 1212 284 1212 c 4,16,17
 397 1212 397 1212 460.5 1139 c 132,-1,18
 524 1066 524 1066 524 963 c 6,19,-1
 524 154 l 5,20,-1
 1032 154 l 5,21,-1
 1032 1202 l 5,22,-1
 1214 1202 l 5,23,-1
 1214 0 l 5,24,-1
 338 0 l 5,8,-1
EndSplineSet
EndChar
StartChar: uni0E1B
Encoding: 3611 3611 150
Width: 1400
Flags: W
HStem: 0 154<524 1032> 804 132<245 323> 1080 132<245 323>
VStem: 80 132<969 1047> 338 186<154 807> 356 168<963 1047> 1032 182<154 1638>
AnchorPoint: "AboveBase" 942 1344 basechar 0
Fore
212 1008 m 132,-1,1
 212 978 212 978 233 957 c 132,-1,2
 254 936 254 936 284 936 c 132,-1,3
 314 936 314 936 335 957 c 132,-1,4
 356 978 356 978 356 1008 c 132,-1,5
 356 1038 356 1038 335 1059 c 132,-1,6
 314 1080 314 1080 284 1080 c 132,-1,7
 254 1080 254 1080 233 1059 c 132,-1,0
 212 1038 212 1038 212 1008 c 132,-1,1
338 0 m 5,8,-1
 338 807 l 5,9,10
 336 804 336 804 284 804 c 4,11,12
 200 804 200 804 140 864 c 132,-1,13
 80 924 80 924 80 1008 c 132,-1,14
 80 1092 80 1092 140 1152 c 132,-1,15
 200 1212 200 1212 284 1212 c 4,16,17
 397 1212 397 1212 460.5 1139 c 132,-1,18
 524 1066 524 1066 524 963 c 6,19,-1
 524 154 l 5,20,-1
 1032 154 l 5,21,-1
 1032 1638 l 5,22,-1
 1214 1638 l 5,23,-1
 1214 0 l 5,24,-1
 338 0 l 5,8,-1
EndSplineSet
EndChar
StartChar: uni0E1C
Encoding: 3612 3612 151
Width: 1350
Flags: W
HStem: 0 21G<176 367 956 1160> 804 132<377 455> 1080 132<377 455>
VStem: 175.958 187.042<299.009 807> 488 132<969 1047> 977 183<303 1202>
Fore
488 1008 m 128,-1,1
 488 1038 488 1038 467 1059 c 128,-1,2
 446 1080 446 1080 416 1080 c 128,-1,3
 386 1080 386 1080 365 1059 c 128,-1,4
 344 1038 344 1038 344 1008 c 128,-1,5
 344 978 344 978 365 957 c 128,-1,6
 386 936 386 936 416 936 c 128,-1,7
 446 936 446 936 467 957 c 128,-1,0
 488 978 488 978 488 1008 c 128,-1,1
363 807 m 1,8,-1
 362.096 299.009 l 1,9,-1
 581 704 l 1,10,-1
 755 704 l 1,11,-1
 977 303 l 1,12,-1
 977 1202 l 1,13,-1
 1160 1202 l 1,14,-1
 1160 0 l 1,15,-1
 956 0 l 1,16,-1
 662 542 l 1,17,-1
 367 0 l 1,18,-1
 176 0 l 1,19,-1
 175.958 963 l 2,20,21
 175.954 1065.84 175.954 1065.84 239.5 1139 c 128,-1,22
 303 1212 303 1212 416 1212 c 0,23,24
 500 1212 500 1212 560 1152 c 128,-1,25
 620 1092 620 1092 620 1008 c 128,-1,26
 620 924 620 924 560 864 c 128,-1,27
 500 804 500 804 416 804 c 0,28,29
 365 804 365 804 363 807 c 1,8,-1
EndSplineSet
EndChar
StartChar: uni0E1D
Encoding: 3613 3613 152
Width: 1350
Flags: W
HStem: 0 21G<176 367 956 1160> 804 132<377 455> 1080 132<377 455>
VStem: 175.958 187.042<299.009 807> 488 132<969 1047> 977 183<303 1638>
AnchorPoint: "AboveBase" 900 1340 basechar 0
Fore
488 1008 m 128,-1,1
 488 1038 488 1038 467 1059 c 128,-1,2
 446 1080 446 1080 416 1080 c 128,-1,3
 386 1080 386 1080 365 1059 c 128,-1,4
 344 1038 344 1038 344 1008 c 128,-1,5
 344 978 344 978 365 957 c 128,-1,6
 386 936 386 936 416 936 c 128,-1,7
 446 936 446 936 467 957 c 128,-1,0
 488 978 488 978 488 1008 c 128,-1,1
363 807 m 1,8,-1
 362.096 299.009 l 1,9,-1
 581 704 l 1,10,-1
 755 704 l 1,11,-1
 977 303 l 1,12,-1
 977 1638 l 1,13,-1
 1160 1638 l 1,14,-1
 1160 0 l 1,15,-1
 956 0 l 1,16,-1
 662 542 l 1,17,-1
 367 0 l 1,18,-1
 176 0 l 1,19,-1
 175.958 963 l 2,20,21
 175.954 1065.84 175.954 1065.84 239.5 1139 c 128,-1,22
 303 1212 303 1212 416 1212 c 0,23,24
 500 1212 500 1212 560 1152 c 128,-1,25
 620 1092 620 1092 620 1008 c 128,-1,26
 620 924 620 924 560 864 c 128,-1,27
 500 804 500 804 416 804 c 0,28,29
 365 804 365 804 363 807 c 1,8,-1
EndSplineSet
EndChar
StartChar: uni0E1E
Encoding: 3614 3614 153
Width: 1460
Flags: W
HStem: 0 21G<328 521 1055 1260> 804 132<235 313> 1080 132<235 313>
VStem: 70 132<969 1047> 328 186.096<395.329 807> 346 168<963 1047> 1077 183<376 1202>
Fore
202 1008 m 128,-1,1
 202 978 202 978 223 957 c 128,-1,2
 244 936 244 936 274 936 c 128,-1,3
 304 936 304 936 325 957 c 128,-1,4
 346 978 346 978 346 1008 c 128,-1,5
 346 1038 346 1038 325 1059 c 128,-1,6
 304 1080 304 1080 274 1080 c 128,-1,7
 244 1080 244 1080 223 1059 c 128,-1,0
 202 1038 202 1038 202 1008 c 128,-1,1
514.096 372.009 m 1,8,-1
 708 1108 l 5,9,-1
 884 1108 l 5,10,-1
 1077 376 l 1,11,-1
 1077 1202 l 1,12,-1
 1259 1202 l 1,13,-1
 1260 0 l 1,14,-1
 1055 0 l 1,15,-1
 791 926 l 1,16,-1
 521 0 l 1,17,-1
 328 0 l 1,18,-1
 328 807 l 1,19,20
 326 804 326 804 274 804 c 0,21,22
 190 804 190 804 130 864 c 128,-1,23
 70 924 70 924 70 1008 c 128,-1,24
 70 1092 70 1092 130 1152 c 128,-1,25
 190 1212 190 1212 274 1212 c 0,26,27
 387 1212 387 1212 450.5 1139 c 128,-1,28
 513.983 1065.94 513.983 1065.94 514 963 c 2,29,-1
 514.096 372.009 l 1,8,-1
EndSplineSet
EndChar
StartChar: uni0E1F
Encoding: 3615 3615 154
Width: 1460
Flags: W
HStem: 0 21G<328 521 1055 1260> 804 132<235 313> 1080 132<235 313>
VStem: 70 132<969 1047> 328 186.096<395.329 807> 346 168<963 1047> 1077 183<376 1638>
AnchorPoint: "AboveBase" 1016 1296 basechar 0
Fore
202 1008 m 128,-1,1
 202 978 202 978 223 957 c 128,-1,2
 244 936 244 936 274 936 c 128,-1,3
 304 936 304 936 325 957 c 128,-1,4
 346 978 346 978 346 1008 c 128,-1,5
 346 1038 346 1038 325 1059 c 128,-1,6
 304 1080 304 1080 274 1080 c 128,-1,7
 244 1080 244 1080 223 1059 c 128,-1,0
 202 1038 202 1038 202 1008 c 128,-1,1
514.096 372.009 m 1,8,-1
 708 1108 l 1,9,-1
 884 1108 l 1,10,-1
 1077 376 l 1,11,-1
 1077 1638 l 1,12,-1
 1259 1638 l 1,13,-1
 1260 0 l 1,14,-1
 1055 0 l 1,15,-1
 791 926 l 1,16,-1
 521 0 l 1,17,-1
 328 0 l 1,18,-1
 328 807 l 1,19,20
 326 804 326 804 274 804 c 0,21,22
 190 804 190 804 130 864 c 128,-1,23
 70 924 70 924 70 1008 c 128,-1,24
 70 1092 70 1092 130 1152 c 128,-1,25
 190 1212 190 1212 274 1212 c 0,26,27
 387 1212 387 1212 450.5 1139 c 128,-1,28
 513.983 1065.94 513.983 1065.94 514 963 c 2,29,-1
 514.096 372.009 l 1,8,-1
EndSplineSet
EndChar
StartChar: uni0E20
Encoding: 3616 3616 155
Width: 1440
Flags: MW
HStem: -10 132<234 312> 266 132<234 312> 1072 160<761 761>
VStem: 69 132<155 233> 326.294 187<394 576.728> 1061 185<1 960.671>
Fore
201 194 m 128,-1,1
 201 164 201 164 222 143 c 128,-1,2
 243 122 243 122 273 122 c 128,-1,3
 303 122 303 122 324 143 c 128,-1,4
 345 164 345 164 345 194 c 128,-1,5
 345 224 345 224 324 245 c 128,-1,6
 303 266 303 266 273 266 c 128,-1,7
 243 266 243 266 222 245 c 128,-1,0
 201 224 201 224 201 194 c 128,-1,1
1061 739.815 m 2,8,9
 1061 909.704 1061 909.704 987.213 989.502 c 128,-1,10
 913.426 1069.3 913.426 1069.3 761.5 1072 c 4,11,12
 658.095 1073.89 658.095 1073.89 560.233 1039.45 c 128,-1,13
 462.372 1005.01 462.372 1005.01 389.608 949.811 c 1,14,-1
 641 835.5 l 1,15,-1
 640.5 688 l 1,16,17
 564.779 654.291 564.779 654.291 539.019 607.349 c 128,-1,18
 513.258 560.406 513.258 560.406 513.294 506 c 2,19,-1
 513.471 238.947 l 2,20,21
 513.538 136.866 513.538 136.866 449.678 63.5039 c 128,-1,22
 385.707 -10 385.707 -10 273 -10 c 0,23,24
 189 -10 189 -10 129 50 c 128,-1,25
 69 110 69 110 69 194 c 128,-1,26
 69 278 69 278 129 338 c 128,-1,27
 189 398 189 398 273 398 c 0,28,29
 324.819 398 324.819 398 327 394 c 1,30,-1
 326.294 506 l 2,31,32
 325.757 591.239 325.757 591.239 361.313 663.905 c 128,-1,33
 396.871 736.571 396.871 736.571 471.5 760 c 1,34,-1
 234 861.5 l 1,35,-1
 233.5 1055.5 l 17,36,37
 345.687 1148.64 345.687 1148.64 479.205 1190.2 c 128,-1,38
 612.723 1231.76 612.723 1231.76 761.5 1232 c 4,39,40
 974.448 1232.35 974.448 1232.35 1110.22 1113.13 c 128,-1,41
 1246 993.918 1246 993.918 1246 755.815 c 2,42,-1
 1246 -1 l 1,43,-1
 1061 1 l 1,44,-1
 1061 739.815 l 2,8,9
EndSplineSet
EndChar
StartChar: uni0E21
Encoding: 3617 3617 156
Width: 1370
Flags: W
HStem: -20 152<268 346> 276 142<268 346> 804 132<286 364> 1080 132<286 364>
VStem: 103 132<165 243> 121 132<969 1047> 379 186<165 212 417 807> 397 168<963 1047> 1008 184<209 1202>
Fore
1002 0 m 1,0,1
 803.608 154 803.608 154 565 212 c 5,2,3
 565 107.733 565 107.733 498.838 43.3672 c 128,-1,4
 432.675 -21 432.675 -21 307 -20 c 0,5,6
 223 -20 223 -20 163 40 c 128,-1,7
 103 100 103 100 103 204 c 0,8,9
 103 297.941 103 297.941 168.417 358.471 c 128,-1,10
 233.833 419 233.833 419 307 418 c 8,11,12
 378.629 418 378.629 418 379 417 c 1,13,-1
 379 807 l 1,14,15
 377 804 377 804 325 804 c 0,16,17
 241 804 241 804 181 864 c 128,-1,18
 121 924 121 924 121 1008 c 128,-1,19
 121 1092 121 1092 181 1152 c 128,-1,20
 241 1212 241 1212 325 1212 c 0,21,22
 438 1212 438 1212 501.5 1139 c 128,-1,23
 565 1066 565 1066 565 963 c 2,24,-1
 565 389 l 5,25,26
 787.258 346 787.258 346 1008 209 c 1,27,-1
 1008 1202 l 1,28,-1
 1192 1202 l 1,29,-1
 1192 0 l 1,30,-1
 1002 0 l 1,0,1
235 204 m 128,-1,32
 235 174 235 174 256 153 c 128,-1,33
 277 132 277 132 307 132 c 128,-1,34
 337 132 337 132 358 153 c 128,-1,35
 379 174 379 174 379 204 c 128,-1,36
 379 234 379 234 358 255 c 128,-1,37
 337 276 337 276 307 276 c 128,-1,38
 277 276 277 276 256 255 c 128,-1,31
 235 234 235 234 235 204 c 128,-1,32
253 1008 m 128,-1,40
 253 978 253 978 274 957 c 128,-1,41
 295 936 295 936 325 936 c 128,-1,42
 355 936 355 936 376 957 c 128,-1,43
 397 978 397 978 397 1008 c 128,-1,44
 397 1038 397 1038 376 1059 c 128,-1,45
 355 1080 355 1080 325 1080 c 128,-1,46
 295 1080 295 1080 274 1059 c 128,-1,39
 253 1038 253 1038 253 1008 c 128,-1,40
EndSplineSet
EndChar
StartChar: uni0E22
Encoding: 3618 3618 157
Width: 1290
Flags: W
HStem: 0 154.001<359.5 923.5> 509 185<455.431 653> 804 132<395 473> 1080 132<395 473>
VStem: 145 217<932 1047> 162.462 198.003<154.001 430.122> 506 132<969 1047> 923.5 184<154 1202>
Fore
506 1008 m 128,-1,1
 506 1038 506 1038 485 1059 c 128,-1,2
 464 1080 464 1080 434 1080 c 128,-1,3
 404 1080 404 1080 383 1059 c 128,-1,4
 362 1038 362 1038 362 1008 c 128,-1,5
 362 978 362 978 383 957 c 128,-1,6
 404 936 404 936 434 936 c 128,-1,7
 464 936 464 936 485 957 c 128,-1,0
 506 978 506 978 506 1008 c 128,-1,1
316 848 m 1,8,9
 330.807 780.444 330.807 780.444 414.861 736.67 c 128,-1,10
 498.915 692.896 498.915 692.896 653 694 c 9,11,-1
 653 509 l 17,12,13
 501.024 508.553 501.024 508.553 431.066 454.557 c 128,-1,14
 361.108 400.558 361.108 400.558 360.465 302.01 c 2,15,-1
 359.5 154.001 l 1,16,-1
 923.5 154 l 1,17,-1
 924 1202 l 1,18,-1
 1108 1202 l 1,19,-1
 1107.5 0 l 1,20,-1
 162.5 0 l 1,21,-1
 162.462 303.944 l 2,22,23
 162.447 426.742 162.447 426.742 220.752 500.134 c 128,-1,24
 279.056 573.477 279.056 573.477 384 606 c 1,25,26
 279.036 639.614 279.036 639.614 210.199 723.775 c 128,-1,27
 141.362 807.936 141.362 807.936 145 932 c 0,28,29
 148.589 1054.72 148.589 1054.72 228.988 1133.36 c 152,-1,30
 309.387 1212 309.387 1212 434 1212 c 0,31,32
 518 1212 518 1212 578 1152 c 128,-1,33
 638 1092 638 1092 638 1008 c 128,-1,34
 638 924 638 924 578 864 c 128,-1,35
 518 804 518 804 434 804 c 0,36,37
 376.76 804 376.76 804 316 848 c 1,8,9
EndSplineSet
EndChar
StartChar: uni0E23
Encoding: 3619 3619 158
Width: 1150
Flags: MW
HStem: -20 132<617 695> 256 132<617 695> 1062 160<652 652>
VStem: 452 132<145 223> 710 186<385 704.6> 728 168<145 229>
Back
603.731 184.059 m 128,-1,1
 603.731 154.059 603.731 154.059 624.731 133.059 c 128,-1,2
 645.731 112.059 645.731 112.059 675.731 112.059 c 128,-1,3
 705.731 112.059 705.731 112.059 726.731 133.059 c 128,-1,4
 747.731 154.059 747.731 154.059 747.731 184.059 c 128,-1,5
 747.731 214.059 747.731 214.059 726.731 235.059 c 128,-1,6
 705.731 256.059 705.731 256.059 675.731 256.059 c 128,-1,7
 645.731 256.059 645.731 256.059 624.731 235.059 c 128,-1,0
 603.731 214.059 603.731 214.059 603.731 184.059 c 128,-1,1
916 229 m 2,8,9
 916 126.394 916 126.394 852.219 53.2266 c 128,-1,10
 788.438 -19.9414 788.438 -19.9414 675.731 -19.9414 c 0,11,12
 591.731 -19.9414 591.731 -19.9414 531.731 40.0586 c 128,-1,13
 471.731 100.059 471.731 100.059 471.731 184.059 c 128,-1,14
 471.731 268.059 471.731 268.059 531.731 328.059 c 128,-1,15
 591.731 388.059 591.731 388.059 675.731 388.059 c 0,16,17
 727.551 388.059 727.551 388.059 730 385 c 1,18,-1
 730 585.917 l 2,19,20
 730 752 730 752 472 752 c 10,21,-1
 146 752 l 17,22,23
 146 960.232 146 960.232 272.072 1091.12 c 128,-1,24
 398.144 1222 398.144 1222 631 1222 c 0,25,26
 771 1222 771 1222 866 1202.5 c 128,-1,27
 961 1183 961 1183 1062 1144 c 1,28,-1
 1062 974 l 1,29,30
 978 1020 978 1020 887 1043 c 128,-1,31
 796 1066 796 1066 650 1066 c 0,32,33
 534.416 1066 534.416 1066 449.007 1008 c 128,-1,34
 363.599 950 363.599 950 350 898 c 9,35,-1
 542 898 l 18,36,37
 916 898 916 898 916 628 c 2,38,-1
 916 229 l 2,8,9
EndSplineSet
Fore
584 184 m 128,-1,1
 584 154 584 154 605 133 c 128,-1,2
 626 112 626 112 656 112 c 128,-1,3
 686 112 686 112 707 133 c 128,-1,4
 728 154 728 154 728 184 c 128,-1,5
 728 214 728 214 707 235 c 128,-1,6
 686 256 686 256 656 256 c 128,-1,7
 626 256 626 256 605 235 c 128,-1,0
 584 214 584 214 584 184 c 128,-1,1
1087 999 m 9,8,-1
 935 887 l 17,9,10
 925 929 925 929 882 975 c 128,-1,11
 839 1021 839 1021 781 1041 c 128,-1,12
 723 1061 723 1061 652 1062 c 4,13,14
 549 1064 549 1064 451 1029.5 c 128,-1,15
 353 995 353 995 281 940 c 9,16,-1
 632 858 l 18,17,18
 896 796 896 796 896 588 c 2,19,-1
 896 229 l 2,20,21
 896 126 896 126 832 53 c 128,-1,22
 768 -20 768 -20 656 -20 c 0,23,24
 572 -20 572 -20 512 40 c 128,-1,25
 452 100 452 100 452 184 c 128,-1,26
 452 268 452 268 512 328 c 128,-1,27
 572 388 572 388 656 388 c 0,28,29
 708 388 708 388 710 385 c 1,30,-1
 710 546 l 2,31,32
 710 668 710 668 562 702 c 10,33,-1
 124 802 l 17,34,-1
 124 1046 l 17,35,36
 237 1139 237 1139 370.5 1180.5 c 128,-1,37
 504 1222 504 1222 652 1222 c 4,38,39
 754 1222 754 1222 842 1193.5 c 128,-1,40
 930 1165 930 1165 993.5 1111 c 128,-1,41
 1057 1057 1057 1057 1087 999 c 9,8,-1
EndSplineSet
EndChar
StartChar: uni0E24
Encoding: 3620 3620 159
Width: 1340
Flags: MW
HStem: -10 132<403 481> 266 132<403 481> 1072 160<666 666>
VStem: 202 168<155 239> 202 185<395 566.451> 514 132<155 233> 967 183<-410 957.26>
Fore
514 194 m 128,-1,1
 514 224 514 224 493 245 c 128,-1,2
 472 266 472 266 442 266 c 128,-1,3
 412 266 412 266 391 245 c 128,-1,4
 370 224 370 224 370 194 c 128,-1,5
 370 164 370 164 391 143 c 128,-1,6
 412 122 412 122 442 122 c 128,-1,7
 472 122 472 122 493 143 c 128,-1,0
 514 164 514 164 514 194 c 128,-1,1
967 740 m 2,8,9
 966.855 907.123 966.855 907.123 891.927 988.062 c 128,-1,11
 817 1069 817 1069 666 1072 c 0,12,13
 562 1074 562 1074 464 1039.5 c 128,-1,14
 366 1005 366 1005 294 950 c 1,15,-1
 545 836 l 1,16,-1
 545 688 l 1,17,18
 471.6 660 471.6 660 428.729 601.404 c 128,-1,19
 385.858 542.808 385.858 542.808 387 464 c 2,20,-1
 388 395 l 1,21,22
 390 398 390 398 442 398 c 0,23,24
 526 398 526 398 586 338 c 128,-1,25
 646 278 646 278 646 194 c 128,-1,26
 646 110 646 110 586 50 c 128,-1,27
 526 -10 526 -10 442 -10 c 0,28,29
 329 -10 329 -10 265.5 63 c 128,-1,30
 202 136 202 136 202 239 c 2,31,-1
 202 465 l 2,32,33
 202 547 202 547 248 633 c 128,-1,34
 294 719 294 719 376 760 c 1,35,-1
 138 862 l 1,36,-1
 138 1056 l 17,37,38
 250 1149 250 1149 383.5 1190.5 c 128,-1,39
 517 1232 517 1232 666 1232 c 0,40,41
 878 1232 878 1232 1014 1113 c 128,-1,42
 1150 994 1150 994 1150 756 c 2,43,-1
 1150 -410 l 17,44,-1
 968 -410 l 1,45,-1
 967 740 l 2,8,9
EndSplineSet
EndChar
StartChar: uni0E25
Encoding: 3621 3621 160
Width: 1290
Flags: MW
HStem: -10 128<385.7 466.3> 267 129<386.7 467.3> 705 162<416.465 647.243> 1072 160<552.886 682.241>
VStem: 181 169<153.7 290> 181 186<384 622.619> 502 133<153.7 233> 930 183<406 936.141>
Fore
152 972 m 9,0,-1
 152 1142 l 17,1,2
 247.83 1188.85 247.83 1188.85 363.254 1210.42 c 128,-1,3
 478.677 1232 478.677 1232 610 1232 c 4,4,5
 847.521 1232 847.521 1232 980.26 1110.51 c 128,-1,6
 1113 989.016 1113 989.016 1113 756 c 2,7,-1
 1113 0 l 1,8,-1
 909 1 l 17,9,10
 788.097 427.113 788.097 427.113 702.411 565.507 c 128,-1,11
 616.726 703.9 616.726 703.9 515 705 c 0,12,13
 439.204 705.819 439.204 705.819 403.103 647.417 c 128,-1,14
 367 589.015 367 589.015 367 477 c 2,15,-1
 367 384 l 1,16,17
 393.905 397 393.905 397 434 396 c 0,18,19
 515 394 515 394 574.5 342.5 c 128,-1,20
 634 291 634 291 635 202 c 0,21,22
 637 100 637 100 571 45 c 128,-1,23
 505 -10 505 -10 415 -10 c 0,24,25
 299.5 -10 299.5 -10 240.25 64.3711 c 128,-1,26
 181 138.741 181 138.741 181 290 c 2,27,-1
 181 486 l 2,28,29
 181 618.639 181 618.639 266.697 743.113 c 128,-1,30
 352.393 867.586 352.393 867.586 521 867 c 0,31,32
 678.963 866.451 678.963 866.451 770.982 742.225 c 128,-1,33
 863 618 863 618 930 406 c 0,34,-1
 930 740 l 2,35,36
 930 890.878 930 890.878 842.241 981.438 c 128,-1,37
 754.482 1072 754.482 1072 610 1072 c 4,38,39
 495.772 1072 495.772 1072 381.25 1047.38 c 128,-1,40
 266.727 1022.76 266.727 1022.76 152 972 c 9,0,-1
427 267 m 152,-1,42
 396 267 396 267 373 246 c 128,-1,43
 350 225 350 225 350 194 c 128,-1,44
 350 163 350 163 372.5 140.5 c 128,-1,45
 395 118 395 118 426 118 c 128,-1,46
 457 118 457 118 479.5 140.5 c 128,-1,47
 502 163 502 163 502 194 c 0,48,49
 502 224 502 224 480 245.5 c 128,-1,41
 458 267 458 267 427 267 c 152,-1,42
EndSplineSet
EndChar
StartChar: uni0E26
Encoding: 3622 3622 161
Width: 1420
Flags: MW
HStem: -10 132<234 312> 266 132<234 312> 1072 160<761 761>
VStem: 69 132<155 233> 326.294 187<394 576.728> 1061 185<-379 960.671>
Fore
201 194 m 128,-1,1
 201 164 201 164 222 143 c 128,-1,2
 243 122 243 122 273 122 c 128,-1,3
 303 122 303 122 324 143 c 128,-1,4
 345 164 345 164 345 194 c 128,-1,5
 345 224 345 224 324 245 c 128,-1,6
 303 266 303 266 273 266 c 128,-1,7
 243 266 243 266 222 245 c 128,-1,0
 201 224 201 224 201 194 c 128,-1,1
1061 739.815 m 2,8,9
 1061 909.704 1061 909.704 987.213 989.502 c 128,-1,10
 913.426 1069.3 913.426 1069.3 761.5 1072 c 4,11,12
 658.095 1073.89 658.095 1073.89 560.233 1039.45 c 128,-1,13
 462.372 1005.01 462.372 1005.01 389.608 949.811 c 1,14,-1
 641 835.5 l 1,15,-1
 640.5 688 l 1,16,17
 564.779 654.291 564.779 654.291 539.019 607.349 c 128,-1,18
 513.258 560.424 513.258 560.424 513.294 506 c 2,19,-1
 513.471 238.947 l 2,20,21
 513.539 136.822 513.539 136.822 449.678 63.5039 c 128,-1,22
 385.707 -10 385.707 -10 273 -10 c 0,23,24
 189 -10 189 -10 129 50 c 128,-1,25
 69 110 69 110 69 194 c 128,-1,26
 69 278 69 278 129 338 c 128,-1,27
 189 398 189 398 273 398 c 0,28,29
 324.819 398 324.819 398 327 394 c 1,30,-1
 326.294 506 l 2,31,32
 325.757 591.237 325.757 591.237 361.313 663.905 c 128,-1,33
 396.871 736.571 396.871 736.571 471.5 760 c 1,34,-1
 234 861.5 l 1,35,-1
 233.5 1055.5 l 17,36,37
 345.687 1148.64 345.687 1148.64 479.205 1190.2 c 128,-1,38
 612.723 1231.76 612.723 1231.76 761.5 1232 c 4,39,40
 974.448 1232.35 974.448 1232.35 1110.22 1113.13 c 128,-1,41
 1246 993.918 1246 993.918 1246 755.815 c 2,42,-1
 1246 -409 l 1,43,-1
 1061 -409 l 1,44,-1
 1061 739.815 l 2,8,9
EndSplineSet
EndChar
StartChar: uni0E27
Encoding: 3623 3623 162
Width: 1140
Flags: MW
HStem: -19.9414 132<664.731 742.731> 256.059 132<664.731 742.731> 1066 156<416 517.5>
VStem: 499.731 132<145.059 223.059> 758 186<385 966.325>
Fore
631.731 184.059 m 128,-1,1
 631.731 154.059 631.731 154.059 652.731 133.059 c 128,-1,2
 673.731 112.059 673.731 112.059 703.731 112.059 c 128,-1,3
 733.731 112.059 733.731 112.059 754.731 133.059 c 128,-1,4
 775.731 154.059 775.731 154.059 775.731 184.059 c 128,-1,5
 775.731 214.059 775.731 214.059 754.731 235.059 c 128,-1,6
 733.731 256.059 733.731 256.059 703.731 256.059 c 128,-1,7
 673.731 256.059 673.731 256.059 652.731 235.059 c 128,-1,0
 631.731 214.059 631.731 214.059 631.731 184.059 c 128,-1,1
758 795.917 m 2,8,9
 758 927 758 927 675.5 996.5 c 128,-1,10
 593 1066 593 1066 442 1066 c 4,11,12
 346 1066 346 1066 255 1043 c 128,-1,13
 164 1020 164 1020 80 974 c 1,14,-1
 80 1144 l 1,15,16
 181 1183 181 1183 276 1202.5 c 128,-1,17
 371 1222 371 1222 461 1222 c 4,18,19
 704 1222 704 1222 824 1096 c 128,-1,20
 944 970 944 970 944 714 c 2,21,-1
 944 229 l 2,22,23
 944 126.394 944 126.394 880.219 53.2266 c 128,-1,24
 816.438 -19.9414 816.438 -19.9414 703.731 -19.9414 c 0,25,26
 619.731 -19.9414 619.731 -19.9414 559.731 40.0586 c 128,-1,27
 499.731 100.059 499.731 100.059 499.731 184.059 c 128,-1,28
 499.731 268.059 499.731 268.059 559.731 328.059 c 128,-1,29
 619.731 388.059 619.731 388.059 703.731 388.059 c 0,30,31
 755.551 388.059 755.551 388.059 758 385 c 1,32,-1
 758 795.917 l 2,8,9
EndSplineSet
EndChar
StartChar: uni0E28
Encoding: 3624 3624 163
Width: 1350
Flags: MW
HStem: 0 21G<195 378 953 1136> 451 132<582 660> 727 132<582 660> 1064 160<551 685.5 532.5 702.5>
VStem: 693 132<616 694> 953 184<0 851.453>
Fore
930 891 m 1,0,1
 882 856 882 856 810 818 c 9,2,-1
 735 922 l 17,3,4
 792 962 792 962 841 1012 c 1,5,6
 765 1064 765 1064 640 1064 c 0,7,8
 462 1064 462 1064 377 970.5 c 128,-1,9
 292 877 292 877 302 737 c 2,10,-1
 324 428 l 1,11,12
 322 479 322 479 367.5 607.5 c 128,-1,13
 413 736 413 736 468 790 c 0,14,15
 537 859 537 859 621 859 c 128,-1,17
 705 859 705 859 765 799 c 128,-1,18
 825 739 825 739 825 655 c 128,-1,19
 825 571 825 571 765 511 c 128,-1,20
 705 451 705 451 621 451 c 128,-1,21
 537 451 537 451 477 511 c 1,22,23
 387 323 387 323 378 0 c 1,24,-1
 195 0 l 1,25,-1
 128 678 l 2,26,27
 98 980 98 980 263.5 1102 c 128,-1,28
 429 1224 429 1224 636 1224 c 0,29,30
 735 1224 735 1224 818 1198.5 c 128,-1,31
 901 1173 901 1173 959 1128 c 1,32,33
 1032 1202 1032 1202 1102 1315 c 9,34,-1
 1212 1150 l 17,35,36
 1147 1066 1147 1066 1072 1001 c 1,37,38
 1137 892 1137 892 1137 681 c 2,39,-1
 1136 0 l 1,40,-1
 953 0 l 1,41,-1
 953 743 l 2,42,43
 953 826 953 826 930 891 c 1,0,1
549 655 m 128,-1,45
 549 625 549 625 570 604 c 128,-1,46
 591 583 591 583 621 583 c 128,-1,47
 651 583 651 583 672 604 c 128,-1,48
 693 625 693 625 693 655 c 128,-1,49
 693 685 693 685 672 706 c 128,-1,50
 651 727 651 727 621 727 c 128,-1,51
 591 727 591 727 570 706 c 128,-1,44
 549 685 549 685 549 655 c 128,-1,45
EndSplineSet
EndChar
StartChar: uni0E29
Encoding: 3625 3625 164
Width: 1420
Flags: W
HStem: 0 154<526 1034> 416 136<726 804> 696 113.707<726 804> 804 132<247 325> 1080 132<247 325>
VStem: 82 132<969 1047> 340 186<154 807> 358 168<963 1047> 571.334 121.666<585 663> 837 121.573<585 663> 1034 182<154 467 693 1202>
Back
678 634 m 132,-1,1
 678 604 678 604 699 583 c 132,-1,2
 720 562 720 562 750 562 c 132,-1,3
 780 562 780 562 801 583 c 132,-1,4
 822 604 822 604 822 634 c 132,-1,5
 822 664 822 664 801 685 c 132,-1,6
 780 706 780 706 750 706 c 132,-1,7
 720 706 720 706 699 685 c 132,-1,0
 678 664 678 664 678 634 c 132,-1,1
214 1008 m 128,-1,9
 214 978 214 978 235 957 c 128,-1,10
 256 936 256 936 286 936 c 128,-1,11
 316 936 316 936 337 957 c 128,-1,12
 358 978 358 978 358 1008 c 128,-1,13
 358 1038 358 1038 337 1059 c 128,-1,14
 316 1080 316 1080 286 1080 c 128,-1,15
 256 1080 256 1080 235 1059 c 128,-1,8
 214 1038 214 1038 214 1008 c 128,-1,9
932.973 567.945 m 5,16,-1
 1019 607 l 13,17,-1
 1019 1202 l 1,18,-1
 1201 1202 l 1,19,-1
 1201 703 l 29,20,-1
 1297 778 l 21,21,-1
 1324 616 l 5,22,-1
 1201 545 l 13,23,-1
 1201 0 l 1,24,-1
 340 0 l 1,25,-1
 340 807 l 1,26,27
 338 804 338 804 286 804 c 0,28,29
 202 804 202 804 142 864 c 128,-1,30
 82 924 82 924 82 1008 c 128,-1,31
 82 1092 82 1092 142 1152 c 128,-1,32
 202 1212 202 1212 286 1212 c 0,33,34
 399 1212 399 1212 462.5 1139 c 128,-1,35
 526 1066 526 1066 526 963 c 2,36,-1
 526 154 l 1,37,-1
 1019 154 l 1,38,-1
 1019 477 l 21,39,40
 851.041 426 851.041 426 772 426 c 4,41,42
 671.945 426 671.945 426 613.603 483.547 c 132,-1,43
 555.261 541.095 555.261 541.095 556.334 631.283 c 4,44,45
 557.322 714.29 557.322 714.29 616.722 768.359 c 132,-1,46
 676.122 822.429 676.122 822.429 765.548 819.707 c 4,47,48
 820.404 818.037 820.404 818.037 881.408 775.431 c 132,-1,49
 942.413 732.825 942.413 732.825 943.573 637.928 c 4,50,51
 944.5 596 944.5 596 932.973 567.945 c 5,16,-1
EndSplineSet
Fore
214 1008 m 128,-1,1
 214 978 214 978 235 957 c 128,-1,2
 256 936 256 936 286 936 c 128,-1,3
 316 936 316 936 337 957 c 128,-1,4
 358 978 358 978 358 1008 c 128,-1,5
 358 1038 358 1038 337 1059 c 128,-1,6
 316 1080 316 1080 286 1080 c 128,-1,7
 256 1080 256 1080 235 1059 c 128,-1,0
 214 1038 214 1038 214 1008 c 128,-1,1
1216 535 m 9,8,-1
 1216 0 l 1,9,-1
 340 0 l 1,10,-1
 340 807 l 1,11,12
 338 804 338 804 286 804 c 0,13,14
 202 804 202 804 142 864 c 128,-1,15
 82 924 82 924 82 1008 c 128,-1,16
 82 1092 82 1092 142 1152 c 128,-1,17
 202 1212 202 1212 286 1212 c 0,18,19
 399 1212 399 1212 462.5 1139 c 128,-1,20
 526 1066 526 1066 526 963 c 2,21,-1
 526 154 l 1,22,-1
 1034 154 l 1,23,-1
 1034 467 l 17,24,25
 866.041 416 866.041 416 784 416 c 0,26,27
 686.945 416 686.945 416 628.604 473.547 c 128,-1,28
 570.261 531.095 570.261 531.095 571.334 621.283 c 0,29,30
 572.322 704.29 572.322 704.29 631.722 758.359 c 128,-1,31
 691.122 812.429 691.122 812.429 780.548 809.707 c 0,32,33
 835.404 808.037 835.404 808.037 896.408 765.431 c 128,-1,34
 957.413 722.825 957.413 722.825 958.573 627.928 c 0,35,36
 959.5 586 959.5 586 947.973 557.945 c 1,37,-1
 1034 597 l 9,38,-1
 1034 1202 l 1,39,-1
 1216 1202 l 1,40,-1
 1216 693 l 25,41,-1
 1312 768 l 17,42,-1
 1339 606 l 1,43,-1
 1216 535 l 9,8,-1
693 624 m 128,-1,45
 693 594 693 594 714 573 c 128,-1,46
 735 552 735 552 765 552 c 128,-1,47
 795 552 795 552 816 573 c 128,-1,48
 837 594 837 594 837 624 c 128,-1,49
 837 654 837 654 816 675 c 128,-1,50
 795 696 795 696 765 696 c 128,-1,51
 735 696 735 696 714 675 c 128,-1,44
 693 654 693 654 693 624 c 128,-1,45
EndSplineSet
EndChar
StartChar: uni0E2A
Encoding: 3626 3626 165
Width: 1290
Flags: MW
HStem: -10 128<385.7 466.3> 267 129<386.7 467.3> 705 162<416.2 647.6> 1072 160<553 672>
VStem: 181 169<153.7 290> 181 186<384 622.6> 502 133<153.7 233> 930 183<406 823>
Back
372.5 1602.5 m 21,0,0
 562.5 1742.5 562.5 1742.5 740 1995 c 13,0,0
 850 1830 l 21,0,0
 714.401 1647.5 714.401 1647.5 447.5 1497.5 c 13,0,0
 372.5 1602.5 l 21,0,0
702.5 1532.5 m 17,0,0
 892.5 1672.5 892.5 1672.5 1070 1925 c 9,0,0
 1135 1735 l 17,0,0
 987.673 1552.5 987.673 1552.5 777.5 1427.5 c 9,0,0
 702.5 1532.5 l 17,0,0
108.735 1077.92 m 1,0,-1
 129.735 1094.26 l 2,1,2
 237.94 1164.4 237.94 1164.4 338.114 1194.16 c 128,-1,3
 438.289 1223.92 438.289 1223.92 588 1223.92 c 0,4,5
 774.718 1223.92 774.718 1223.92 895.735 1139 c 1,6,-1
 987.735 1285.92 l 1,7,-1
 1129.74 1179.92 l 1,8,-1
 1005.82 1019.92 l 1,9,10
 1072.21 907.923 1072.21 907.923 1072 747.918 c 2,11,-1
 1072.26 0 l 1,12,-1
 869.266 -0.000976562 l 1,13,14
 845.434 77.9342 845.434 77.9342 826.993 134.967 c 128,-1,15
 808.552 192 808.552 192 781.059 268.174 c 128,-1,16
 753.566 344.348 753.566 344.348 729.544 398.613 c 128,-1,17
 705.522 452.879 705.522 452.879 673.977 510.386 c 128,-1,18
 642.432 567.892 642.432 567.892 612.208 603.478 c 128,-1,19
 581.985 639.064 581.985 639.064 545.768 661.991 c 128,-1,20
 509.55 684.918 509.55 684.918 472.735 684.918 c 0,21,22
 435.222 684.918 435.222 684.918 405.621 663.539 c 128,-1,23
 376.02 642.16 376.02 642.16 359.023 607.719 c 128,-1,24
 342.027 573.277 342.027 573.277 333.318 534.633 c 128,-1,25
 324.61 495.988 324.61 495.988 324.529 456.918 c 2,26,-1
 323 372 l 1,27,28
 350 385 350 385 392 384 c 0,29,30
 474 381 474 381 533 330 c 128,-1,31
 592 279 592 279 593 190 c 0,32,33
 595 88 595 88 531 33 c 128,-1,34
 467 -22 467 -22 363 -23 c 0,35,36
 262.016 -23.7596 262.016 -23.7596 199.881 53.3486 c 128,-1,37
 137.745 130.457 137.745 130.457 138.529 277.947 c 2,38,-1
 138.735 495.918 l 2,39,40
 138.648 534.046 138.648 534.046 149.803 578.604 c 128,-1,41
 160.957 623.162 160.957 623.162 186.915 671.224 c 128,-1,42
 212.873 719.287 212.873 719.287 249.717 758.026 c 128,-1,43
 286.561 796.765 286.561 796.765 343.775 821.842 c 128,-1,44
 400.99 846.918 400.99 846.918 468.735 846.918 c 0,45,46
 529.959 846.918 529.959 846.918 586.242 822.469 c 128,-1,47
 642.525 798.02 642.525 798.02 683.549 759.515 c 128,-1,48
 724.572 721.011 724.572 721.011 759.949 673.333 c 128,-1,49
 795.327 625.656 795.327 625.656 818.459 579.524 c 128,-1,50
 841.591 533.392 841.591 533.392 858.125 493.342 c 128,-1,51
 874.658 453.291 874.658 453.291 881.962 430.388 c 128,-1,52
 889.265 407.485 889.265 407.485 889.265 405.939 c 1,53,-1
 889 731.918 l 2,54,55
 889 824.763 889 824.763 867.367 889.918 c 1,56,-1
 700.735 786.918 l 1,57,-1
 650.735 879.311 l 1,58,-1
 788.234 1005.92 l 1,59,60
 718.912 1058.78 718.912 1058.78 588 1063.92 c 0,61,62
 490.135 1067.76 490.135 1067.76 389.503 1032.34 c 128,-1,63
 288.871 996.927 288.871 996.927 216.107 941.729 c 2,64,-1
 147.735 882.918 l 1,65,-1
 108.735 1077.92 l 1,0,-1
385 255 m 152,-1,67
 354 255 354 255 331 234 c 128,-1,68
 308 213 308 213 308 182 c 128,-1,69
 308 151 308 151 330.5 128.5 c 128,-1,70
 353 106 353 106 384 106 c 128,-1,71
 415 106 415 106 437.5 128.5 c 128,-1,72
 460 151 460 151 460 182 c 0,73,74
 460 212 460 212 438 233.5 c 128,-1,66
 416 255 416 255 385 255 c 152,-1,67
EndSplineSet
Fore
946 1139 m 1,0,1
 1012 1219 1012 1219 1082 1315 c 9,2,-1
 1192 1150 l 17,3,4
 1137 1075 1137 1075 1060 1006 c 1,5,6
 1113 903 1113 903 1113 756 c 2,7,-1
 1113 0 l 1,8,-1
 909 1 l 17,9,10
 788 427 788 427 702.5 565.5 c 128,-1,11
 617 704 617 704 515 705 c 0,12,13
 439 706 439 706 403 647.5 c 128,-1,14
 367 589 367 589 367 477 c 2,15,-1
 367 384 l 1,16,17
 394 397 394 397 434 396 c 0,18,19
 515 394 515 394 574.5 342.5 c 128,-1,20
 634 291 634 291 635 202 c 0,21,22
 637 100 637 100 571 45 c 128,-1,23
 505 -10 505 -10 415 -10 c 0,24,25
 300 -10 300 -10 240.5 64.5 c 128,-1,26
 181 139 181 139 181 290 c 2,27,-1
 181 486 l 2,28,29
 181 619 181 619 266.5 743.5 c 128,-1,30
 352 868 352 868 521 867 c 0,31,32
 679 866 679 866 771 742 c 128,-1,33
 863 618 863 618 930 406 c 0,34,-1
 930 740 l 2,35,36
 930 823 930 823 904 887 c 1,37,38
 844 852 844 852 790 818 c 9,39,-1
 715 922 l 17,40,41
 766 960 766 960 816 1005 c 1,42,43
 734 1072 734 1072 610 1072 c 4,44,45
 496 1072 496 1072 381.5 1047.5 c 128,-1,46
 267 1023 267 1023 152 972 c 9,47,-1
 152 1142 l 17,48,49
 248 1189 248 1189 363.5 1210.5 c 128,-1,50
 479 1232 479 1232 610 1232 c 4,51,52
 818 1232 818 1232 946 1139 c 1,0,1
427 267 m 152,-1,54
 396 267 396 267 373 246 c 128,-1,55
 350 225 350 225 350 194 c 128,-1,56
 350 163 350 163 372.5 140.5 c 128,-1,57
 395 118 395 118 426 118 c 128,-1,58
 457 118 457 118 479.5 140.5 c 128,-1,59
 502 163 502 163 502 194 c 0,60,61
 502 224 502 224 480 245.5 c 128,-1,53
 458 267 458 267 427 267 c 152,-1,54
EndSplineSet
EndChar
StartChar: uni0E2B
Encoding: 3627 3627 166
Width: 1410
Flags: W
HStem: 0 21G<344 526 1042 1225> 740 196<948 1054> 804 132<251 329> 1080 132<251 329 976 1054>
VStem: 86 132<969 1047> 344 186<454 807> 362 168<963 1047> 811 132<969 1047> 1042 183<0 772.7> 1087 132<969 1047>
Fore
943 1008 m 128,-1,1
 943 978 943 978 964 957 c 128,-1,2
 985 936 985 936 1015 936 c 128,-1,3
 1045 936 1045 936 1066 957 c 128,-1,4
 1087 978 1087 978 1087 1008 c 128,-1,5
 1087 1038 1087 1038 1066 1059 c 128,-1,6
 1045 1080 1045 1080 1015 1080 c 128,-1,7
 985 1080 985 1080 964 1059 c 128,-1,0
 943 1038 943 1038 943 1008 c 128,-1,1
218 1008 m 128,-1,9
 218 978 218 978 239 957 c 128,-1,10
 260 936 260 936 290 936 c 128,-1,11
 320 936 320 936 341 957 c 128,-1,12
 362 978 362 978 362 1008 c 128,-1,13
 362 1038 362 1038 341 1059 c 128,-1,14
 320 1080 320 1080 290 1080 c 128,-1,15
 260 1080 260 1080 239 1059 c 128,-1,8
 218 1038 218 1038 218 1008 c 128,-1,9
1123 839 m 1,16,17
 1225 783.8 1225 783.8 1225 658 c 2,18,-1
 1225 0 l 1,19,-1
 1042 0 l 1,20,-1
 1042 631 l 2,21,22
 1042 740 1042 740 948 740 c 0,23,24
 894.361 740 894.361 740 834 658 c 0,25,26
 732 518 732 518 652.644 360.619 c 128,-1,27
 573.287 203.239 573.287 203.239 526 0 c 1,28,-1
 344 0 l 25,29,-1
 344 807 l 17,30,31
 342 804 342 804 290 804 c 0,32,33
 206 804 206 804 146 864 c 128,-1,34
 86 924 86 924 86 1008 c 128,-1,35
 86 1092 86 1092 146 1152 c 128,-1,36
 206 1212 206 1212 290 1212 c 0,37,38
 403 1212 403 1212 466 1139 c 0,39,40
 530 1064.78 530 1064.78 530 963 c 10,41,-1
 530 454 l 1,42,43
 597 561 597 561 701.056 690.613 c 128,-1,44
 805.112 820.227 805.112 820.227 871 864 c 1,45,46
 811 924 811 924 811 1008 c 128,-1,47
 811 1092 811 1092 871 1152 c 128,-1,48
 931 1212 931 1212 1015 1212 c 128,-1,49
 1099 1212 1099 1212 1159 1152 c 128,-1,50
 1219 1092 1219 1092 1219 1008 c 0,51,52
 1218 904 1218 904 1123 839 c 1,16,17
EndSplineSet
EndChar
StartChar: uni0E2C
Encoding: 3628 3628 167
Width: 1480
Flags: W
HStem: 0 21G<328 521 1055 1260> 804 132<235 313> 998 132<1016 1083.16> 1080 132<235 313> 1274 132<1016 1094>
VStem: 70 132<969 1047> 328 186<372.009 807> 346 168<963 1047> 851 132<1163 1241> 1077 181.98<376 999.53>
AnchorPoint: "AboveBase" 741 1262 basechar 0
Fore
1077 1000 m 17,0,1
 1066 998 1066 998 1055 998 c 0,2,3
 971 998 971 998 911 1058 c 128,-1,4
 851 1118 851 1118 851 1202 c 128,-1,5
 851 1286 851 1286 911 1346 c 128,-1,6
 971 1406 971 1406 1055 1406 c 128,-1,7
 1139 1406 1139 1406 1199 1346 c 0,8,9
 1242 1303 1242 1303 1254 1249 c 9,10,-1
 1362 1300 l 1,11,-1
 1431 1156 l 1,12,-1
 1259 1074 l 25,13,-1
 1260 0 l 1,14,-1
 1055 0 l 1,15,-1
 791 826 l 1,16,-1
 521 0 l 1,17,-1
 328 0 l 1,18,-1
 328 807 l 1,19,20
 326 804 326 804 274 804 c 0,21,22
 190 804 190 804 130 864 c 128,-1,23
 70 924 70 924 70 1008 c 128,-1,24
 70 1092 70 1092 130 1152 c 128,-1,25
 190 1212 190 1212 274 1212 c 0,26,27
 387 1212 387 1212 450.5 1139 c 128,-1,28
 514 1066 514 1066 514 963 c 2,29,-1
 514 372 l 1,30,-1
 708 988 l 1,31,-1
 884 988 l 1,32,-1
 1077 376 l 1,33,-1
 1077 1000 l 17,0,1
983 1202 m 128,-1,35
 983 1172 983 1172 1004 1151 c 128,-1,36
 1025 1130 1025 1130 1055 1130 c 128,-1,37
 1085 1130 1085 1130 1106 1151 c 128,-1,38
 1127 1172 1127 1172 1127 1202 c 128,-1,39
 1127 1232 1127 1232 1106 1253 c 128,-1,40
 1085 1274 1085 1274 1055 1274 c 128,-1,41
 1025 1274 1025 1274 1004 1253 c 128,-1,34
 983 1232 983 1232 983 1202 c 128,-1,35
202 1008 m 128,-1,43
 202 978 202 978 223 957 c 128,-1,44
 244 936 244 936 274 936 c 128,-1,45
 304 936 304 936 325 957 c 128,-1,46
 346 978 346 978 346 1008 c 128,-1,47
 346 1038 346 1038 325 1059 c 128,-1,48
 304 1080 304 1080 274 1080 c 128,-1,49
 244 1080 244 1080 223 1059 c 128,-1,42
 202 1038 202 1038 202 1008 c 128,-1,43
EndSplineSet
EndChar
StartChar: uni0E2D
Encoding: 3629 3629 168
Width: 1220
Flags: MW
HStem: 0 154<369 861> 439 132<383 461> 715 132<383 461> 1066 156<519 620.5>
VStem: 181.958 187<154 441.941> 494 132<604 682> 861 186<154 966.619>
Fore
494 653 m 128,-1,1
 494 683 494 683 473 704 c 128,-1,2
 452 725 452 725 422 725 c 128,-1,3
 392 725 392 725 371 704 c 128,-1,4
 350 683 350 683 350 653 c 128,-1,5
 350 623 350 623 371 602 c 128,-1,6
 392 581 392 581 422 581 c 128,-1,7
 452 581 452 581 473 602 c 128,-1,0
 494 623 494 623 494 653 c 128,-1,1
861 794.941 m 2,8,9
 861 927.001 861 927.001 778.5 996.5 c 128,-1,10
 696 1066 696 1066 545 1066 c 4,11,12
 449 1066 449 1066 358 1043 c 128,-1,13
 267 1020 267 1020 183 974 c 1,14,-1
 183 1144 l 1,15,16
 284 1183 284 1183 379 1202.5 c 128,-1,17
 474 1222 474 1222 564 1222 c 4,18,19
 807 1222 807 1222 927 1096 c 128,-1,20
 1047 970 1047 970 1047 713.941 c 2,21,-1
 1047 0 l 1,22,-1
 182 0 l 1,23,-1
 181.958 608 l 2,24,25
 181.951 710.733 181.951 710.733 245.476 783.891 c 128,-1,26
 309 857 309 857 422 857 c 0,27,28
 506 857 506 857 566 797 c 128,-1,29
 626 737 626 737 626 653 c 128,-1,30
 626 569 626 569 566 509 c 128,-1,31
 506 449 506 449 422 449 c 0,32,33
 371 449 371 449 368.958 451.941 c 1,34,-1
 369 154 l 1,35,-1
 861 154 l 1,36,-1
 861 794.941 l 2,8,9
EndSplineSet
EndChar
StartChar: uni0E2E
Encoding: 3630 3630 169
Width: 1220
Flags: MW
HStem: 0 154<335 838> 319 132<350 428> 595 132<350 428> 782.01 144.49<428.877 607.041> 1092 139.96<485 533>
VStem: 142 171<963.805 1059.21> 148.958 187<154 321.941> 461 132<484 562> 838 179<154 817.512>
Fore
890 1105.12 m 9,0,-1
 1017 1240 l 17,1,-1
 1083 1066.96 l 1,2,-1
 978.343 971.955 l 1,3,4
 1017 876.953 1017 876.953 1017 755.955 c 2,5,-1
 1017 0 l 1,6,-1
 149 0 l 1,7,-1
 148.958 478 l 2,8,9
 148.949 580.615 148.949 580.615 212.476 653.891 c 128,-1,10
 276 727 276 727 389 727 c 0,11,12
 473 727 473 727 533 667 c 128,-1,13
 593 607 593 607 593 523 c 128,-1,14
 593 439 593 439 533 379 c 128,-1,15
 473 319 473 319 389 319 c 0,16,17
 338 319 338 319 335.958 321.941 c 9,18,-1
 335 154 l 17,19,-1
 838 154 l 1,20,-1
 838 739.955 l 2,21,22
 838 805.766 838 805.766 820.102 875.955 c 1,23,24
 756 830 756 830 673.62 805.735 c 128,-1,25
 591.241 781.469 591.241 781.469 500 782.01 c 0,26,27
 326.679 783.039 326.679 783.039 236.174 853.866 c 128,-1,28
 145.669 924.694 145.669 924.694 142 1010 c 0,29,30
 137.802 1107.62 137.802 1107.62 247.077 1170.34 c 128,-1,31
 356.353 1233.06 356.353 1233.06 533 1231.96 c 0,32,33
 648.571 1231.07 648.571 1231.07 737.748 1199.27 c 128,-1,34
 826.925 1167.47 826.925 1167.47 890 1105.12 c 9,0,-1
379.953 952.176 m 128,-1,36
 446.905 927.348 446.905 927.348 507 926.5 c 0,37,38
 576.352 925.522 576.352 925.522 657.284 949.653 c 128,-1,39
 738.216 973.784 738.216 973.784 758 1002 c 1,40,41
 709.612 1048.45 709.612 1048.45 643.27 1070.76 c 128,-1,42
 576.928 1093.06 576.928 1093.06 485 1092 c 0,43,44
 422.534 1091.28 422.534 1091.28 367.767 1070.83 c 128,-1,45
 313 1050.39 313 1050.39 313 1021 c 0,46,35
 313 977.004 313 977.004 379.953 952.176 c 128,-1,36
461 523 m 128,-1,48
 461 553 461 553 440 574 c 128,-1,49
 419 595 419 595 389 595 c 128,-1,50
 359 595 359 595 338 574 c 128,-1,51
 317 553 317 553 317 523 c 128,-1,52
 317 493 317 493 338 472 c 128,-1,53
 359 451 359 451 389 451 c 128,-1,54
 419 451 419 451 440 472 c 128,-1,47
 461 493 461 493 461 523 c 128,-1,48
EndSplineSet
EndChar
StartChar: uni0E2F
Encoding: 3631 3631 170
Width: 1200
Flags: W
HStem: 0 21G<810 993> 736 190<266 396> 1070 132<266 344>
VStem: 101 132<959 1037> 377 132<959 1037> 810 183<0 909.186>
Fore
477.31 888.653 m 1,0,1
 580.037 910.351 580.037 910.351 665.685 986.293 c 128,-1,2
 751.333 1062.24 751.333 1062.24 816 1202 c 1,3,-1
 992 1026 l 1,4,-1
 993 0 l 1,5,-1
 810 0 l 1,6,-1
 809.861 909.186 l 17,7,8
 735.969 824.917 735.969 824.917 633.243 780.459 c 128,-1,9
 530.516 736 530.516 736 396 736 c 0,10,11
 259.458 736 259.458 736 180.229 817.431 c 128,-1,12
 101 898.862 101 898.862 101 998 c 0,13,14
 101 1082 101 1082 161 1142 c 128,-1,15
 221 1202 221 1202 305 1202 c 128,-1,16
 389 1202 389 1202 449 1142 c 128,-1,17
 509 1082 509 1082 509 998 c 0,18,19
 509 936.957 509 936.957 477.31 888.653 c 1,0,1
233 998 m 128,-1,21
 233 968 233 968 254 947 c 128,-1,22
 275 926 275 926 305 926 c 128,-1,23
 335 926 335 926 356 947 c 128,-1,24
 377 968 377 968 377 998 c 128,-1,25
 377 1028 377 1028 356 1049 c 128,-1,26
 335 1070 335 1070 305 1070 c 128,-1,27
 275 1070 275 1070 254 1049 c 128,-1,20
 233 1028 233 1028 233 998 c 128,-1,21
EndSplineSet
EndChar
StartChar: uni0E30
Encoding: 3632 3632 171
Width: 1040
Flags: W
HStem: 12 196<229.7 414> 352 113.068<229.81 314.3> 679.001 196<230.497 414.999> 1019 113<232.286 315.23>
VStem: 79.9933 116.006<241.843 321.3 908.678 987.84> 348.999 119<239 317.352 905.703 984.663>
Fore
270.999 875.001 m 152,-1,1
 302.1 874.391 302.1 874.391 325.13 894.581 c 128,-1,2
 348.159 914.771 348.159 914.771 348.999 945.001 c 128,-1,3
 349.84 975.28 349.84 975.28 327.893 996.837 c 128,-1,4
 305.946 1018.39 305.946 1018.39 274.999 1019 c 0,5,6
 243.49 1019.62 243.49 1019.62 220.17 999.131 c 128,-1,7
 196.85 978.646 196.85 978.646 195.999 948.001 c 0,8,9
 195.163 917.893 195.163 917.893 217.503 896.753 c 128,-1,0
 239.844 875.612 239.844 875.612 270.999 875.001 c 152,-1,1
829.999 1098 m 1,10,-1
 887.999 894.001 l 1,11,12
 832.773 831.872 832.773 831.872 693.788 756.505 c 128,-1,13
 554.803 681.139 554.803 681.139 414.999 679.001 c 0,14,15
 272.361 676.818 272.361 676.818 202.817 728.479 c 128,-1,16
 133.272 780.141 133.272 780.141 106.99 827.061 c 128,-1,17
 80.708 873.98 80.708 873.98 79.999 952.001 c 0,18,19
 79.3906 1018.94 79.3906 1018.94 143.002 1075.47 c 128,-1,20
 206.613 1132 206.613 1132 279.999 1132 c 0,21,22
 357.686 1132 357.686 1132 412.842 1075.11 c 128,-1,23
 467.999 1018.23 467.999 1018.23 467.999 941.001 c 0,24,25
 467.999 905.15 467.999 905.15 449.386 870.751 c 128,-1,26
 430.773 836.351 430.773 836.351 402.999 817.276 c 1,27,28
 495 825 495 825 624 904.5 c 128,-1,29
 753 984 753 984 829.999 1098 c 1,10,-1
270 208 m 152,-1,31
 301 207 301 207 324 227.5 c 128,-1,32
 347 248 347 248 348 278 c 128,-1,33
 349 308 349 308 327 329.5 c 128,-1,34
 305 351 305 351 274 352 c 0,35,36
 242 353 242 353 219 332.5 c 128,-1,37
 196 312 196 312 195 281 c 0,38,39
 194 251 194 251 216.5 230 c 128,-1,30
 239 209 239 209 270 208 c 152,-1,31
829 431 m 1,40,-1
 887 227 l 1,41,42
 827 159 827 159 686.5 86.5 c 128,-1,43
 546 14 546 14 414 12 c 0,44,45
 271 10 271 10 201.5 61.5 c 128,-1,46
 132 113 132 113 106 160 c 128,-1,47
 80 207 80 207 79 285 c 0,48,49
 78 354 78 354 140 410.5 c 128,-1,50
 202 467 202 467 279 465 c 0,51,52
 357 463 357 463 412 407 c 128,-1,53
 467 351 467 351 467 274 c 0,54,55
 467 238.149 467 238.149 448.387 203.75 c 128,-1,56
 429.774 169.35 429.774 169.35 402 150.275 c 1,57,58
 516 168 516 168 625.5 232.5 c 128,-1,59
 735 297 735 297 829 431 c 1,40,-1
EndSplineSet
EndChar
StartChar: uni0E31
Encoding: 3633 3633 172
Width: 0
Flags: W
HStem: 1362 130.28<-501.5 -316.741> 1678 104<-669.934 -592.155>
VStem: -809.5 106<1575.15 1648.76> -560.5 109<1572.77 1646.34>
AnchorPoint: "AboveMark" -321.5 1821 basemark 0
AnchorPoint: "AboveBase" -309.5 1356 mark 0
Fore
-633.5 1544 m 28,0,1
 -604.089 1544 -604.089 1544 -582.294 1562.56 c 132,-1,2
 -560.5 1581.13 -560.5 1581.13 -560.5 1609 c 4,3,4
 -560.5 1637.53 -560.5 1637.53 -580.733 1657.77 c 132,-1,5
 -600.965 1678 -600.965 1678 -629.5 1678 c 4,6,7
 -659.322 1678 -659.322 1678 -681.411 1659.14 c 132,-1,8
 -703.5 1640.28 -703.5 1640.28 -703.5 1612 c 132,-1,9
 -703.5 1583.65 -703.5 1583.65 -682.866 1563.83 c 132,-1,10
 -662.231 1544 -662.231 1544 -633.5 1544 c 28,0,1
12 1794 m 5,11,-1
 66 1592 l 5,12,13
 -52.0566 1481.1 -52.0566 1481.1 -190.948 1421.55 c 132,-1,14
 -329.84 1362 -329.84 1362 -492 1362 c 4,15,16
 -636 1362 -636 1362 -722.75 1425.49 c 132,-1,17
 -809.5 1488.99 -809.5 1488.99 -809.5 1603 c 4,18,19
 -809.5 1683.85 -809.5 1683.85 -753.605 1732.93 c 132,-1,20
 -697.709 1782 -697.709 1782 -624.5 1782 c 4,21,22
 -551.634 1782 -551.634 1782 -501.567 1731.89 c 132,-1,23
 -451.5 1681.78 -451.5 1681.78 -451.5 1606 c 4,24,25
 -451.5 1526.61 -451.5 1526.61 -501.5 1492.28 c 5,26,27
 -359.378 1492.28 -359.378 1492.28 -231.111 1568.36 c 132,-1,28
 -102.846 1644.45 -102.846 1644.45 12 1794 c 5,11,-1
EndSplineSet
EndChar
StartChar: uni0E32
Encoding: 3634 3634 173
Width: 1130
Flags: MW
HStem: 0 21G<758 944> 1066 156<416 517.5>
VStem: 758 186<0 927>
Fore
758 0 m 1,0,-1
 944 0 l 25,1,-1
 944 714 l 2,2,3
 944 970 944 970 824 1096 c 128,-1,4
 704 1222 704 1222 461 1222 c 4,5,6
 371 1222 371 1222 276 1202.5 c 128,-1,7
 181 1183 181 1183 80 1144 c 1,8,-1
 80 974 l 1,9,10
 164 1020 164 1020 255 1043 c 128,-1,11
 346 1066 346 1066 442 1066 c 4,12,13
 593 1066 593 1066 675.5 996.5 c 128,-1,14
 758 927 758 927 758 796 c 2,15,-1
 758 0 l 1,0,-1
EndSplineSet
EndChar
StartChar: uni0E34
Encoding: 3636 3636 175
Width: 0
Flags: W
HStem: 1441.5 130.5<-945 -592.92> 1707 126<-804.7 -572>
VStem: -1122 948<1432 1542>
AnchorPoint: "AboveMark" -275 1870 basemark 0
AnchorPoint: "AboveBase" -177 1351 mark 0
Fore
-333 1509 m 1,0,1
 -382 1580 -382 1580 -492 1643.5 c 128,-1,2
 -602 1707 -602 1707 -702 1707 c 0,3,4
 -781 1707 -781 1707 -843 1669 c 128,-1,5
 -905 1631 -905 1631 -945 1572 c 1,6,-1
 -675 1572 l 2,7,8
 -637 1572 -637 1572 -591.5 1566.5 c 128,-1,9
 -546 1561 -546 1561 -503 1551.5 c 128,-1,10
 -460 1542 -460 1542 -428 1534.5 c 128,-1,11
 -396 1527 -396 1527 -365 1518 c 128,-1,12
 -334 1509 -334 1509 -333 1509 c 1,0,1
-210 1344 m 1,13,14
 -251 1353 -251 1353 -340.5 1380.5 c 128,-1,15
 -430 1408 -430 1408 -512 1424 c 128,-1,16
 -594 1440 -594 1440 -684 1440 c 0,17,18
 -829 1442 -829 1442 -950 1441.5 c 128,-1,19
 -1071 1441 -1071 1441 -1122 1432 c 1,20,-1
 -1122 1593 l 1,21,22
 -1064 1701 -1064 1701 -939 1767 c 128,-1,23
 -814 1833 -814 1833 -693 1833 c 0,24,25
 -541 1833 -541 1833 -405.5 1750.5 c 128,-1,26
 -270 1668 -270 1668 -174 1542 c 1,27,-1
 -210 1344 l 1,13,14
EndSplineSet
EndChar
StartChar: uni0E35
Encoding: 3637 3637 176
Width: 0
Flags: W
HStem: 1434.5 131.5<-957 -604.92> 1701 126<-816.7 -584>
VStem: -402 171<1732.82 1857>
AnchorPoint: "AboveBase" -189 1345 mark 0
AnchorPoint: "AboveMark" -293 1916 basemark 0
Fore
-345 1503 m 1,0,1
 -394 1574 -394 1574 -504 1637.5 c 128,-1,2
 -614 1701 -614 1701 -714 1701 c 0,3,4
 -793 1701 -793 1701 -855 1663 c 128,-1,5
 -917 1625 -917 1625 -957 1566 c 1,6,-1
 -687 1566 l 2,7,8
 -649 1566 -649 1566 -603.5 1560.5 c 128,-1,9
 -558 1555 -558 1555 -515 1545.5 c 128,-1,10
 -472 1536 -472 1536 -440 1528.5 c 128,-1,11
 -408 1521 -408 1521 -377 1512 c 128,-1,12
 -346 1503 -346 1503 -345 1503 c 1,0,1
-222 1338 m 1,13,14
 -263 1347 -263 1347 -352.5 1374.5 c 128,-1,15
 -442 1402 -442 1402 -524 1418 c 128,-1,16
 -606 1434 -606 1434 -696 1434 c 0,17,18
 -802 1434 -802 1434 -883.5 1434.5 c 128,-1,19
 -965 1435 -965 1435 -1030.5 1432 c 128,-1,20
 -1096 1429 -1096 1429 -1134 1422 c 1,21,-1
 -1134 1587 l 1,22,23
 -1076 1695 -1076 1695 -951 1761 c 128,-1,24
 -826 1827 -826 1827 -705 1827 c 0,25,26
 -555.498 1827 -555.498 1827 -402 1732.82 c 1,27,-1
 -402 1857 l 1,28,-1
 -231 1857 l 1,29,-1
 -231 1590 l 1,30,31
 -207 1563 -207 1563 -186 1536 c 1,32,-1
 -222 1338 l 1,13,14
EndSplineSet
EndChar
StartChar: uni0E36
Encoding: 3638 3638 177
Width: 0
Flags: W
HStem: 1429.5 130.5<-957 -604.92> 1695 126<-816.7 -584> 1790 113<-310.352 -232.876>
VStem: -200 112<1682.3 1757.7>
AnchorPoint: "AboveBase" -189 1339 mark 0
AnchorPoint: "AboveMark" -231 1966 basemark 0
Fore
-345 1497 m 1,0,1
 -394 1568 -394 1568 -504 1631.5 c 128,-1,2
 -614 1695 -614 1695 -714 1695 c 0,3,4
 -793 1695 -793 1695 -855 1657 c 128,-1,5
 -917 1619 -917 1619 -957 1560 c 1,6,-1
 -687 1560 l 2,7,8
 -649 1560 -649 1560 -603.5 1554.5 c 128,-1,9
 -558 1549 -558 1549 -515 1539.5 c 128,-1,10
 -472 1530 -472 1530 -440 1522.5 c 128,-1,11
 -408 1515 -408 1515 -377 1506 c 128,-1,12
 -346 1497 -346 1497 -345 1497 c 1,0,1
-202.5 1551.5 m 1,13,14
 -201.439 1550.27 -201.439 1550.27 -186 1530 c 1,15,-1
 -222 1332 l 1,16,17
 -263 1341 -263 1341 -352.5 1368.5 c 128,-1,18
 -442 1396 -442 1396 -524 1412 c 128,-1,19
 -606 1428 -606 1428 -696 1428 c 0,20,21
 -841 1430 -841 1430 -962 1429.5 c 128,-1,22
 -1083 1429 -1083 1429 -1134 1420 c 1,23,-1
 -1134 1581 l 1,24,25
 -1076 1689 -1076 1689 -951 1755 c 128,-1,26
 -826 1821 -826 1821 -705 1821 c 0,27,28
 -578.269 1821 -578.269 1821 -443.483 1750.39 c 1,29,30
 -431.617 1817.63 -431.617 1817.63 -387.044 1860.32 c 128,-1,31
 -342.47 1903 -342.47 1903 -272 1903 c 0,32,33
 -190 1903 -190 1903 -139 1852 c 128,-1,34
 -88 1801 -88 1801 -88 1724 c 0,35,36
 -88 1662.72 -88 1662.72 -118.269 1616.48 c 128,-1,37
 -148.538 1570.24 -148.538 1570.24 -202.5 1551.5 c 1,13,14
-271 1790 m 24,38,39
 -301 1790 -301 1790 -322.5 1769.5 c 128,-1,40
 -344 1749 -344 1749 -344 1720 c 128,-1,41
 -344 1691 -344 1691 -322.5 1671 c 128,-1,42
 -301 1651 -301 1651 -271 1651 c 0,43,44
 -242 1651 -242 1651 -221 1671 c 128,-1,45
 -200 1691 -200 1691 -200 1720 c 128,-1,46
 -200 1749 -200 1749 -221 1769.5 c 128,-1,47
 -242 1790 -242 1790 -271 1790 c 24,38,39
EndSplineSet
EndChar
StartChar: uni0E37
Encoding: 3639 3639 178
Width: 0
Flags: W
HStem: 1427.5 128.5<-957 -604.92> 1693 126<-816.7 -616.704>
VStem: -615 156<1809 1888> -391 156<1716.82 1887>
AnchorPoint: "AboveBase" -189 1337 mark 0
AnchorPoint: "AboveMark" -308 1970 basemark 0
Fore
-345 1493 m 1,0,1
 -394 1565 -394 1565 -504 1629 c 128,-1,2
 -614 1693 -614 1693 -714 1693 c 0,3,4
 -793 1693 -793 1693 -855 1654.5 c 128,-1,5
 -917 1616 -917 1616 -957 1556 c 1,6,-1
 -687 1556 l 2,7,8
 -649 1556 -649 1556 -603.5 1550.5 c 128,-1,9
 -558 1545 -558 1545 -515 1535.5 c 128,-1,10
 -472 1526 -472 1526 -440 1518.5 c 128,-1,11
 -408 1511 -408 1511 -377 1502 c 128,-1,12
 -346 1493 -346 1493 -345 1493 c 1,0,1
-459 1759 m 17,13,14
 -451.767 1755.23 -451.767 1755.23 -422.684 1736.8 c 128,-1,15
 -393.601 1718.37 -393.601 1718.37 -391 1716.82 c 1,16,-1
 -391 1887 l 1,17,-1
 -235 1887 l 1,18,-1
 -235 1584.55 l 1,19,20
 -198.92 1544.96 -198.92 1544.96 -186 1528 c 1,21,-1
 -222 1330 l 1,22,23
 -263 1339 -263 1339 -352.5 1366.5 c 128,-1,24
 -442 1394 -442 1394 -524 1410 c 128,-1,25
 -606 1426 -606 1426 -696 1426 c 0,26,27
 -841 1428 -841 1428 -962 1427.5 c 128,-1,28
 -1083 1427 -1083 1427 -1134 1418 c 1,29,-1
 -1134 1579 l 1,30,31
 -1076 1687 -1076 1687 -951 1753 c 128,-1,32
 -826 1819 -826 1819 -705 1819 c 0,33,34
 -667 1819 -667 1819 -615 1809 c 1,35,-1
 -615 1888 l 1,36,-1
 -459 1888 l 1,37,-1
 -459 1759 l 17,13,14
EndSplineSet
EndChar
StartChar: uni0E38
Encoding: 3640 3640 179
Width: 0
Flags: W
HStem: -423.5 92<-427.055 -359.08> -225.5 106<-427.675 -359.08>
VStem: -538.5 89<-309.304 -246.643> -345.5 154.5<-523 -416.5>
AnchorPoint: "BelowBase" -198.5 -126.5 mark 0
Fore
-345.5 -523 m 5,0,-1
 -345.5 -416.5 l 5,1,2
 -359.5 -423.5 -359.5 -423.5 -394.5 -423.5 c 4,3,4
 -451.174 -423.5 -451.174 -423.5 -494.837 -380.041 c 132,-1,5
 -538.5 -336.582 -538.5 -336.582 -538.5 -275.5 c 4,6,7
 -538.5 -211.404 -538.5 -211.404 -494.167 -165.452 c 132,-1,8
 -449.834 -119.5 -449.834 -119.5 -386.5 -119.5 c 4,9,10
 -300.781 -119.5 -300.781 -119.5 -245.89 -169.19 c 132,-1,11
 -191 -218.88 -191 -218.88 -191 -319 c 6,12,-1
 -191 -523 l 5,13,-1
 -345.5 -523 l 5,0,-1
-392.5 -225.5 m 28,14,15
 -415.577 -225.5 -415.577 -225.5 -432.538 -240.44 c 132,-1,16
 -449.5 -255.38 -449.5 -255.38 -449.5 -277.5 c 4,17,18
 -449.5 -300.191 -449.5 -300.191 -432.631 -315.845 c 132,-1,19
 -415.763 -331.5 -415.763 -331.5 -392.5 -331.5 c 4,20,21
 -369.964 -331.5 -369.964 -331.5 -353.732 -316.078 c 132,-1,22
 -337.5 -300.655 -337.5 -300.655 -337.5 -278.5 c 132,-1,23
 -337.5 -256.345 -337.5 -256.345 -353.732 -240.922 c 132,-1,24
 -369.964 -225.5 -369.964 -225.5 -392.5 -225.5 c 28,14,15
EndSplineSet
EndChar
StartChar: uni0E39
Encoding: 3641 3641 180
Width: 0
Flags: W
HStem: -523.5 101<-515.5 -375> -423.5 92<-751.555 -683.58> -225.5 106<-752.175 -683.58>
VStem: -863 89<-309.304 -246.643> -375 155<-422.5 -126.5>
AnchorPoint: "BelowBase" -186 -131 mark 0
Fore
-670 -523.5 m 5,0,-1
 -670 -416.5 l 5,1,2
 -684 -423.5 -684 -423.5 -719 -423.5 c 4,3,4
 -775.674 -423.5 -775.674 -423.5 -819.337 -380.041 c 132,-1,5
 -863 -336.582 -863 -336.582 -863 -275.5 c 4,6,7
 -863 -211.404 -863 -211.404 -818.667 -165.452 c 132,-1,8
 -774.334 -119.5 -774.334 -119.5 -711 -119.5 c 4,9,10
 -625.281 -119.5 -625.281 -119.5 -570.39 -169.19 c 132,-1,11
 -515.5 -218.88 -515.5 -218.88 -515.5 -319 c 6,12,-1
 -515.5 -422.5 l 5,13,-1
 -375 -422.5 l 5,14,-1
 -375 -126.5 l 5,15,-1
 -220 -126.5 l 5,16,-1
 -220 -523.5 l 5,17,-1
 -670 -523.5 l 5,0,-1
-717 -225.5 m 28,18,19
 -740.077 -225.5 -740.077 -225.5 -757.038 -240.44 c 132,-1,20
 -774 -255.38 -774 -255.38 -774 -277.5 c 4,21,22
 -774 -300.191 -774 -300.191 -757.131 -315.845 c 132,-1,23
 -740.263 -331.5 -740.263 -331.5 -717 -331.5 c 4,24,25
 -694.464 -331.5 -694.464 -331.5 -678.232 -316.078 c 132,-1,26
 -662 -300.655 -662 -300.655 -662 -278.5 c 132,-1,27
 -662 -256.345 -662 -256.345 -678.232 -240.922 c 132,-1,28
 -694.464 -225.5 -694.464 -225.5 -717 -225.5 c 28,18,19
EndSplineSet
EndChar
StartChar: uni0E3A
Encoding: 3642 3642 181
Width: 0
Flags: W
AnchorPoint: "BelowBase" -213.5 -116.5 mark 0
Fore
-301.5 -111.5 m 4,0,1
 -246.42 -111.5 -246.42 -111.5 -206.46 -152.894 c 132,-1,2
 -166.5 -194.288 -166.5 -194.288 -166.5 -246.5 c 4,3,4
 -166.5 -301.491 -166.5 -301.491 -207.117 -341.496 c 132,-1,5
 -247.733 -381.5 -247.733 -381.5 -301.5 -381.5 c 4,6,7
 -354.83 -381.5 -354.83 -381.5 -395.165 -340.96 c 132,-1,8
 -435.5 -300.42 -435.5 -300.42 -435.5 -246.5 c 4,9,10
 -435.5 -191.882 -435.5 -191.882 -396.324 -151.691 c 132,-1,11
 -357.148 -111.5 -357.148 -111.5 -301.5 -111.5 c 4,0,1
EndSplineSet
EndChar
StartChar: uni0E3F
Encoding: 3647 3647 182
Width: 1250
Flags: W
HStem: 0 174<348 541 653 814.2> 719 166<348 541> 1321 168<348 541 653 752.204>
VStem: 152 196<170 719 885 1321> 541 112<-133 0 174 717 887 1319 1489 1595> 885 207<1033.5 1250.1> 954 207<272.2 555.73>
Fore
883 827 m 1,0,1
 1017 789 1017 789 1089 693 c 0,2,3
 1161 594 1161 594 1161 457 c 0,4,5
 1161 257.5 1161 257.5 1020 133 c 0,6,7
 869 0 869 0 653 0 c 1,8,-1
 653 -133 l 1,9,-1
 541 -133 l 1,10,-1
 541 0 l 1,11,-1
 152 0 l 1,12,-1
 152 1489 l 1,13,-1
 541 1489 l 1,14,-1
 541 1595 l 1,15,-1
 653 1595 l 1,16,-1
 653 1489 l 1,17,18
 867 1489 867 1489 982 1402 c 0,19,20
 1092 1319 1092 1319 1092 1144 c 0,21,22
 1092 1059 1092 1059 1036 965 c 0,23,24
 1016 931 1016 931 990.5 906 c 128,-1,25
 965 881 965 881 940 865 c 128,-1,26
 915 849 915 849 883 827 c 1,0,1
541 885 m 1,27,-1
 541 1321 l 1,28,-1
 348 1321 l 1,29,-1
 348 885 l 1,30,-1
 541 885 l 1,27,-1
653 887 m 1,31,32
 738 887 738 887 814 941 c 0,33,34
 885 994 885 994 885 1124 c 0,35,36
 885 1221 885 1221 833 1264 c 0,37,38
 795 1295 795 1295 755 1307 c 128,-1,39
 715 1319 715 1319 653 1319 c 1,40,-1
 653 887 l 1,31,32
541 170 m 1,41,-1
 541 719 l 1,42,-1
 348 719 l 1,43,-1
 348 170 l 1,44,-1
 541 170 l 1,41,-1
653 174 m 1,45,46
 777 174 777 174 869 246 c 0,47,48
 954 313 954 313 954 449 c 0,49,50
 954 519 954 519 941 562.5 c 128,-1,51
 928 606 928 606 902 632 c 128,-1,52
 876 658 876 658 827 683 c 0,53,54
 760 717 760 717 653 717 c 1,55,-1
 653 174 l 1,45,46
EndSplineSet
EndChar
StartChar: uni0E40
Encoding: 3648 3648 183
Width: 740
Flags: W
HStem: -10 132<382 460> 1182 20G<217 401>
VStem: 217 183.84<397.105 1202> 217 132<155 233> 493 132<155 233>
Fore
217 193.947 m 6,0,1
 217 110 217 110 277 50 c 132,-1,2
 337 -10 337 -10 421 -10 c 132,-1,3
 505 -10 505 -10 565 50 c 132,-1,4
 625 110 625 110 625 194 c 132,-1,5
 625 278 625 278 565 338 c 132,-1,6
 505 398 505 398 421 398 c 4,7,8
 410.741 398 410.741 398 400.84 397.105 c 13,9,-1
 401 1202 l 5,10,-1
 217 1202 l 5,11,-1
 217 193.947 l 6,0,1
349 194 m 132,-1,13
 349 224 349 224 370 245 c 132,-1,14
 391 266 391 266 421 266 c 132,-1,15
 451 266 451 266 472 245 c 132,-1,16
 493 224 493 224 493 194 c 132,-1,17
 493 164 493 164 472 143 c 132,-1,18
 451 122 451 122 421 122 c 132,-1,19
 391 122 391 122 370 143 c 132,-1,12
 349 164 349 164 349 194 c 132,-1,13
EndSplineSet
EndChar
StartChar: uni0E41
Encoding: 3649 3649 184
Width: 1290
Flags: W
HStem: -10 132<372 450 932 1010> 266 132<385.194 450 945.194 1010> 1182 20G<207 391 767 951>
VStem: 207 183.84<397.105 1202> 207 132<155 233> 483 132<155 233> 767 183.84<397.105 1202> 767 132<155 233> 1043 132<155 233>
Fore
767 193.947 m 6,0,1
 767 110 767 110 827 50 c 132,-1,2
 887 -10 887 -10 971 -10 c 132,-1,3
 1055 -10 1055 -10 1115 50 c 132,-1,4
 1175 110 1175 110 1175 194 c 132,-1,5
 1175 278 1175 278 1115 338 c 132,-1,6
 1055 398 1055 398 971 398 c 4,7,8
 960.741 398 960.741 398 950.84 397.105 c 13,9,-1
 951 1202 l 5,10,-1
 767 1202 l 5,11,-1
 767 193.947 l 6,0,1
899 194 m 132,-1,13
 899 224 899 224 920 245 c 132,-1,14
 941 266 941 266 971 266 c 132,-1,15
 1001 266 1001 266 1022 245 c 132,-1,16
 1043 224 1043 224 1043 194 c 132,-1,17
 1043 164 1043 164 1022 143 c 132,-1,18
 1001 122 1001 122 971 122 c 132,-1,19
 941 122 941 122 920 143 c 132,-1,12
 899 164 899 164 899 194 c 132,-1,13
207 193.947 m 6,20,21
 207 110 207 110 267 50 c 132,-1,22
 327 -10 327 -10 411 -10 c 132,-1,23
 495 -10 495 -10 555 50 c 132,-1,24
 615 110 615 110 615 194 c 132,-1,25
 615 278 615 278 555 338 c 132,-1,26
 495 398 495 398 411 398 c 4,27,28
 400.741 398 400.741 398 390.84 397.105 c 13,29,-1
 391 1202 l 5,30,-1
 207 1202 l 5,31,-1
 207 193.947 l 6,20,21
339 194 m 132,-1,33
 339 224 339 224 360 245 c 132,-1,34
 381 266 381 266 411 266 c 132,-1,35
 441 266 441 266 462 245 c 132,-1,36
 483 224 483 224 483 194 c 132,-1,37
 483 164 483 164 462 143 c 132,-1,38
 441 122 441 122 411 122 c 132,-1,39
 381 122 381 122 360 143 c 132,-1,32
 339 164 339 164 339 194 c 132,-1,33
EndSplineSet
EndChar
StartChar: uni0E42
Encoding: 3650 3650 185
Width: 930
Flags: W
HStem: -10 132<578 656> 1780 160<342.1 568.3>
VStem: 414 131<155 233> 414 186<397 1406.3> 689 133<155 233>
Fore
600 1306 m 2,0,-1
 599 397 l 21,1,2
 609 398 609 398 618 398 c 0,3,4
 702 398 702 398 762 338 c 128,-1,5
 822 278 822 278 822 194 c 128,-1,6
 822 110 822 110 762 50 c 128,-1,7
 702 -10 702 -10 618 -10 c 128,-1,8
 534 -10 534 -10 474 50 c 128,-1,9
 414 110 414 110 414 194 c 2,10,-1
 414 1264 l 2,11,12
 414 1373.46 414 1373.46 266 1420 c 10,13,-1
 -52 1520 l 17,14,-1
 -52 1764 l 17,15,16
 61 1857 61 1857 194.5 1898.5 c 128,-1,17
 328 1940 328 1940 476 1940 c 0,18,19
 578 1940 578 1940 666 1911.5 c 128,-1,20
 754 1883 754 1883 817.5 1829 c 128,-1,21
 881 1775 881 1775 911 1717 c 9,22,-1
 759 1605 l 17,23,24
 749 1647 749 1647 706 1693 c 128,-1,25
 663 1739 663 1739 605 1759 c 128,-1,26
 547 1779 547 1779 476 1780 c 0,27,28
 373 1782 373 1782 275 1747.5 c 128,-1,29
 177 1713 177 1713 105 1658 c 9,30,-1
 336 1576 l 18,31,32
 600.194 1482.21 600.194 1482.21 600 1306 c 2,0,-1
545 194 m 128,-1,34
 545 164 545 164 566 143 c 128,-1,35
 587 122 587 122 617 122 c 128,-1,36
 647 122 647 122 668 143 c 128,-1,37
 689 164 689 164 689 194 c 128,-1,38
 689 224 689 224 668 245 c 128,-1,39
 647 266 647 266 617 266 c 128,-1,40
 587 266 587 266 566 245 c 128,-1,33
 545 224 545 224 545 194 c 128,-1,34
EndSplineSet
EndChar
StartChar: uni0E43
Encoding: 3651 3651 186
Width: 830
Flags: W
HStem: -10 132<466 544> 1362 144<131 235> 1775.5 134.5<326.5 395.281>
VStem: -67 154<1550 1654> 279 144<1550 1654> 304 129<155 233> 304 184<397 1177.67> 484 182.5<1529.7 1662.63> 577 135<155 233>
Back
204 1706.5 m 24,0,1
 171.62 1706.5 171.62 1706.5 147.81 1685.52 c 128,-1,2
 124 1664.53 124 1664.53 124 1633.5 c 0,3,4
 124 1602 124 1602 146 1579 c 128,-1,5
 168 1556 168 1556 199 1556 c 128,-1,6
 230 1556 230 1556 253 1578 c 128,-1,7
 276 1600 276 1600 276 1630.5 c 0,8,9
 276 1661.51 276 1661.51 255.123 1684 c 128,-1,10
 234.247 1706.5 234.247 1706.5 204 1706.5 c 24,0,1
284.5 1142.5 m 18,11,12
 284.5 1202.84 284.5 1202.84 302.988 1256.35 c 128,-1,13
 321.477 1309.86 321.477 1309.86 347.863 1349.16 c 128,-1,14
 374.25 1388.45 374.25 1388.45 400.637 1425.43 c 128,-1,15
 427.023 1462.4 427.023 1462.4 445.512 1505.87 c 128,-1,16
 464 1549.33 464 1549.33 464 1595 c 0,17,18
 464 1637.44 464 1637.44 448.375 1677.25 c 128,-1,19
 432.75 1717.06 432.75 1717.06 396.599 1746.28 c 128,-1,20
 360.447 1775.5 360.447 1775.5 311 1775.5 c 1,21,22
 332.406 1761.63 332.406 1761.63 342.255 1753.56 c 128,-1,23
 352.104 1745.48 352.104 1745.48 364.682 1728.89 c 128,-1,24
 377.26 1712.29 377.26 1712.29 382.13 1688.12 c 128,-1,25
 387 1663.96 387 1663.96 387 1628.5 c 0,26,27
 387 1564.63 387 1564.63 329.55 1507.84 c 128,-1,28
 272.1 1451.06 272.1 1451.06 203.938 1451.06 c 0,29,30
 119.725 1451.06 119.725 1451.06 64.6124 1504.12 c 128,-1,31
 9.5 1557.18 9.5 1557.18 9.5 1638.5 c 0,32,33
 9.5 1751.82 9.5 1751.82 95.4482 1830.91 c 128,-1,34
 181.396 1910 181.396 1910 306.5 1910 c 0,35,36
 387.896 1910 387.896 1910 454.589 1882.09 c 128,-1,37
 521.283 1854.19 521.283 1854.19 562.028 1809.02 c 128,-1,38
 602.773 1763.85 602.773 1763.85 624.636 1710.29 c 128,-1,39
 646.5 1656.74 646.5 1656.74 646.5 1602 c 0,40,41
 646.5 1553.22 646.5 1553.22 628.115 1502.1 c 128,-1,42
 609.729 1450.99 609.729 1450.99 583.49 1405.51 c 128,-1,43
 557.25 1360.03 557.25 1360.03 531.01 1313.02 c 128,-1,44
 504.771 1266.02 504.771 1266.02 486.385 1208.31 c 128,-1,45
 468 1150.6 468 1150.6 468 1092.18 c 2,46,-1
 468 398 l 1,47,48
 492 410 492 410 538 410 c 0,49,50
 619 410 619 410 679 357.5 c 128,-1,51
 739 305 739 305 739 216 c 0,52,53
 739 113 739 113 675 56.5 c 128,-1,54
 611 0 611 0 509 0 c 0,55,56
 408.543 0 408.543 0 346.536 78.1004 c 128,-1,57
 284.529 156.201 284.529 156.201 284.529 303.947 c 2,58,-1
 284.5 1142.5 l 18,11,12
531 281 m 152,-1,60
 500 281 500 281 477 260 c 128,-1,61
 454 239 454 239 454 208 c 128,-1,62
 454 177 454 177 476.5 154.5 c 128,-1,63
 499 132 499 132 530 132 c 128,-1,64
 561 132 561 132 583.5 154.5 c 128,-1,65
 606 177 606 177 606 208 c 0,66,67
 606 238 606 238 584 259.5 c 128,-1,59
 562 281 562 281 531 281 c 152,-1,60
EndSplineSet
Fore
488 1092 m 2,0,-1
 488 397 l 17,1,2
 498 398 498 398 508 398 c 0,3,4
 592 398 592 398 652 338 c 128,-1,5
 712 278 712 278 712 194 c 128,-1,6
 712 110 712 110 652 50 c 128,-1,7
 592 -10 592 -10 508 -10 c 128,-1,8
 424 -10 424 -10 364 50 c 128,-1,9
 304 110 304 110 304 194 c 2,10,-1
 304 1142 l 2,11,12
 304 1200 304 1200 322.738 1254.93 c 128,-1,13
 341.477 1309.86 341.477 1309.86 367.863 1349.16 c 128,-1,14
 394.25 1388.45 394.25 1388.45 420.637 1425.43 c 128,-1,15
 447.023 1462.4 447.023 1462.4 465.512 1505.87 c 128,-1,16
 484 1549.33 484 1549.33 484 1595 c 0,17,18
 484 1637.44 484 1637.44 468.375 1677.25 c 128,-1,19
 452.75 1717.06 452.75 1717.06 416.599 1746.28 c 128,-1,20
 380.447 1775.5 380.447 1775.5 331 1775.5 c 1,21,22
 424 1716 424 1716 423 1602 c 0,23,24
 421.778 1501.78 421.778 1501.78 352.5 1432.5 c 0,25,26
 282 1362 282 1362 183 1362 c 128,-1,27
 84 1362 84 1362 8.5 1437.5 c 128,-1,28
 -67 1513 -67 1513 -67 1602 c 0,29,30
 -67 1744.84 -67 1744.84 49.8379 1827.42 c 152,-1,31
 166.676 1910 166.676 1910 326.5 1910 c 0,32,33
 407.896 1910 407.896 1910 474.589 1882.09 c 128,-1,34
 541.283 1854.19 541.283 1854.19 582.028 1809.02 c 128,-1,35
 622.773 1763.85 622.773 1763.85 644.636 1710.29 c 128,-1,36
 666.5 1656.74 666.5 1656.74 666.5 1602 c 0,37,38
 666.5 1553.22 666.5 1553.22 648.115 1502.1 c 128,-1,39
 629.729 1450.99 629.729 1450.99 603.49 1405.51 c 128,-1,40
 577.25 1360.03 577.25 1360.03 551.01 1313.02 c 128,-1,41
 524.771 1266.02 524.771 1266.02 506.385 1208.51 c 128,-1,42
 488 1151 488 1151 488 1092 c 2,0,-1
433 194 m 128,-1,44
 433 164 433 164 454 143 c 128,-1,45
 475 122 475 122 505 122 c 128,-1,46
 535 122 535 122 556 143 c 128,-1,47
 577 164 577 164 577 194 c 128,-1,48
 577 224 577 224 556 245 c 128,-1,49
 535 266 535 266 505 266 c 128,-1,50
 475 266 475 266 454 245 c 128,-1,43
 433 224 433 224 433 194 c 128,-1,44
87 1602 m 128,-1,52
 87 1562 87 1562 115 1534 c 128,-1,53
 143 1506 143 1506 183 1506 c 128,-1,54
 223 1506 223 1506 251 1534 c 128,-1,55
 279 1562 279 1562 279 1602 c 128,-1,56
 279 1642 279 1642 251 1670 c 128,-1,57
 223 1698 223 1698 183 1698 c 128,-1,58
 143 1698 143 1698 115 1670 c 128,-1,51
 87 1642 87 1642 87 1602 c 128,-1,52
EndSplineSet
EndChar
StartChar: uni0E44
Encoding: 3652 3652 187
Width: 910
Flags: W
HStem: -10 132<559 637>
VStem: 395 131<155 233> 395 184<397 1654> 670 133<155 233>
Fore
395 1654 m 17,0,1
 348.848 1648.87 348.848 1648.87 314.424 1571.44 c 128,-1,2
 280 1494 280 1494 246 1356 c 1,3,-1
 138 1356 l 1,4,5
 115 1468 115 1468 33 1626.5 c 128,-1,6
 -49 1785 -49 1785 -120 1854 c 1,7,-1
 -74.5 1995.5 l 1,8,9
 1.58105 1926.3 1.58105 1926.3 82.1035 1813.11 c 128,-1,10
 162.626 1699.92 162.626 1699.92 192 1605.5 c 1,11,12
 234.259 1741.17 234.259 1741.17 297.269 1823.09 c 128,-1,13
 360.279 1905 360.279 1905 419.5 1905 c 2,14,-1
 579 1905 l 9,15,-1
 579 397 l 17,16,17
 589 398 589 398 599 398 c 0,18,19
 683 398 683 398 743 338 c 128,-1,20
 803 278 803 278 803 194 c 128,-1,21
 803 110 803 110 743 50 c 128,-1,22
 683 -10 683 -10 599 -10 c 128,-1,23
 515 -10 515 -10 455 50 c 128,-1,24
 395 110 395 110 395 194 c 2,25,-1
 395 1654 l 17,0,1
526 194 m 128,-1,27
 526 164 526 164 547 143 c 128,-1,28
 568 122 568 122 598 122 c 128,-1,29
 628 122 628 122 649 143 c 128,-1,30
 670 164 670 164 670 194 c 128,-1,31
 670 224 670 224 649 245 c 128,-1,32
 628 266 628 266 598 266 c 128,-1,33
 568 266 568 266 547 245 c 128,-1,26
 526 224 526 224 526 194 c 128,-1,27
EndSplineSet
EndChar
StartChar: uni0E45
Encoding: 3653 3653 188
Width: 970
Flags: MW
HStem: 1066 156<246 347.5>
VStem: 588 186<-410 927>
Fore
588 -410 m 1,0,-1
 774 -410 l 25,1,-1
 774 714 l 2,2,3
 774 970 774 970 654 1096 c 128,-1,4
 534 1222 534 1222 291 1222 c 4,5,6
 201 1222 201 1222 106 1202.5 c 128,-1,7
 11 1183 11 1183 -90 1144 c 1,8,-1
 -90 974 l 1,9,10
 -6 1020 -6 1020 85 1043 c 128,-1,11
 176 1066 176 1066 272 1066 c 4,12,13
 423 1066 423 1066 505.5 996.5 c 128,-1,14
 588 927 588 927 588 796 c 2,15,-1
 588 -410 l 1,0,-1
EndSplineSet
EndChar
StartChar: uni0E46
Encoding: 3654 3654 189
Width: 1200
Flags: W
HStem: 585.851 121<276.809 362.057> 859.851 113.649<279.293 365.082>
VStem: 104 136<742.159 825.814> 772 183<-378 923.09>
Fore
955 863.351 m 2,0,-1
 955 -408 l 5,1,-1
 772 -408 l 5,2,-1
 772 847.351 l 2,3,4
 772 912.685 772 912.685 755.132 972.785 c 128,-1,5
 738.263 1032.89 738.263 1032.89 688 1043.85 c 1,6,-1
 530 945.851 l 1,7,-1
 363 1056.85 l 1,8,9
 335 1045 335 1045 312.776 1026.92 c 128,-1,10
 290.553 1008.83 290.553 1008.83 277 967.851 c 1,11,12
 287.938 973.609 287.938 973.609 320 973.5 c 0,13,14
 412.432 974.636 412.432 974.636 464.303 929.811 c 128,-1,15
 516.175 884.987 516.175 884.987 522 800.851 c 0,16,17
 528.703 704.045 528.703 704.045 465.376 641.694 c 0,18,19
 408.752 585.851 408.752 585.851 323 585.851 c 0,20,21
 227.998 585.851 227.998 585.851 165.999 652.013 c 128,-1,22
 104 718.175 104 718.175 104 824.851 c 0,23,24
 104 972.336 104 972.336 172.001 1067.78 c 128,-1,25
 240.001 1163.22 240.001 1163.22 376 1223.85 c 1,26,27
 376 1219.67 376 1219.67 531 1115.85 c 1,28,-1
 688 1223.85 l 1,29,30
 787.558 1207.48 787.558 1207.48 871.279 1123.16 c 128,-1,31
 955 1038.83 955 1038.83 955 863.351 c 2,0,-1
319 706.851 m 24,32,33
 352.121 706.851 352.121 706.851 376.561 728.058 c 128,-1,34
 401 749.265 401 749.265 401 780.851 c 0,35,36
 401 813.41 401 813.41 378.186 836.63 c 128,-1,37
 355.371 859.851 355.371 859.851 323 859.851 c 0,38,39
 289.379 859.851 289.379 859.851 264.69 837.99 c 128,-1,40
 240 816.13 240 816.13 240 783.851 c 0,41,42
 240 751.78 240 751.78 263.272 729.315 c 128,-1,43
 286.545 706.851 286.545 706.851 319 706.851 c 24,32,33
EndSplineSet
EndChar
